<svg xmlns="http://www.w3.org/2000/svg" viewBox="0 0 260.86 56.58"><defs><style>.cls-1{fill:#fff;}.cls-2{stroke:#000;stroke-miterlimit:10;stroke-width:0.19px;}</style></defs><title>FL2</title><g id="Capa_2" data-name="Capa 2"><g id="Capa_1-2" data-name="Capa 1"><path d="M81,20.17v6.7h8.62a6.53,6.53,0,0,1,.19,1.91,6.6,6.6,0,0,1-.19,1.92H81V41.41a7.52,7.52,0,0,1-2.29.2,7.56,7.56,0,0,1-2.3-.2V16.15l.19-.19H91.75a5.89,5.89,0,0,1,.19,1.91c0,1.53-1,2.11-2.68,2.11H84.1A21.35,21.35,0,0,1,81,20.17Z"/><path class="cls-1" d="M77.28,20.17v6.7A3.81,3.81,0,0,0,81,30.62h8.62L86,27.86a7.08,7.08,0,0,1,0,1.84L89.65,27H81a3.8,3.8,0,0,0-3.75,3.75V41.41L80,37.8a14.11,14.11,0,0,1-2.6,0l2.75,3.61V16.15l-1.1,2.65.19-.19-2.65,1.1H91.75L88.14,17c-.57-3,2.34.38.32-.72a10.4,10.4,0,0,0-2.73,0c-1.57,0-3.13.17-4.7.19-4.82,0-4.83,7.54,0,7.5,6.79-.07,16.17.74,14.34-9a3.77,3.77,0,0,0-3.62-2.75H79.18c-3.59,0-6.21.61-6.49,4.72-.55,8.08,0,16.38,0,24.48A3.78,3.78,0,0,0,75.44,45,19.19,19.19,0,0,0,82,45a3.76,3.76,0,0,0,2.75-3.62V30.7L81,34.45h8.62a3.79,3.79,0,0,0,3.61-2.76,15.82,15.82,0,0,0,0-5.82,3.76,3.76,0,0,0-3.61-2.75H81l3.75,3.75v-6.7C84.78,15.34,77.28,15.33,77.28,20.17Z"/><path d="M94.24,35.48V27.25a5.82,5.82,0,0,0-.76-3.45,3.59,3.59,0,0,1,2.68-.95,2.39,2.39,0,0,1,2.1.76,3.11,3.11,0,0,1,.58,2.11v8.8A7.53,7.53,0,0,0,99.22,37a1.54,1.54,0,0,0,1.53.77,5,5,0,0,0,3.83-1.92V23a14,14,0,0,1,4.59,0V36.25a4.66,4.66,0,0,0,1,3.25,3.84,3.84,0,0,1-1.53,2.3A4.44,4.44,0,0,1,105,39.12,8.86,8.86,0,0,1,99,41.8a4.56,4.56,0,0,1-3.83-1.73A10.14,10.14,0,0,1,94.24,35.48Z"/><path class="cls-1" d="M98,35.48c0-4.23.86-9.76-1.28-13.57L95.37,27c1.06-.76,0-1.36-.28-1s0,1.9,0,2.32c0,1.77,0,3.54,0,5.3.06,4.94,2.47,9.21,8.15,7.47,4.68-1.43,5.09-4.71,5.09-8.79V23l-2.76,3.61a16.25,16.25,0,0,1,2.61,0L105.42,23V31.8c0,3.13-.48,6.93,1.47,9.59l-.38-2.89-.56.65,3.64-1a1.21,1.21,0,0,1-1.39-1,3.81,3.81,0,0,0-5.89-.75c-.78.64-2.44,2-3.62,1.52-.62-.26-.63-1.11-.7-2.51-.24-4.8-7.74-4.83-7.5,0,.21,4.12,1.34,8.3,5.72,9.66s8.19-.7,11.4-3.37L101.72,41c1.85,3.09,6.11,6.2,9.53,3.44a6.91,6.91,0,0,0,2.63-5c0-1.3-.83-2.3-1-3.58-.42-4.21,0-8.65,0-12.88,0-1.48-1.15-3.38-2.75-3.62a22.06,22.06,0,0,0-6.59,0c-1.6.24-2.75,2.12-2.75,3.62V35.86l1.1-2.65c.47-.45.29,4.19.66,1.27,0-.14,0-.29,0-.43.06-.82,0-1.67,0-2.49,0-1.88.08-3.77,0-5.65-.26-5.83-6.06-8.88-11-5.34a3.84,3.84,0,0,0-1.34,5.13c.65,1.16.25,3.67.25,4.94v4.84C90.49,40.31,98,40.31,98,35.48Z"/><path d="M124.29,30.5v-.38a7.3,7.3,0,0,0-.57-3.06,2.31,2.31,0,0,0-2.3-1.15c-2.1,0-3.25,2.11-3.25,6.13s1.34,6.12,3.83,6.12a8,8,0,0,0,4.4-1.72,3.2,3.2,0,0,1,1.15,1.15,5.6,5.6,0,0,1,.76,1.53,9.29,9.29,0,0,1-6.7,2.87,7.3,7.3,0,0,1-5.93-2.68c-1.34-1.72-1.91-4.21-1.91-7.27A10.2,10.2,0,0,1,116.06,25a7.18,7.18,0,0,1,5.55-2.49,7.65,7.65,0,0,1,5.17,1.73,5.18,5.18,0,0,1,1.92,4.21c0,1.72-.77,2.49-2.3,2.49C125.63,30.7,125.06,30.7,124.29,30.5Z"/><path class="cls-1" d="M128,30.5c0-4.06-1.59-7.95-6.11-8.28-4-.28-6.51,2.79-7.21,6.42s-.51,8.39,2.2,11.17c3.26,3.35,7.88,2,11.37-.13h-3.78l.19.43,1-3.64c-1.65,1.49-4.59,2.69-6.6,1-1.7-1.44-1.75-4.66-1.5-6.68.29-2.32,1.49-4.45,4-4.56a5.14,5.14,0,0,1,2.81,1A1.18,1.18,0,0,1,125,28.4q2.73-1.51.34-1.51c-4.72-.86-6.74,6.37-2,7.23,3,.55,6.4.86,8.27-2.21,1.53-2.53.94-6.14-.57-8.52-3.79-6-13-6-17.59-1.09C109,27,108.8,36,112.44,41.2c4.51,6.42,13.32,5.27,18.53.57a3.65,3.65,0,0,0,1-3.65,10.46,10.46,0,0,0-3.64-4.92,3.64,3.64,0,0,0-3.78,0c-.66.41-2.72,1-2.12,1.51-.51-.44-.47-2.18-.47-2.67l0-1.27c.55-1,.37-1.35-.54-1.11-1.28-1.13-.88-.5-.88.84C120.54,35.33,128,35.34,128,30.5Z"/><path d="M147.46,29V37.2a5.82,5.82,0,0,0,.76,3.45,4.59,4.59,0,0,1-2.68,1,2.38,2.38,0,0,1-2.1-.77,3,3,0,0,1-.58-2.11v-8.8a7.58,7.58,0,0,0-.38-2.49c-.19-.57-.77-.76-1.53-.76a5.64,5.64,0,0,0-4,1.91V41.22a14,14,0,0,1-4.6,0V14l.19-.19h1.73a2.55,2.55,0,0,1,1.91.57,3.36,3.36,0,0,1,.58,2.3v8a7.89,7.89,0,0,1,5.36-2.3,4.71,4.71,0,0,1,4,1.73A9.42,9.42,0,0,1,147.46,29Z"/><path class="cls-1" d="M143.71,29c0,4.38-.76,9.57,1.27,13.57l1.35-5.13c1.2-.65-.25,2.55.28.56a11.61,11.61,0,0,0,0-2.7c0-1.62.06-3.24,0-4.85-.16-4.61-2.09-8.25-7.33-7.26-8.51,1.61-6.1,11.7-6.1,18.06l2.75-3.61a16.12,16.12,0,0,1-2.6,0l2.75,3.61V14L135,16.69l.19-.19-2.66,1.1c2.8,0,.25-.05.47-.88A9.33,9.33,0,0,0,133,19v5.8c0,3.56,4,4.54,6.4,2.65s4.11-1.17,4.32,1.56c.35,4.79,7.85,4.83,7.5,0-.75-10-9.5-12.78-17.13-6.86l6.41,2.65c0-3.86,1.2-10.46-2.06-13.28-3.61-3.13-9.49-1.49-9.85,3.29-.65,8.71,0,17.71,0,26.45a3.79,3.79,0,0,0,2.76,3.62,20.75,20.75,0,0,0,6.58,0,3.77,3.77,0,0,0,2.76-3.62V28.59l-1.1,2.65c-1.11.9.09-2.88-.47-.27a12.33,12.33,0,0,0,0,2.43c0,1.74-.1,3.53,0,5.27.38,6.25,5.86,8,11,5.22a3.83,3.83,0,0,0,1.35-5.13c-1.22-2.41-.25-7.17-.25-9.79C151.21,24.15,143.71,24.14,143.71,29Z"/><path d="M150.9,40.07a5.67,5.67,0,0,1,.38-1.72,4.34,4.34,0,0,1,1-1.53,9.84,9.84,0,0,0,5.17,1.53,3.42,3.42,0,0,0,2.1-.57,1.45,1.45,0,0,0,.77-1.34c0-1-.77-1.72-2.11-2.3l-2.1-.76c-3.06-1.15-4.59-2.88-4.59-5.36a5.17,5.17,0,0,1,1.91-4.22,7.1,7.1,0,0,1,5-1.53,15.38,15.38,0,0,1,6.31,1.53,3.83,3.83,0,0,1-.38,1.92,4.07,4.07,0,0,1-1,1.53,13.73,13.73,0,0,0-5-1.34,2.37,2.37,0,0,0-1.73.57,1.76,1.76,0,0,0-.57,1.34c0,.77.57,1.34,1.91,1.92l2.3.76c3.25,1.15,4.79,3.07,4.79,5.75a4.94,4.94,0,0,1-1.92,4.21A9.59,9.59,0,0,1,157.6,42,12.33,12.33,0,0,1,150.9,40.07Z"/><path class="cls-1" d="M154.52,41.07a4.2,4.2,0,0,1,.37-1.6l-4.54.59c3.15,1.68,7.2,3,10.6,1.17a5.4,5.4,0,0,0,2-8c-1.57-2.2-3.88-2.43-6.08-3.57-1.7-.87-2.43-2.41-.29-3.41s5.15.34,7.09,1.15l-2.76-3.62-.24.8,3.65-1c-3.22-1.25-7.48-2.57-10.35.2a5.46,5.46,0,0,0,.25,8c1.77,1.53,4.85,1.44,6.39,3.07,1.18,1.24.69,2.48-.85,3-2.32.85-5,.06-7-1.09-4.2-2.39-8,4.08-3.78,6.47,6.43,3.66,18.26,3.7,19.67-5.56A9.23,9.23,0,0,0,165.24,29a14.78,14.78,0,0,0-4.2-2.15,13,13,0,0,0-1.82-.61l.49,3.71c.9.28,1.77.6,2.64,1a3.6,3.6,0,0,0,3.64-1,10,10,0,0,0,2.44-6.1c.1-1.8-1.26-3-2.75-3.61-6.75-2.82-17.48-2.05-17.92,7.33a8.93,8.93,0,0,0,4.41,8.12,11.47,11.47,0,0,0,3.64,1.62l.89.32q1.7.77.71-3c-.34-.34-2.77-.75-3.28-1-1.33-.71-3.5-.73-4.54.59a9.82,9.82,0,0,0-2.31,4.91C146.63,43.8,153.85,45.84,154.52,41.07Z"/><path d="M185.74,37.39h7.08a4.32,4.32,0,0,1-.19,1.73c-.19,1.53-1.34,2.29-3.06,2.29h-9.19a2.24,2.24,0,0,1-1.92-.76,2.64,2.64,0,0,1-.76-2.11V16l.19-.2h1.72a2.4,2.4,0,0,1,2.11.77,3.35,3.35,0,0,1,.57,2.3V37.59C183.44,37.59,184.59,37.39,185.74,37.39Z"/><path class="cls-1" d="M185.74,41.14h7.08l-3.75-3.75c0,1.55.18.24.36.27-.54-.09-1.13.06-1.68,0a21.48,21.48,0,0,0-5.55,0,8.67,8.67,0,0,1-1.69,0c2.45,0,.51,1.38.94.39s0-2.88,0-3.82V16l-1.1,2.65.19-.19-2.65,1.09c2.5,0,.54.07.65-.68,0,.29.11.7,0,1-.62,1.56,0,4.83,0,6.48V37.59a3.79,3.79,0,0,0,3.75,3.75l3.45-.2c4.8-.26,4.83-7.76,0-7.5l-3.45.2L186,37.59c0-6.54,1-13.75-.14-20.2-.74-4.34-7-7.73-10.66-4.28-2,1.86-1.29,5.56-1.29,8V34.63c0,3.32-.44,7,2.62,9.26s8.44,1.39,11.91,1.27c5-.17,8-2.56,8.09-7.77a3.8,3.8,0,0,0-3.75-3.75h-7.08C180.91,33.64,180.9,41.14,185.74,41.14Z"/><path d="M211.58,32.23a10.62,10.62,0,0,1-2.68,7.65,8.35,8.35,0,0,1-11.1,0c-1.73-1.72-2.68-4.21-2.68-7.65,0-3.26.95-5.94,2.68-7.66a8.35,8.35,0,0,1,11.1,0A10.63,10.63,0,0,1,211.58,32.23Zm-14-12.06a3.22,3.22,0,0,1,0-3.07,3.86,3.86,0,0,1,2.1-.57,4.4,4.4,0,0,1,2.11.57,5.67,5.67,0,0,1,.38,1.73,3.63,3.63,0,0,1-.38,1.53,3.9,3.9,0,0,1-2.11.57C199,20.55,198.18,20.55,197.61,20.17Zm5.74,5.74q-3.45,0-3.45,6.32t3.45,6.31c2.3,0,3.44-2.1,3.44-6.31S205.65,25.91,203.35,25.91Zm1.53-5.74a6,6,0,0,1-.38-1.53,3.67,3.67,0,0,1,.38-1.54,4.17,4.17,0,0,1,4.21,0,3.89,3.89,0,0,1,.38,1.73,3.63,3.63,0,0,1-.38,1.53,3.86,3.86,0,0,1-2.1.57A12.52,12.52,0,0,1,204.88,20.17Z"/><path class="cls-1" d="M207.83,32.23c-.11,2.92-1,6-4.48,6s-4.49-3.07-4.48-6,1.07-6,4.48-6,4.37,3.09,4.48,6c.18,4.81,7.68,4.83,7.5,0-.26-7.07-4.22-13.52-12-13.52-7.57,0-12,6.44-12,13.52,0,6.89,4.11,13.14,11.42,13.48,8,.37,12.27-6.19,12.54-13.48C215.51,27.4,208,27.41,207.83,32.23Z"/><path class="cls-1" d="M200.84,18.27c.41.89.08-.46.13.37l-.05.32c.14-.44.11-.43-.08,0l-1.34,1.34c.6-.35-.36.07.09-.05s-.85,0,.12,0c.45,0,.24,0-.09,0,.77.07-.5-.29.3.09L198.2,18.1c.08.23.15.46.22.69.09.4.11.46.06.19a.69.69,0,0,1,0-.47c-.13.43-.11.42.08,0l1.34-1.35c-.6.36.36-.07-.08.05s.87,0-.13,0l1.89.52a13.1,13.1,0,0,0-1.7-.68c-.26-.07-1.17-.52-.4-.09a3.75,3.75,0,0,0-3.79,6.48,9.61,9.61,0,0,0,1.88.76c.07,0,.71.16.35.06s-.16-.09.33.13a1.82,1.82,0,0,0,.94.26,7.12,7.12,0,0,0,4.37-.95,5.45,5.45,0,0,0,2.35-4.5c.11-1.42-.37-3.72-1.46-4.72-2.17-2-5.67-2-8.22-.86-3.26,1.52-3.14,5.68-1.88,8.47.81,1.79,3.55,2.36,5.13,1.35A3.87,3.87,0,0,0,200.84,18.27Z"/><path class="cls-1" d="M203.35,22.16c-5.44.34-7.2,5.26-7.2,10.07,0,4.53,1.74,10.06,7.2,10.06,5.28,0,7.1-5.22,7.19-9.66.1-4.91-1.58-10.12-7.19-10.47-4.82-.3-4.8,7.2,0,7.5-.85-.05-.52-.78-.64-.21a21.63,21.63,0,0,0,.33,2.78,21.63,21.63,0,0,0-.33,2.78c.11.53-.29-.09.64-.22.2,0,.82.38.72.48s-.41-2.46-.41-2.64c0-1,.25-2,.24-2.92s.52-.12-.55-.05C208.14,29.36,208.18,21.85,203.35,22.16Z"/><path class="cls-1" d="M208.5,19.17c-.08-.22-.15-.45-.22-.68-.09-.39-.11-.42-.06-.08a1,1,0,0,1,0,.55c.14-.44.11-.43-.07,0l-1.35,1.34c.6-.35-.35.07.09-.05s-.84,0,.13,0c.47,0,.22.1,0,0,.93.5-.64-.43.24.09L205.85,19c-.21-.55-.25-.6-.11-.18,0-.42,0-.48,0-.18s0,.25.06-.13c-.14.43-.11.42.07,0l1.35-1.35c-.31.17-.35.2-.1.08s.22-.1-.14,0c.19,0,.85.11.53-.07a3.52,3.52,0,0,0-.7-.21c-.72-.17.66.4,0,0A3.75,3.75,0,1,0,203,23.41a7.88,7.88,0,0,0,7.6.4c2.87-1.43,3.33-5.92,1.79-8.49s-5.39-3.08-8-2.11A5.09,5.09,0,0,0,201,16.8a7.46,7.46,0,0,0,.26,4.36,3.75,3.75,0,0,0,7.24-2Z"/><path d="M217.32,39.31l-3.83-16.08a6.69,6.69,0,0,1,2.49-.57,2.47,2.47,0,0,1,1.53.38,3.5,3.5,0,0,1,.77,1.53l1.53,7.08A52.87,52.87,0,0,1,221,37.59a.41.41,0,0,0,.38.38L224,23a19,19,0,0,1,5.36,0l2.68,14.55a.41.41,0,0,0,.38.38c.58-3.45,1.15-5.55,1.15-6.32L235.51,23a7.19,7.19,0,0,1,2.1-.19,6,6,0,0,1,2.11.38l.19.19-4.4,18a13.13,13.13,0,0,1-3.07.2,5.84,5.84,0,0,1-2.48-.39,3.48,3.48,0,0,1-1-1.91l-1-4.79q-.57-3.72-1.15-7.46h-.19a69.57,69.57,0,0,1-1.34,7.46L224,41.41a13.86,13.86,0,0,1-3.06.2,6.64,6.64,0,0,1-2.49-.39A3,3,0,0,1,217.32,39.31Z"/><path class="cls-1" d="M220.94,38.31l-3.83-16.08-2.62,4.62c3.33-1.09.44-.19.19-1.2a5.56,5.56,0,0,1,.26,1.21,23.83,23.83,0,0,0,1,4.5c.65,3,.57,7.06,2.77,9.26,1.86,1.86,5.76,1.2,6.27-1.65L227.64,24,225,26.65a26.91,26.91,0,0,1,3.36,0L225.77,24l1.6,8.68c.47,2.6.46,5.94,2.42,7.9s5.77,1.2,6.27-1.65c1-5.58,1.77-9.11,3.06-14.93l-2.62,2.61c1.16.26,1.41.07.76-.58l-1-3.65-4.4,18,2.62-2.62a7.65,7.65,0,0,1-3.56-.19l2.24,1.72c-2.21-3-2.17-9.95-2.68-13.27a3.76,3.76,0,0,0-3.62-2.75h-.19c-2.21,0-3.5,1.73-3.75,3.75-.55,4.47-1.68,8.93-2.54,13.36L224,37.66c-.39.05-3.37-.06-3.08.65-1.79-4.42-9-2.49-7.23,2,1.93,4.77,5.36,5.45,10.31,4.85,1.56-.18,3.28-1,3.62-2.75,1-5.1,2.18-10.19,2.81-15.35l-3.75,3.75h.19l-3.61-2.75c.64,4.19.83,9.41,2.51,13.42,1.84,4.41,6.64,4.21,10.71,3.55a3.64,3.64,0,0,0,2.62-2.62l3.63-14.8c.42-1.73,1.31-3.9.59-5.63-1.39-3.31-5.93-3.05-8.83-2.56A3.67,3.67,0,0,0,231.89,22c-1.1,5-2.18,9.92-3.06,14.93l6.27-1.65c1.23,1.23.43,1.56.45.59a9.67,9.67,0,0,0-.32-1.77l-.89-4.82L233,22a3.63,3.63,0,0,0-2.62-2.62,24.54,24.54,0,0,0-7.36,0A3.61,3.61,0,0,0,220.41,22L217.73,37,224,35.32s-.52-4.52-.84-6c-.4-1.78-.65-3.64-1.17-5.4-1.38-4.64-5-5.81-9.48-4.35a3.84,3.84,0,0,0-2.62,4.62l3.83,16.08C214.82,45,222.06,43,220.94,38.31Z"/><path d="M257,33.76H246.61a5.62,5.62,0,0,0,1,3.44,3.5,3.5,0,0,0,3.06,1.15A9.53,9.53,0,0,0,255.41,37a4.49,4.49,0,0,1,1.34,2.87A12.36,12.36,0,0,1,249.67,42c-2.87,0-4.78-1-5.93-2.68a12.89,12.89,0,0,1-1.92-7.08,11.92,11.92,0,0,1,1.92-7.09,6.44,6.44,0,0,1,5.74-2.68,7.22,7.22,0,0,1,5.74,2.3,8.35,8.35,0,0,1,1.92,5.74A9.44,9.44,0,0,1,257,33.76Zm-7.09-7.85c-2.1,0-3.06,1.53-3.25,4.59h6.51v-.38a5.15,5.15,0,0,0-.77-3.06A3.07,3.07,0,0,0,249.86,25.91Z"/><path class="cls-1" d="M257,30H246.61a3.78,3.78,0,0,0-3.75,3.75c.54,8.39,7.71,9.77,14.45,6.49l-4.55-.59.38,1.22,1.72-4.23c-1.94,1.2-6,2.76-7.93.7-1.74-1.83-1.65-5.83-1-8s2.33-3.77,4.88-3c2.75.83,2.95,4,2.55,6.42-.76,4.72,6.46,6.75,7.23,2,.92-5.72-.12-12.21-5.89-14.95a11.32,11.32,0,0,0-14.92,4.74c-2.7,5.21-2.37,13.25,1.61,17.77,4.33,4.92,12.2,4,17.29.81a3.87,3.87,0,0,0,1.72-4.23,10.18,10.18,0,0,0-2.3-4.53c-1.11-1.34-3.15-1.27-4.55-.59s-3.05,1.78-3.16,0l-3.75,3.75H257C261.77,37.51,261.78,30,257,30Z"/><path class="cls-1" d="M249.86,22.16A6.59,6.59,0,0,0,244.43,25a10.82,10.82,0,0,0-1.57,5.53,3.78,3.78,0,0,0,3.75,3.75h6.51a3.8,3.8,0,0,0,3.75-3.75,9.93,9.93,0,0,0-1.18-5.18,7,7,0,0,0-5.83-3.16,3.75,3.75,0,0,0,0,7.5q-.6-.14.06,0l-.25-.09a1.29,1.29,0,0,1-.36-.34c-.1-.27-.11-.27,0,0s.07.26.05,0c0,.21,0,.42,0,.64s0,.39,0,.59l3.75-3.75h-6.51l3.75,3.75c0-.48,0-.54,0-.17,0-.23.08-.45.13-.68a6.09,6.09,0,0,1,.17-.61c-.2.44-.21.49,0,.13s.18-.29-.14.16-.53.37-.2.16c-.54.2-.61.24-.22.12-.57.06-.64.07-.2.05a3.75,3.75,0,0,0,0-7.5Z"/><circle class="cls-1" cx="12.03" cy="21.9" r="7.74"/><path class="cls-1" d="M12,17.91c5.12.28,5.16,8,0,8s-5.12-7.71,0-8c4.8-.26,4.83-7.76,0-7.5C5.81,10.75.54,15.41.54,21.9A11.65,11.65,0,0,0,12,33.4,11.61,11.61,0,0,0,23.5,22.33c.28-6.66-5.1-11.58-11.47-11.92C7.21,10.15,7.22,17.65,12,17.91Z"/><path d="M19.23,21.9a7,7,0,0,1-4.8,6.76A7.2,7.2,0,0,1,5.82,18.2a7.35,7.35,0,0,1,7.52-3.38,7.23,7.23,0,0,1,5.89,7.08.55.55,0,0,0,1.09,0A8.29,8.29,0,0,0,15,14.16a8.34,8.34,0,0,0-10.15,12,8.48,8.48,0,0,0,8.62,3.92,8.3,8.3,0,0,0,6.76-8.18C20.32,21.14,19.23,21.14,19.23,21.9Z"/><path class="cls-1" d="M15.48,21.9c-.28,4.63-7.33,4.26-6.91-.32.39-4.28,6.06-3.77,6.87,0,.47,2.13,1,4.06,3.57,4.46a4.25,4.25,0,0,0,4.74-2.67c1.5-3.74-1.47-8.68-4.33-10.91A12.16,12.16,0,0,0,.18,19.88C-1.41,29,7.91,36.58,16.5,33.06a12.15,12.15,0,0,0,7.42-10.32c.32-5.48-6.3-6.94-8.31-1.83-1.76,4.49,5.49,6.44,7.23,2l.17-.43-2.62,2.62H19.11l-2.62-2.62c.46,1.85-2.54,3.82-4,4a4.52,4.52,0,1,1-.5-9,4.33,4.33,0,0,1,3.08,1.16,8.5,8.5,0,0,1,1.06,1.5c.56.76-.16,1.58.63.37L20,18.59h-.53l3.24,1.86c.65,1,.12-.09,0-.82a10.88,10.88,0,0,0-.7-2.11,11,11,0,0,0-2.1-3.17A10.87,10.87,0,0,0,12.45,11,11.11,11.11,0,0,0,1.07,21.58a11,11,0,0,0,10.3,11.19C17.86,33.18,22.6,28.12,23,21.9,23.27,17.08,15.77,17.1,15.48,21.9Z"/><path d="M8.65,23.65H5.27A1.33,1.33,0,0,1,4,22.34V21.25a1.33,1.33,0,0,1,1.31-1.31H8.65A1.33,1.33,0,0,1,10,21.25v1.09A1.41,1.41,0,0,1,8.65,23.65Z"/><path class="cls-1" d="M8.65,19.9H5.89c-2.16,0,2.28-.09,1.82,2.44a2.91,2.91,0,0,0,0-.66c-.1-1.87,1,2.58-2.44,2a17,17,0,0,0,2.57,0,4.56,4.56,0,0,0,.64,0c1.47-.17-3.41,3.88-2.27-2.44a2.91,2.91,0,0,0,0,.66v.37c0-1.4.85-2.2,2.44-2.38-1.94.23-3.85,1.56-3.75,3.75.08,1.83,1.66,4,3.75,3.75,2.8-.33,4.94-2.16,5.06-5.12.08-2.09-.49-4.12-2.38-5.3-1.65-1-4.15-.88-6.06-.79A5.2,5.2,0,0,0,.21,21.28,5.94,5.94,0,0,0,1.83,26c1.81,1.75,4.52,1.37,6.82,1.37a3.75,3.75,0,0,0,0-7.5Z"/><path class="cls-1" d="M53.79,6.09C49,1,39.4,11.87,39.4,11.87c-4.69-2.29-11.34-.76-11.34-.76l-3-3C17.27.2,14.87,9.15,14.87,9.15L10.4,27.25c-10.8,3.6-.55,15.92-.55,15.92C18,51.89,29,52.44,36.78,51.35a28.87,28.87,0,0,0,17.56-9.16C67.86,27.46,57.94,10.56,53.79,6.09Z"/><path class="cls-1" d="M56.45,3.44c-6.63-5.85-15,.47-19.7,5.78l3.65-1a22.9,22.9,0,0,0-13.34-.77l3.65,1c-3-3.05-6.34-7.13-11-7.36-4.11-.21-7.07,3-8.33,6.59-2.06,6-3.11,12.44-4.62,18.56L9.4,23.63C-.33,27.47.63,36.79,6,44.2c6.48,9,18.64,12.13,29.2,11.09,13.25-1.3,26-10.16,29.08-23.67,2.24-9.83-1.14-20.71-7.78-28.18-3.22-3.61-8.51,1.71-5.31,5.3C58.51,17,59.69,29.88,52.5,38.56c-8.21,9.93-24.41,12.67-35.43,5.74-3.6-2.26-5.39-4-7.06-8-.73-1.7-1.32-3.41.08-4.83,1.54-1.58,3.06-1.14,4-3.53,2.17-5.63,2-12.33,4.4-17.84,1.58-3.53,4.49,1.4,6.32,3,3.59,3.16,9.14.53,13.6,2.34a3.65,3.65,0,0,0,3.65-1c1.34-1.49,7-7.6,9.09-5.78C54.75,11.93,60.08,6.64,56.45,3.44Z"/><path d="M54.56,5.33c-4.91-5-12.65,2-15.92,5.78.43-.11.87-.11,1.31-.22C36.24,9.15,31.77,9.15,27.84,10c.33.11.77.22,1.09.33-2.18-2.19-4.47-5-7.41-6.22S16.07,4.35,14.65,7a18.92,18.92,0,0,0-1.2,3.49c-.76,3.06-1.53,6.22-2.29,9.27-.55,2.4-1.2,4.8-1.75,7.2l.77-.76C7,27.25,4.62,29.43,4.4,32.81a14.55,14.55,0,0,0,2.51,7.85c3.38,5.78,9.37,9.49,15.81,11.12a35.41,35.41,0,0,0,25.19-3.05C56.19,44,62.19,35.32,62.3,25.61A30.6,30.6,0,0,0,54.56,5.33,1.08,1.08,0,0,0,53,6.86a28.55,28.55,0,0,1,6.33,12.21,23.56,23.56,0,0,1-3.6,19.74A27.89,27.89,0,0,1,36.13,50.25c-6.32.77-13,.22-18.76-2.83a20.38,20.38,0,0,1-9.26-9.16c-.88-1.74-1.75-3.93-1.42-6a4.58,4.58,0,0,1,1.52-2.72,7.13,7.13,0,0,1,1.53-1c.66-.33,1.53-.44,1.86-1.2s.54-2.08.76-2.95c.54-2.18,1.09-4.36,1.52-6.43.77-3,1.31-5.89,2.19-8.73a6.41,6.41,0,0,1,1.74-2.83c2-1.64,4.58.33,6,1.74a37.07,37.07,0,0,0,3.6,3.6c.65.55,1.41.22,2.07.11a17.75,17.75,0,0,1,4.14-.22,14.62,14.62,0,0,1,5.24,1.09,1,1,0,0,0,1.3-.21,35.69,35.69,0,0,1,4.69-4.37C47,6.53,50.63,4.35,53,6.64,54,8,55.54,6.42,54.56,5.33Z"/><path class="cls-1" d="M57.21,2.68C49.8-3.58,41.35,2.41,36,8.46c-2.61,2.93,0,6.88,3.64,6.26l1.31-.21c4.09-.68,3-6,0-7.24-4.6-1.85-9.28-1.78-14.09-.87-3.81.73-3.33,6.24,0,7.23l1.09.33c3.65,1.1,6.2-3.64,3.64-6.27-4.38-4.5-10.43-10.62-17-6.1-3.3,2.25-4.23,6.07-5.17,9.71C8.12,16.16,7,21,5.8,25.92,5,29.5,9.35,32.29,12.07,29.57l.76-.76c2.46-2.46,0-7.75-3.65-6.27-10.42,4.27-10,14.38-3.77,22.53s16.94,11.77,27,11.5C53,56,70.56,38,64.91,16.88c-1.23-4.61-3.62-10.29-7.19-13.61-2.56-2.39-6.54-2.86-8.24.9-1.89,4.17,3.49,8.4,5,12,2.4,5.81,2.72,12.31-.23,18C48.43,45.34,33.93,49.34,22.44,45.5c-3.83-1.28-13.3-6.73-11.74-12.18.54-1.92,2.61-2,3.84-3.69,1.55-2.19,1.83-5.71,2.43-8.28.73-3.13,1.45-6.26,2.22-9.39.6-2.4,0-2.53,2-1.14,1.36,1,2.2,2.61,3.59,3.59,2.22,1.57,3.61,1.25,6.14,1,2.87-.24,5,.65,7.66,1.06,2.52.38,3.65-.88,5.37-2.51.77-.73,1.53-1.5,2.36-2.17,2.28-1.83,3-1.79,5.65-1.44,3.76.48,8-1.19,6.24-6.05-1.65-4.49-8.91-2.55-7.23,2l.32.84.37-2.89L51.29,5l2.24-1.72-.7.25,2.88.38c-3-1.89-5.5-2.51-8.92-1.17C43,4.22,41,7.71,37.66,9.64l2.89-.38c-3.32-.65-6.19-1.58-9.66-1.32-2.51.19-1.8.79-3.26-1.18a14,14,0,0,0-4.09-3.53c-7.88-4.45-11,4.28-12.42,10.23-.54,2.23-1,4.46-1.57,6.7-.17.72-.85,4.83-.81,4.78-.54.71-2.42,1.23-3.18,1.94a8.63,8.63,0,0,0-2.19,3.36c-2.25,6.43,3.14,13.89,7.9,17.68,12.22,9.71,31.87,8.19,43.24-2.08a28.12,28.12,0,0,0,9.37-20.41,31.13,31.13,0,0,0-2.35-11.74A32.4,32.4,0,0,0,59,8.61c-.67-1.08-2.24-2.41-2.69-3.54L56,8l-.3.29-2.89.38c.91.36,2.55,4.21,3,5.13a27.55,27.55,0,0,1,1.9,5.11,22.78,22.78,0,0,1,.26,11.42A24.62,24.62,0,0,1,45.31,45.86a31.08,31.08,0,0,1-23.07,1.89,22.5,22.5,0,0,1-9.95-6.07c-2.87-3.16-6.78-9.59-1.12-11.91L7.53,23.5l-.77.77L13,27.92c1.16-4.88,2.33-9.77,3.58-14.63.81-3.15,1.89-6.53,5.72-4.25,1.48.88,2.76,2.73,4,4l3.65-6.27L28.84,6.4v7.23A17.23,17.23,0,0,1,39,14.51V7.27l-1.31.22,3.65,6.27C43.17,11.63,48.73,5.3,51.91,8,55.57,11.08,60.9,5.8,57.21,2.68Z"/><path d="M10.5,27.36C10.4,15.14,15,9.25,15,9.25s-2,7.86-.44,14.94c0,0,1.09,4.8-3.49,6.76,0,0-1.85,1.2-4.14-1.41,0-.11,1.85-2.18,3.59-2.18"/><path class="cls-1" d="M14.25,27.36c0-5.34.6-11.76,4-16.21L11.36,8.26a41.21,41.21,0,0,0-1.08,12.12c.09,1.36.33,2.69.51,4.05.24,1.9.21.07.11.81a5.15,5.15,0,0,1-.4,1.54,2,2,0,0,1-1.34.94c.53,0,.66-.33.4-.83l.58,4.54c.46-.14.91-.29,1.36-.46,4.72-1,2.73-8.21-2-7.23a9.78,9.78,0,0,0-5.84,3.9,3.76,3.76,0,0,0,.58,4.55c4.85,4.6,11.91,2.6,13.78-4,.76-2.69,0-5.13-.25-7.82a33.52,33.52,0,0,1,.81-10.13c1.05-4.36-4.38-6.17-6.85-2.89-4.1,5.43-4.94,13.48-5,20,0,4.82,7.47,4.83,7.5,0Z"/><path d="M11.05,27.36a38.42,38.42,0,0,1,2.18-13.53,16.64,16.64,0,0,1,2.18-4.36c-.33-.11-.65-.32-1-.43a43.22,43.22,0,0,0-.87,5.23,38.81,38.81,0,0,0,.43,10,6.1,6.1,0,0,1-.76,4.15,4.82,4.82,0,0,1-2.62,2c-1.3.44-2.4-.44-3.27-1.42v.76a5.48,5.48,0,0,1,3.16-2,.55.55,0,0,0,0-1.09A6.35,6.35,0,0,0,6.58,29a.52.52,0,0,0,0,.76c1.2,1.42,2.83,2.29,4.69,1.53a6.23,6.23,0,0,0,3.6-3.82A7.53,7.53,0,0,0,15.08,24a33,33,0,0,1-.43-9.27,29.75,29.75,0,0,1,.87-5.46.55.55,0,0,0-1-.43,17.86,17.86,0,0,0-2.29,4.58,39.52,39.52,0,0,0-2.18,13.85.49.49,0,1,0,1,.11Z"/><path class="cls-1" d="M14.8,27.36c.07-5.48.74-11.33,3.85-16,1-1.56.43-4.34-1.35-5.14l-1-.43c-2.07-.92-4.93-.34-5.51,2.24a45.2,45.2,0,0,0-1.14,8.75,39.86,39.86,0,0,0,.24,5c.06.61.13,1.22.22,1.83-.81,3.09-.86,4-.14,2.72A3.79,3.79,0,0,0,3.59,29v.76A3.79,3.79,0,0,0,10,32.41c2-1.94,4.91-1.86,4.7-5.43a4.29,4.29,0,0,0-5.18-3.89C3.59,24,.06,30.88,6.22,34.26c5.42,3,11.39-1.38,12.51-6.92.73-3.59-.6-7.4-.45-11.06.13-3.25,1.73-6.53.15-9.55A3.78,3.78,0,0,0,14.2,5c-3.87,1.13-5.28,6.12-6.29,9.61C6.83,18.38,5.14,25,6.66,28.76a4,4,0,0,0,3.61,2.75l.5,0A3.77,3.77,0,0,0,14,29.68l.28-.43c2.62-4.07-3.87-7.83-6.48-3.79l-.28.44L10.77,24l-.5,0,3.62,2.75c-.87-2.17.35-6.49.86-8.64a22.56,22.56,0,0,1,3-7.41l-2.24,1.72.65-.19L12,10.52l.32.63L11.9,8.26a41.43,41.43,0,0,0-1.13,10.35c0,.87,1.36,11.29-1.54,8.49l1.1,2.65V29l-1.1,2.65a3.08,3.08,0,0,1,2.27-1.32l-2.89-.38.44.28L7.19,27v.53l1.86-3.24c-1.56,1-3,1.47-4.36,2.83l6.4,2.65V29l-6.4,2.65c3.91,3.73,9.53,3.1,12.07-1.95,1.49-3,.85-5.61.56-8.74A34.87,34.87,0,0,1,18.05,10l-5.51,2.24,1,.44L12.17,7.58c-3.81,5.73-4.78,13-4.87,19.78C7.23,32.18,14.73,32.19,14.8,27.36Z"/><path d="M37.66,12.09s-5.89,2.4-6.76,10.79c0,0,.21,6-7.2,5.46-8.4-.66-.66-8.62-.33-8.94a14.64,14.64,0,0,0,5.13-7.31A12.17,12.17,0,0,1,37.66,12.09Z"/><path class="cls-1" d="M35.76,8.85c-2.9,1.24-5.32,4.16-6.68,6.91A22.8,22.8,0,0,0,27.15,23a1.46,1.46,0,0,1-.45,1.13,3.28,3.28,0,0,1-2.08.52c.36,0-1.72-.12-1.65-.2.45-.5.61,1.48.53,1.49s1.63-2.89,2-3.26c2.79-3.06,5.34-5.42,6.64-9.56l-1.72,2.24c-.72.34.94-.24,1.35-.3a10.6,10.6,0,0,1,4.92.68c4.6,1.5,6.57-5.74,2-7.24-3.49-1.14-8.61-1.76-12,.35-1.76,1.11-1.83,3.08-2.89,4.72A16.22,16.22,0,0,1,21,16.47c-3.25,3.07-7.25,9-3.46,13.16,4.71,5.16,14.8,2.38,16.68-4.1,1.12-3.86,1-8.38,5.29-10.2C44,13.44,40.16,7,35.76,8.85Z"/><path d="M37.55,11.54a12.36,12.36,0,0,0-5.78,6,14.6,14.6,0,0,0-1.42,5.67A5.49,5.49,0,0,1,29,26.27c-1.52,1.63-4.25,1.85-6.43,1.41-.76-.22-1.75-.43-2.18-1.2a2.44,2.44,0,0,1,.11-2A12.76,12.76,0,0,1,23,20.7a19.5,19.5,0,0,1,2.19-2,13.73,13.73,0,0,0,2.5-3,18,18,0,0,0,1.09-2.07c.11-.11.44-1.2.11-.88l.11-.11a12.36,12.36,0,0,1,8.62.11c.65.22,1-.87.32-1.09a13.63,13.63,0,0,0-8.61-.32c-.76.21-1.09.32-1.31,1.2a11.53,11.53,0,0,1-2.29,4,37.57,37.57,0,0,1-2.94,2.84,13.06,13.06,0,0,0-2.73,3.7c-.65,1.42-1.2,3.17,0,4.47a4.16,4.16,0,0,0,2.73,1.2,13.07,13.07,0,0,0,4.14,0c2.94-.65,4.47-2.94,4.69-5.78a13.66,13.66,0,0,1,3.6-8.17,7.08,7.08,0,0,1,2-1.64l.65-.33c.11,0,.44-.21.22-.11C38.42,12.31,38.2,11.33,37.55,11.54Z"/><path class="cls-1" d="M35.65,8.31A16.12,16.12,0,0,0,29,14.72a18,18,0,0,0-1.85,4.58c-.36,1.46-.06,4-1.61,4.73-.26.11-1.89-.07-1.95,0l.65,1.3.6-1c1.13-.95,2.29-2.28,3.37-3.33a15.82,15.82,0,0,0,4.46-7.25,3.89,3.89,0,0,0-2.62-4.62l-.14,0,1.65,6.27c-.86.86,1.76.24,2.35.3,1.26.12,2.46.79,3.73.79a4.25,4.25,0,0,0,3.94-2.44C43.5,9.89,39.36,7.86,36,7.31S27.2,6.72,25.09,10c-1,1.57-1.32,3.26-2.66,4.69a48.25,48.25,0,0,0-4.37,4.56c-2.07,2.91-3.49,7.05-1.2,10.24S23.47,33,27,32.52a9.44,9.44,0,0,0,7.65-5.92c1.21-3.06.74-8.69,4.48-10.23,2.52-1,3.84-4.08,1.66-6.26l0,0,1,3.65c.7-2.59-.44-5.18-3.17-5.81-4.69-1.09-6.7,6.14-2,7.23l.51.12-2.62-2.62,0-.91a3.79,3.79,0,0,0,1,3.65h0l1.66-6.27A14.24,14.24,0,0,0,30,15.69a18.84,18.84,0,0,0-2,6.2c-.31,1.89-.42,3.05-2.61,3.28-.26,0-2.49.14-2.6-.2.21.62,2-2.22,1.85-2.08,1.21-1.49,2.82-2.57,4-4.06.44-.54,3.57-4.56,3-5.31C30,14.78,29.8,15.2,31,14.79a6,6,0,0,1,2.11-.26,25,25,0,0,0,2.59.2l-1-3.65-.16.53L37.18,9c.9-.24-2-.64-2-.64a15.61,15.61,0,0,0-3.74-.09c-1.76.17-3.86.53-5.17,1.83-2.16,2.17-.88,5.26,1.66,6.27l.14.06L25.46,11.8c-.78,3.59-5.73,6.28-7.68,9.79-2.29,4.14-1,8.55,3.83,9.71,4.15,1,9.11-.17,11.32-4.08,1.16-2,1-4.32,1.61-6.5a9.56,9.56,0,0,1,4.9-5.94C43.74,12.59,40,6.12,35.65,8.31Z"/><path d="M54.45,33.68a22.35,22.35,0,0,1-5.67,4.91,14.8,14.8,0,0,1-6.33,2.29,21.77,21.77,0,0,1-6-.66c-4.36-1-8.62-2.4-13.09-2.61a14.53,14.53,0,0,0-6.1.76c-2,.76-3.6,2-5.78,1.74A6.63,6.63,0,0,1,6.36,36c-.22-.55-1.09-.33-.87.22a7.48,7.48,0,0,0,3.6,4.14c3.81,2,7.08-1.2,10.79-1.74,9.27-1.31,18.54,6.1,27.48,1.85a23.4,23.4,0,0,0,7.74-6.11.46.46,0,1,0-.65-.65Z"/><path class="cls-1" d="M51.8,31c-3.34,3.89-7.54,6.73-12.87,5.88-3.8-.61-7.45-1.93-11.24-2.56a24.78,24.78,0,0,0-9.93-.05c-2.14.53-5,2.72-7.23,1.31-1.21-.76-1.38-2.43-2.88-3.18a3.82,3.82,0,0,0-5.13,1.35c-2.86,5.43,4.29,11,9.34,10.93C15.79,44.66,19,42.08,23,42.2S31.05,43.94,35,44.76c7.47,1.54,14,.2,19.81-4.85,2-1.7,4.79-4.06,4-7a4.26,4.26,0,0,0-5.39-2.82c-4.66,1.23-2.68,8.47,2,7.24l.46-.12-3.65-1,.31.32-1-3.65c-.28,1.07-3.65,3-4.69,3.55A11.32,11.32,0,0,1,41.36,38c-4.08.09-8.07-1.5-12-2.38a26.75,26.75,0,0,0-10-.74c-3.92.63-8.21,4.52-10.65-.6v3.78L9,37.56,3.87,38.91c.8.4,2,2.76,3.18,3.49a9.27,9.27,0,0,0,6,1.39c2.43-.25,4.38-1.75,6.72-2.26,3.27-.72,6.84.15,10,.91,4.72,1.12,9.62,2.81,14.52,1.91s9.55-4.21,12.81-8C60.23,32.69,55,27.36,51.8,31Z"/><path d="M38.75,12.74s6.87-8,11.88-7.08,8.73,12.43,8.73,12.43C57.94,27.25,49.43,35,40,30.41c-7.42-3.6-1.64-17.88-1.64-17.88Z"/><path class="cls-1" d="M41.4,15.4c2.19-2.5,6.91-8,10.06-4.78,1.68,1.74,2.74,4.43,3.62,6.64s.62,1.53-.61,4.17c-1.42,3-4,5.77-7.41,6.45-3.58.73-6.75-.68-7.13-4.35-.34-3.3.79-7,2-10l-5.51,2.24.43.22c4.31,2.15,8.11-4.31,3.79-6.47l-.44-.22a3.83,3.83,0,0,0-5.51,2.24c-2.33,5.88-4,14.55.47,19.82,7.43,8.65,20.89,2.93,25.46-5.53,1.82-3.37,3-6.9,1.69-10.55S59,7.46,56.12,4.63c-6.61-6.37-15.22,0-20,5.46C32.92,13.71,38.2,19,41.4,15.4Z"/><path d="M39.18,13.07c1.09-1.2,2.18-2.29,3.38-3.38C44.53,8.06,47.14,6,49.87,6c2.4,0,4.14,2.4,5.34,4.37a42.88,42.88,0,0,1,3.06,6.32c.1.44.43,1,.54,1.42s-.33,1.31-.44,1.74a12.14,12.14,0,0,1-1,2.62,15.73,15.73,0,0,1-6.54,7.3,11.94,11.94,0,0,1-10,.44,6.59,6.59,0,0,1-4-5.78,25.68,25.68,0,0,1,2-11.78c-.22.11-.55.22-.77.33a2.4,2.4,0,0,1,.55.33c.65.33,1.2-.66.54-1a2.54,2.54,0,0,1-.54-.33.55.55,0,0,0-.76.33c-1.42,3.6-2.51,8-2.08,11.88a8.07,8.07,0,0,0,3.38,6.33,12.31,12.31,0,0,0,10.14,1.2,14.31,14.31,0,0,0,8-6.33,19.89,19.89,0,0,0,2.28-4.9,5.57,5.57,0,0,0,.44-2.95,32.24,32.24,0,0,0-2.62-6.1c-1.2-2.19-2.72-4.8-5.12-6-2.84-1.42-6.11.33-8.4,2a37.5,37.5,0,0,0-5.34,4.8C38,12.85,38.75,13.62,39.18,13.07Z"/><path class="cls-1" d="M41.83,15.72c1.43-1.52,3-3.42,4.79-4.48,2.06-1.2,3-1.52,4.71,0,1.27,1.15,3,4.87,3.32,6.44a5.78,5.78,0,0,1-.82,3.53c-1.9,3.85-6.87,8.2-11.4,5.44-4-2.47-1.39-9.4-.07-13,1.26-3.45-2.84-5.37-5.51-4.23l-.76.32c-2.7,1.16-2.18,5.17,0,6.48a4.47,4.47,0,0,0,6.52-1.53,3.78,3.78,0,0,0,0-3.78c-2.28-3.66-6.5-3.12-8.46.42-2.54,4.58-3.26,12.37-1.23,17.23,4.59,11,19.79,8.53,26.06.73,2.89-3.59,5.54-8.84,4.29-13.5-1.2-4.45-4.19-10.22-8.09-12.86-5-3.39-10.46-1-14.74,2.36-3.23,2.52-8.26,6.45-4.4,10.61a3.69,3.69,0,0,0,3.65,1l.49-.16c4.56-1.51,2.61-8.76-2-7.23l-.49.16,3.65,1L41,10.19l1,3.64c.17-1.18,3.91-3.4,4.94-4C50,8,51.82,9.55,53.42,12.21c2.36,3.93,3.2,7.24.52,11.29-2.38,3.59-6.79,6.14-11.14,4.64-6-2.07-3-10.62-1.42-14.84l-1.72,2.25.76-.33H36.64l-.51-.55V10.89l-.26.47L39.11,9.5l.77.22V16.2l.76-.33-5.51-4.23c-2.58,7.06-4.39,17.71,3.8,21.79,8,4,17-.62,21-7.81,1.57-2.77,3-6.09,2.17-9.24A27.63,27.63,0,0,0,56.06,5.23c-6.52-6.8-14.62,0-19.53,5.19C33.23,13.94,38.52,19.25,41.83,15.72Z"/><path d="M33.4,51.35s-1.85.21-2-3.06-1.2-6.65-5.23-7.3S20,43.06,19.77,44.26s.77,4.25,2.29,6C22.06,50.15,28.5,51.89,33.4,51.35Z"/><path class="cls-1" d="M33.4,47.6a2.92,2.92,0,0,1,.87.2c1,.48.65,1.36.92.49s-.25-2.71-.47-3.58a9.94,9.94,0,0,0-4-5.91c-4.26-2.84-10.81-2-13.67,2.45-2.23,3.48-.41,10.76,3.55,12.43.34.15,2.56.63.65.21l.78.16c.94.21,1.9.38,2.85.53a35.14,35.14,0,0,0,8.5.52c4.78-.42,4.82-7.92,0-7.5a28.33,28.33,0,0,1-7.18-.37,21.22,21.22,0,0,0-4.16-.73l2.65,1.1c-.68-.87-.72-1.92-1.21-2.84,0-.24-.05-.12-.14.35s-.19.59.06.11a0,0,0,0,1,0-.06c.92-.14,1.43-.8,2.53-.39a2.15,2.15,0,0,1,1.42,1.62c.75,2.26.19,4.5,1.73,6.54A5.27,5.27,0,0,0,33.4,55.1C38.2,54.8,38.23,47.3,33.4,47.6Z"/><path d="M33.4,50.8c-.21,0-.11,0-.32-.11a1.93,1.93,0,0,1-.77-.87,9.43,9.43,0,0,1-.32-2.4c-.11-.76-.22-1.53-.33-2.18a6.65,6.65,0,0,0-2.29-3.6,7.28,7.28,0,0,0-4.8-1.31A6.65,6.65,0,0,0,20.65,42a4.41,4.41,0,0,0-1.42,2.51,8.3,8.3,0,0,0,1.2,4.25c.32.65.76,1.74,1.42,2.07.21.11.43.11.65.22a30,30,0,0,0,10.79,1c.77-.22.77-1.31.11-1.2A30.77,30.77,0,0,1,23.92,50l-1.31-.33a.4.4,0,0,1-.33-.11h-.11c.22.11-.11-.33-.11-.33a10.85,10.85,0,0,1-1.74-4.36C20,42.51,23,41.2,25,41.31a5.77,5.77,0,0,1,4.25,1.75,7.52,7.52,0,0,1,1.53,3.71c.21,1.41,0,3.16,1,4.36a1.84,1.84,0,0,0,1.63.76C34.06,51.78,34.06,50.69,33.4,50.8Z"/><path class="cls-1" d="M33.4,47.05c1.9,1.77,2.68,1.9,2.34.37l-.14-1a17.93,17.93,0,0,0-.33-2.18,10.82,10.82,0,0,0-2.59-4.68,10.71,10.71,0,0,0-9.11-2.84c-3.39.48-6.69,2.66-7.78,6-1,3.07.49,6.73,2.18,9.29,2,3,6.12,3.27,9.39,3.64s8.17,1,9.79-2.54c1.71-3.71-1.43-6-4.8-6a30.59,30.59,0,0,1-6.41-.5,20.54,20.54,0,0,0-3.77-.78l1.89,7,.07,0a3.81,3.81,0,0,0,1.35-5.13c-.21-.38-.47-.71-.67-1.1a4.36,4.36,0,0,1-.56-1.29c-.07-.65-.24-.61-.51.11a2.56,2.56,0,0,1,1.81-.27c2.37.68,1.66,5.69,2.78,7.58,1.56,2.63,5.15,4,7.71,1.9a4.28,4.28,0,0,0-1.64-7.42c-4.64-1.37-6.62,5.87-2,7.24l.36.11-2.61-2.62V50.66l1.72-2.24c2.21,1.22,3.14,1.16,2.79-.16l-.05-.76A18.18,18.18,0,0,0,34.24,45a10.14,10.14,0,0,0-2.33-4.56,9.76,9.76,0,0,0-8.55-2.7c-2.82.45-5.62,2.16-6.53,5-1,3.06.73,6.14,2.17,8.74l1.35-5.13-.07,0c-3.34,1.77-1.73,7,1.89,7-1.42,0,.4.22.75.3,1.19.27,2.4.46,3.61.63,1,.15,2.1.27,3.15.33.86,0,2.35-.31,3.09-.08l-2.62-2.62,0-1.2,1.72-2.24c.77-.53-.37-.08-1-.07-.83,0-1.66,0-2.48-.1a19.41,19.41,0,0,1-4.85-.9c1,.37.68.93.3-.29-.18-.58-.85-1.23-.77-1.87.13-1,1.5-1.23,2.41-1.17,3,.21,2.65,3.28,3,5.46a5.55,5.55,0,0,0,5,5C38.21,55,38.19,47.45,33.4,47.05Z"/><circle class="cls-1" cx="47.36" cy="21.69" r="7.74"/><path class="cls-1" d="M47.36,17.69c5.12.28,5.16,8,0,8s-5.12-7.71,0-8c4.8-.26,4.83-7.76,0-7.5-6.22.34-11.49,5-11.49,11.5a11.48,11.48,0,0,0,23,.42c.28-6.66-5.1-11.57-11.47-11.92C42.54,9.93,42.55,17.43,47.36,17.69Z"/><path d="M54.56,21.69a7.06,7.06,0,0,1-4.8,6.76A7.2,7.2,0,0,1,41.15,18a7.22,7.22,0,0,1,13.41,3.71c0,.65,1.09.65,1.09,0a8.3,8.3,0,0,0-5.34-7.75,8.53,8.53,0,0,0-9.38,2.51,8.43,8.43,0,0,0-.77,9.49,8.48,8.48,0,0,0,8.62,3.92,8.3,8.3,0,0,0,6.76-8.17C55.65,20.92,54.56,20.92,54.56,21.69Z"/><path class="cls-1" d="M50.81,21.69c-.28,4.62-7.33,4.26-6.91-.32.4-4.32,6-3.74,6.86,0,.49,2.13,1.05,4.06,3.58,4.46a4.25,4.25,0,0,0,4.74-2.67c1.5-3.73-1.47-8.67-4.33-10.91a12.16,12.16,0,0,0-19.24,7.44c-1.59,9.09,7.73,16.7,16.32,13.18a12.15,12.15,0,0,0,7.42-10.32c.32-5.48-6.3-6.94-8.31-1.83-1.76,4.49,5.49,6.44,7.23,2l.17-.43-2.62,2.62H54.44l-2.62-2.62c.46,1.85-2.54,3.82-4,4a4.52,4.52,0,1,1-.5-9,4.33,4.33,0,0,1,3.08,1.16,8.5,8.5,0,0,1,1.06,1.5c.56.76-.16,1.58.63.37l3.24-1.86h-.53l3.24,1.86c.64,1,.1-.09-.06-.82a11.83,11.83,0,0,0-2.8-5.28,10.8,10.8,0,0,0-7.44-3.39A11.11,11.11,0,0,0,36.4,21.37,11,11,0,0,0,46.7,32.55c6.49.41,11.23-4.65,11.61-10.86C58.6,16.86,51.1,16.88,50.81,21.69Z"/><path d="M50.41,23.65H44.2a1.33,1.33,0,0,1-1.31-1.31V21.25a1.33,1.33,0,0,1,1.31-1.31h6.21a1.33,1.33,0,0,1,1.31,1.31v1.09A1.41,1.41,0,0,1,50.41,23.65Z"/><path class="cls-1" d="M50.41,19.9H46.79a15,15,0,0,0-2.22,0H44.3q-1.78,0,2.34,2.33c.37-1.39-.34-.54-1.21.3-1.63,1.57-1.32,1.16.08,1.16H48a14.16,14.16,0,0,0,2.06,0h.27q1.77,0-2.35-2.33C47.39,23.57,49.8,20,49.42,20c-2,.34-3.12,2.81-2.62,4.62a3.83,3.83,0,0,0,4.61,2.61c2.81-.46,4.2-3.28,4.06-5.9a5.22,5.22,0,0,0-5.08-5.17,40.39,40.39,0,0,0-6.69.07C37.28,17,37.83,27,44.2,27.4c2.06.12,4.15,0,6.21,0C55.24,27.4,55.25,19.9,50.41,19.9Z"/><circle class="cls-1" cx="12.03" cy="21.9" r="7.74"/><path d="M19.23,21.9a7,7,0,0,1-4.8,6.76A7.2,7.2,0,0,1,5.82,18.2a7.35,7.35,0,0,1,7.52-3.38,7.23,7.23,0,0,1,5.89,7.08.55.55,0,0,0,1.09,0A8.29,8.29,0,0,0,15,14.16a8.34,8.34,0,0,0-10.15,12,8.48,8.48,0,0,0,8.62,3.92,8.3,8.3,0,0,0,6.76-8.18C20.32,21.14,19.23,21.14,19.23,21.9Z"/><path class="cls-2" d="M8.65,23.65H5.27A1.33,1.33,0,0,1,4,22.34V21.25a1.33,1.33,0,0,1,1.31-1.31H8.65A1.33,1.33,0,0,1,10,21.25v1.09A1.41,1.41,0,0,1,8.65,23.65Z"/><path class="cls-1" d="M53.79,6.09C49,1,39.4,11.87,39.4,11.87c-4.69-2.29-11.34-.76-11.34-.76l-3-3C17.27.2,14.87,9.15,14.87,9.15L10.4,27.25c-10.8,3.6-.55,15.92-.55,15.92C18,51.89,29,52.44,36.78,51.35a28.87,28.87,0,0,0,17.56-9.16C67.86,27.46,57.94,10.56,53.79,6.09Z"/><path d="M54.56,5.33c-4.91-5-12.65,2-15.92,5.78.43-.11.87-.11,1.31-.22C36.24,9.15,31.77,9.15,27.84,10c.33.11.77.22,1.09.33-2.18-2.19-4.47-5-7.41-6.22S16.07,4.35,14.65,7a18.92,18.92,0,0,0-1.2,3.49c-.76,3.06-1.53,6.22-2.29,9.27-.55,2.4-1.2,4.8-1.75,7.2l.77-.76C7,27.25,4.62,29.43,4.4,32.81a14.55,14.55,0,0,0,2.51,7.85c3.38,5.78,9.37,9.49,15.81,11.12a35.41,35.41,0,0,0,25.19-3.05C56.19,44,62.19,35.32,62.3,25.61A30.6,30.6,0,0,0,54.56,5.33,1.08,1.08,0,0,0,53,6.86a28.55,28.55,0,0,1,6.33,12.21,23.56,23.56,0,0,1-3.6,19.74A27.89,27.89,0,0,1,36.13,50.25c-6.32.77-13,.22-18.76-2.83a20.38,20.38,0,0,1-9.26-9.16c-.88-1.74-1.75-3.93-1.42-6a4.58,4.58,0,0,1,1.52-2.72,7.13,7.13,0,0,1,1.53-1c.66-.33,1.53-.44,1.86-1.2s.54-2.08.76-2.95c.54-2.18,1.09-4.36,1.52-6.43.77-3,1.31-5.89,2.19-8.73a6.41,6.41,0,0,1,1.74-2.83c2-1.64,4.58.33,6,1.74a37.07,37.07,0,0,0,3.6,3.6c.65.55,1.41.22,2.07.11a17.75,17.75,0,0,1,4.14-.22,14.62,14.62,0,0,1,5.24,1.09,1,1,0,0,0,1.3-.21,35.69,35.69,0,0,1,4.69-4.37C47,6.53,50.63,4.35,53,6.64,54,8,55.54,6.42,54.56,5.33Z"/><path d="M10.5,27.36C10.4,15.14,15,9.25,15,9.25s-2,7.86-.44,14.94c0,0,1.09,4.8-3.49,6.76,0,0-1.85,1.2-4.14-1.41,0-.11,1.85-2.18,3.59-2.18"/><path d="M11.05,27.36a38.42,38.42,0,0,1,2.18-13.53,16.64,16.64,0,0,1,2.18-4.36c-.33-.11-.65-.32-1-.43a43.22,43.22,0,0,0-.87,5.23,38.81,38.81,0,0,0,.43,10,6.1,6.1,0,0,1-.76,4.15,4.82,4.82,0,0,1-2.62,2c-1.3.44-2.4-.44-3.27-1.42v.76a5.48,5.48,0,0,1,3.16-2,.55.55,0,0,0,0-1.09A6.35,6.35,0,0,0,6.58,29a.52.52,0,0,0,0,.76c1.2,1.42,2.83,2.29,4.69,1.53a6.23,6.23,0,0,0,3.6-3.82A7.53,7.53,0,0,0,15.08,24a33,33,0,0,1-.43-9.27,29.75,29.75,0,0,1,.87-5.46.55.55,0,0,0-1-.43,17.86,17.86,0,0,0-2.29,4.58,39.52,39.52,0,0,0-2.18,13.85.49.49,0,1,0,1,.11Z"/><path d="M37.66,12.09s-5.89,2.4-6.76,10.79c0,0,.21,6-7.2,5.46-8.4-.66-.66-8.62-.33-8.94a14.64,14.64,0,0,0,5.13-7.31A12.17,12.17,0,0,1,37.66,12.09Z"/><path d="M37.55,11.54a12.36,12.36,0,0,0-5.78,6,14.6,14.6,0,0,0-1.42,5.67A5.49,5.49,0,0,1,29,26.27c-1.52,1.63-4.25,1.85-6.43,1.41-.76-.22-1.75-.43-2.18-1.2a2.44,2.44,0,0,1,.11-2A12.76,12.76,0,0,1,23,20.7a19.5,19.5,0,0,1,2.19-2,13.73,13.73,0,0,0,2.5-3,18,18,0,0,0,1.09-2.07c.11-.11.44-1.2.11-.88l.11-.11a12.36,12.36,0,0,1,8.62.11c.65.22,1-.87.32-1.09a13.63,13.63,0,0,0-8.61-.32c-.76.21-1.09.32-1.31,1.2a11.53,11.53,0,0,1-2.29,4,37.57,37.57,0,0,1-2.94,2.84,13.06,13.06,0,0,0-2.73,3.7c-.65,1.42-1.2,3.17,0,4.47a4.16,4.16,0,0,0,2.73,1.2,13.07,13.07,0,0,0,4.14,0c2.94-.65,4.47-2.94,4.69-5.78a13.66,13.66,0,0,1,3.6-8.17,7.08,7.08,0,0,1,2-1.64l.65-.33c.11,0,.44-.21.22-.11C38.42,12.31,38.2,11.33,37.55,11.54Z"/><path d="M54.45,33.68a22.35,22.35,0,0,1-5.67,4.91,14.8,14.8,0,0,1-6.33,2.29,21.77,21.77,0,0,1-6-.66c-4.36-1-8.62-2.4-13.09-2.61a14.53,14.53,0,0,0-6.1.76c-2,.76-3.6,2-5.78,1.74A6.63,6.63,0,0,1,6.36,36c-.22-.55-1.09-.33-.87.22a7.48,7.48,0,0,0,3.6,4.14c3.81,2,7.08-1.2,10.79-1.74,9.27-1.31,18.54,6.1,27.48,1.85a23.4,23.4,0,0,0,7.74-6.11.46.46,0,1,0-.65-.65Z"/><path d="M38.75,12.74s6.87-8,11.88-7.08,8.73,12.43,8.73,12.43C57.94,27.25,49.43,35,40,30.41c-7.42-3.6-1.64-17.88-1.64-17.88Z"/><path d="M39.18,13.07c1.09-1.2,2.18-2.29,3.38-3.38C44.53,8.06,47.14,6,49.87,6c2.4,0,4.14,2.4,5.34,4.37a42.88,42.88,0,0,1,3.06,6.32c.1.44.43,1,.54,1.42s-.33,1.31-.44,1.74a12.14,12.14,0,0,1-1,2.62,15.73,15.73,0,0,1-6.54,7.3,11.94,11.94,0,0,1-10,.44,6.59,6.59,0,0,1-4-5.78,25.68,25.68,0,0,1,2-11.78c-.22.11-.55.22-.77.33a2.4,2.4,0,0,1,.55.33c.65.33,1.2-.66.54-1a2.54,2.54,0,0,1-.54-.33.55.55,0,0,0-.76.33c-1.42,3.6-2.51,8-2.08,11.88a8.07,8.07,0,0,0,3.38,6.33,12.31,12.31,0,0,0,10.14,1.2,14.31,14.31,0,0,0,8-6.33,19.89,19.89,0,0,0,2.28-4.9,5.57,5.57,0,0,0,.44-2.95,32.24,32.24,0,0,0-2.62-6.1c-1.2-2.19-2.72-4.8-5.12-6-2.84-1.42-6.11.33-8.4,2a37.5,37.5,0,0,0-5.34,4.8C38,12.85,38.75,13.62,39.18,13.07Z"/><path d="M33.4,51.35s-1.85.21-2-3.06-1.2-6.65-5.23-7.3S20,43.06,19.77,44.26s.77,4.25,2.29,6C22.06,50.15,28.5,51.89,33.4,51.35Z"/><path d="M33.4,50.8c-.21,0-.11,0-.32-.11a1.93,1.93,0,0,1-.77-.87,9.43,9.43,0,0,1-.32-2.4c-.11-.76-.22-1.53-.33-2.18a6.65,6.65,0,0,0-2.29-3.6,7.28,7.28,0,0,0-4.8-1.31A6.65,6.65,0,0,0,20.65,42a4.41,4.41,0,0,0-1.42,2.51,8.3,8.3,0,0,0,1.2,4.25c.32.65.76,1.74,1.42,2.07.21.11.43.11.65.22a30,30,0,0,0,10.79,1c.77-.22.77-1.31.11-1.2A30.77,30.77,0,0,1,23.92,50l-1.31-.33a.4.4,0,0,1-.33-.11h-.11c.22.11-.11-.33-.11-.33a10.85,10.85,0,0,1-1.74-4.36C20,42.51,23,41.2,25,41.31a5.77,5.77,0,0,1,4.25,1.75,7.52,7.52,0,0,1,1.53,3.71c.21,1.41,0,3.16,1,4.36a1.84,1.84,0,0,0,1.63.76C34.06,51.78,34.06,50.69,33.4,50.8Z"/><circle class="cls-1" cx="47.36" cy="21.69" r="7.74"/><path d="M54.56,21.69a7.06,7.06,0,0,1-4.8,6.76A7.2,7.2,0,0,1,41.15,18a7.22,7.22,0,0,1,13.41,3.71c0,.65,1.09.65,1.09,0a8.3,8.3,0,0,0-5.34-7.75,8.53,8.53,0,0,0-9.38,2.51,8.43,8.43,0,0,0-.77,9.49,8.48,8.48,0,0,0,8.62,3.92,8.3,8.3,0,0,0,6.76-8.17C55.65,20.92,54.56,20.92,54.56,21.69Z"/><path class="cls-2" d="M50.41,23.65H44.2a1.33,1.33,0,0,1-1.31-1.31V21.25a1.33,1.33,0,0,1,1.31-1.31h6.21a1.33,1.33,0,0,1,1.31,1.31v1.09A1.41,1.41,0,0,1,50.41,23.65Z"/><path d="M81,20.17v6.7h8.62a6.53,6.53,0,0,1,.19,1.91,6.6,6.6,0,0,1-.19,1.92H81V41.41a7.52,7.52,0,0,1-2.29.2,7.56,7.56,0,0,1-2.3-.2V16.15l.19-.19H91.75a5.89,5.89,0,0,1,.19,1.91c0,1.53-1,2.11-2.68,2.11H84.1A21.35,21.35,0,0,1,81,20.17Z"/><path d="M94.24,35.48V27.25a5.82,5.82,0,0,0-.76-3.45,3.59,3.59,0,0,1,2.68-.95,2.39,2.39,0,0,1,2.1.76,3.11,3.11,0,0,1,.58,2.11v8.8A7.53,7.53,0,0,0,99.22,37a1.54,1.54,0,0,0,1.53.77,5,5,0,0,0,3.83-1.92V23a14,14,0,0,1,4.59,0V36.25a4.66,4.66,0,0,0,1,3.25,3.84,3.84,0,0,1-1.53,2.3A4.44,4.44,0,0,1,105,39.12,8.86,8.86,0,0,1,99,41.8a4.56,4.56,0,0,1-3.83-1.73A10.14,10.14,0,0,1,94.24,35.48Z"/><path d="M124.29,30.5v-.38a7.3,7.3,0,0,0-.57-3.06,2.31,2.31,0,0,0-2.3-1.15c-2.1,0-3.25,2.11-3.25,6.13s1.34,6.12,3.83,6.12a8,8,0,0,0,4.4-1.72,3.2,3.2,0,0,1,1.15,1.15,5.6,5.6,0,0,1,.76,1.53,9.29,9.29,0,0,1-6.7,2.87,7.3,7.3,0,0,1-5.93-2.68c-1.34-1.72-1.91-4.21-1.91-7.27A10.2,10.2,0,0,1,116.06,25a7.18,7.18,0,0,1,5.55-2.49,7.65,7.65,0,0,1,5.17,1.73,5.18,5.18,0,0,1,1.92,4.21c0,1.72-.77,2.49-2.3,2.49C125.63,30.7,125.06,30.7,124.29,30.5Z"/><path d="M147.46,29V37.2a5.82,5.82,0,0,0,.76,3.45,4.59,4.59,0,0,1-2.68,1,2.38,2.38,0,0,1-2.1-.77,3,3,0,0,1-.58-2.11v-8.8a7.58,7.58,0,0,0-.38-2.49c-.19-.57-.77-.76-1.53-.76a5.64,5.64,0,0,0-4,1.91V41.22a14,14,0,0,1-4.6,0V14l.19-.19h1.73a2.55,2.55,0,0,1,1.91.57,3.36,3.36,0,0,1,.58,2.3v8a7.89,7.89,0,0,1,5.36-2.3,4.71,4.71,0,0,1,4,1.73A9.42,9.42,0,0,1,147.46,29Z"/><path d="M150.9,40.07a5.67,5.67,0,0,1,.38-1.72,4.34,4.34,0,0,1,1-1.53,9.84,9.84,0,0,0,5.17,1.53,3.42,3.42,0,0,0,2.1-.57,1.45,1.45,0,0,0,.77-1.34c0-1-.77-1.72-2.11-2.3l-2.1-.76c-3.06-1.15-4.59-2.88-4.59-5.36a5.17,5.17,0,0,1,1.91-4.22,7.1,7.1,0,0,1,5-1.53,15.38,15.38,0,0,1,6.31,1.53,3.83,3.83,0,0,1-.38,1.92,4.07,4.07,0,0,1-1,1.53,13.73,13.73,0,0,0-5-1.34,2.37,2.37,0,0,0-1.73.57,1.76,1.76,0,0,0-.57,1.34c0,.77.57,1.34,1.91,1.92l2.3.76c3.25,1.15,4.79,3.07,4.79,5.75a4.94,4.94,0,0,1-1.92,4.21A9.59,9.59,0,0,1,157.6,42,12.33,12.33,0,0,1,150.9,40.07Z"/><path d="M185.74,37.39h7.08a4.32,4.32,0,0,1-.19,1.73c-.19,1.53-1.34,2.29-3.06,2.29h-9.19a2.24,2.24,0,0,1-1.92-.76,2.64,2.64,0,0,1-.76-2.11V16l.19-.2h1.72a2.4,2.4,0,0,1,2.11.77,3.35,3.35,0,0,1,.57,2.3V37.59C183.44,37.59,184.59,37.39,185.74,37.39Z"/><path d="M211.58,32.23a10.62,10.62,0,0,1-2.68,7.65,8.35,8.35,0,0,1-11.1,0c-1.73-1.72-2.68-4.21-2.68-7.65,0-3.26.95-5.94,2.68-7.66a8.35,8.35,0,0,1,11.1,0A10.63,10.63,0,0,1,211.58,32.23Zm-14-12.06a3.22,3.22,0,0,1,0-3.07,3.86,3.86,0,0,1,2.1-.57,4.4,4.4,0,0,1,2.11.57,5.67,5.67,0,0,1,.38,1.73,3.63,3.63,0,0,1-.38,1.53,3.9,3.9,0,0,1-2.11.57C199,20.55,198.18,20.55,197.61,20.17Zm5.74,5.74q-3.45,0-3.45,6.32t3.45,6.31c2.3,0,3.44-2.1,3.44-6.31S205.65,25.91,203.35,25.91Zm1.53-5.74a6,6,0,0,1-.38-1.53,3.67,3.67,0,0,1,.38-1.54,4.17,4.17,0,0,1,4.21,0,3.89,3.89,0,0,1,.38,1.73,3.63,3.63,0,0,1-.38,1.53,3.86,3.86,0,0,1-2.1.57A12.52,12.52,0,0,1,204.88,20.17Z"/><path d="M217.32,39.31l-3.83-16.08a6.69,6.69,0,0,1,2.49-.57,2.47,2.47,0,0,1,1.53.38,3.5,3.5,0,0,1,.77,1.53l1.53,7.08A52.87,52.87,0,0,1,221,37.59a.41.41,0,0,0,.38.38L224,23a19,19,0,0,1,5.36,0l2.68,14.55a.41.41,0,0,0,.38.38c.58-3.45,1.15-5.55,1.15-6.32L235.51,23a7.19,7.19,0,0,1,2.1-.19,6,6,0,0,1,2.11.38l.19.19-4.4,18a13.13,13.13,0,0,1-3.07.2,5.84,5.84,0,0,1-2.48-.39,3.48,3.48,0,0,1-1-1.91l-1-4.79q-.57-3.72-1.15-7.46h-.19a69.57,69.57,0,0,1-1.34,7.46L224,41.41a13.86,13.86,0,0,1-3.06.2,6.64,6.64,0,0,1-2.49-.39A3,3,0,0,1,217.32,39.31Z"/><path d="M257,33.76H246.61a5.62,5.62,0,0,0,1,3.44,3.5,3.5,0,0,0,3.06,1.15A9.53,9.53,0,0,0,255.41,37a4.49,4.49,0,0,1,1.34,2.87A12.36,12.36,0,0,1,249.67,42c-2.87,0-4.78-1-5.93-2.68a12.89,12.89,0,0,1-1.92-7.08,11.92,11.92,0,0,1,1.92-7.09,6.44,6.44,0,0,1,5.74-2.68,7.22,7.22,0,0,1,5.74,2.3,8.35,8.35,0,0,1,1.92,5.74A9.44,9.44,0,0,1,257,33.76Zm-7.09-7.85c-2.1,0-3.06,1.53-3.25,4.59h6.51v-.38a5.15,5.15,0,0,0-.77-3.06A3.07,3.07,0,0,0,249.86,25.91Z"/></g></g></svg>