<svg xmlns="http://www.w3.org/2000/svg" viewBox="0 0 1911.71 909.97"><title>frecuencia</title><g id="Capa_2" data-name="Capa 2"><g id="Capa_1-2" data-name="Capa 1"><path d="M764.68,11.47V22.94h22.94V0H764.68Z"/><path d="M764.68,42.06V53.53h22.94V30.59H764.68Z"/><path d="M734.1,72.64V84.12H757v-23H734.1Z"/><path d="M764.68,72.64V84.12h22.94v-23H764.68Z"/><path d="M734.1,103.23V114.7H757V91.76H734.1Z"/><path d="M764.68,103.23V114.7h22.94V91.76H764.68Z"/><path d="M61.17,133.82v11.47h23V122.35h-23Z"/><path d="M734.1,133.82v11.47H757V122.35H734.1Z"/><path d="M764.68,133.82v11.47h22.94V122.35H764.68Z"/><path d="M795.27,133.82v11.47h22.94V122.35H795.27Z"/><path d="M61.17,164.41v11.47h23V152.94h-23Z"/><path d="M703.51,164.41v11.47h22.94V152.94H703.51Z"/><path d="M734.1,164.41v11.47H757V152.94H734.1Z"/><path d="M764.68,164.41v11.47h22.94V152.94H764.68Z"/><path d="M795.27,164.41v11.47h22.94V152.94H795.27Z"/><path d="M61.17,195v11.47h23V183.52h-23Z"/><path d="M703.51,195v11.47h22.94V183.52H703.51Z"/><path d="M734.1,195v11.47H757V183.52H734.1Z"/><path d="M764.68,195v11.47h22.94V183.52H764.68Z"/><path d="M795.27,195v11.47h22.94V183.52H795.27Z"/><path d="M1468.19,195v11.47h22.94V183.52h-22.94Z"/><path d="M61.17,225.58v11.47h23V214.11h-23Z"/><path d="M703.51,225.58v11.47h22.94V214.11H703.51Z"/><path d="M734.1,225.58v11.47H757V214.11H734.1Z"/><path d="M764.68,225.58v11.47h22.94V214.11H764.68Z"/><path d="M795.27,225.58v11.47h22.94V214.11H795.27Z"/><path d="M1468.19,225.58v11.47h22.94V214.11h-22.94Z"/><path d="M61.17,256.17v11.47h23V244.7h-23Z"/><path d="M91.76,256.17v11.47H114.7V244.7H91.76Z"/><path d="M489.4,256.17v11.47h22.94V244.7H489.4Z"/><path d="M703.51,256.17v11.47h22.94V244.7H703.51Z"/><path d="M734.1,256.17v11.47H757V244.7H734.1Z"/><path d="M764.68,256.17v11.47h22.94V244.7H764.68Z"/><path d="M795.27,256.17v11.47h22.94V244.7H795.27Z"/><path d="M825.86,256.17v11.47H848.8V244.7H825.86Z"/><path d="M1040,256.17v11.47h22.94V244.7H1040Z"/><path d="M1468.19,256.17v11.47h22.94V244.7h-22.94Z"/><path d="M1651.72,256.17v11.47h22.94V244.7h-22.94Z"/><path d="M61.17,286.76v11.47h23V275.29h-23Z"/><path d="M91.76,286.76v11.47H114.7V275.29H91.76Z"/><path d="M122.35,286.76v11.47h22.94V275.29H122.35Z"/><path d="M336.46,286.76v11.47H359.4V275.29H336.46Z"/><path d="M489.4,286.76v11.47h22.94V275.29H489.4Z"/><path d="M672.92,286.76v11.47h22.94V275.29H672.92Z"/><path d="M703.51,286.76v11.47h22.94V275.29H703.51Z"/><path d="M734.1,286.76v11.47H757V275.29H734.1Z"/><path d="M764.68,286.76v11.47h22.94V275.29H764.68Z"/><path d="M795.27,286.76v11.47h22.94V275.29H795.27Z"/><path d="M825.86,286.76v11.47H848.8V275.29H825.86Z"/><path d="M856.45,286.76v11.47h22.94V275.29H856.45Z"/><path d="M1009.38,286.76v11.47h22.94V275.29h-22.94Z"/><path d="M1040,286.76v11.47h22.94V275.29H1040Z"/><path d="M1070.56,286.76v11.47h22.94V275.29h-22.94Z"/><path d="M1437.6,286.76v11.47h22.94V275.29H1437.6Z"/><path d="M1468.19,286.76v11.47h22.94V275.29h-22.94Z"/><path d="M1498.78,286.76v11.47h22.94V275.29h-22.94Z"/><path d="M1651.72,286.76v11.47h22.94V275.29h-22.94Z"/><path d="M30.59,317.34v11.47H53.53V305.87H30.59Z"/><path d="M61.17,317.34v11.47h23V305.87h-23Z"/><path d="M91.76,317.34v11.47H114.7V305.87H91.76Z"/><path d="M122.35,317.34v11.47h22.94V305.87H122.35Z"/><path d="M336.46,317.34v11.47H359.4V305.87H336.46Z"/><path d="M458.81,317.34v11.47h22.94V305.87H458.81Z"/><path d="M489.4,317.34v11.47h22.94V305.87H489.4Z"/><path d="M672.92,317.34v11.47h22.94V305.87H672.92Z"/><path d="M703.51,317.34v11.47h22.94V305.87H703.51Z"/><path d="M734.1,317.34v11.47H757V305.87H734.1Z"/><path d="M764.68,317.34v11.47h22.94V305.87H764.68Z"/><path d="M795.27,317.34v11.47h22.94V305.87H795.27Z"/><path d="M825.86,317.34v11.47H848.8V305.87H825.86Z"/><path d="M856.45,317.34v11.47h22.94V305.87H856.45Z"/><path d="M887,317.34v11.47H910V305.87H887Z"/><path d="M948.21,317.34v11.47h22.94V305.87H948.21Z"/><path d="M1009.38,317.34v11.47h22.94V305.87h-22.94Z"/><path d="M1040,317.34v11.47h22.94V305.87H1040Z"/><path d="M1070.56,317.34v11.47h22.94V305.87h-22.94Z"/><path d="M1101.14,317.34v11.47h22.94V305.87h-22.94Z"/><path d="M1345.84,317.34v11.47h22.94V305.87h-22.94Z"/><path d="M1437.6,317.34v11.47h22.94V305.87H1437.6Z"/><path d="M1468.19,317.34v11.47h22.94V305.87h-22.94Z"/><path d="M1498.78,317.34v11.47h22.94V305.87h-22.94Z"/><path d="M1529.37,317.34v11.47h22.94V305.87h-22.94Z"/><path d="M1621.13,317.34v11.47h22.94V305.87h-22.94Z"/><path d="M1651.72,317.34v11.47h22.94V305.87h-22.94Z"/><path d="M30.59,347.93V359.4H53.53V336.46H30.59Z"/><path d="M61.17,347.93V359.4h23V336.46h-23Z"/><path d="M91.76,347.93V359.4H114.7V336.46H91.76Z"/><path d="M122.35,347.93V359.4h22.94V336.46H122.35Z"/><path d="M152.94,347.93V359.4h22.94V336.46H152.94Z"/><path d="M305.87,347.93V359.4h22.94V336.46H305.87Z"/><path d="M336.46,347.93V359.4H359.4V336.46H336.46Z"/><path d="M367.05,347.93V359.4H390V336.46H367.05Z"/><path d="M458.81,347.93V359.4h22.94V336.46H458.81Z"/><path d="M489.4,347.93V359.4h22.94V336.46H489.4Z"/><path d="M642.33,347.93V359.4h22.94V336.46H642.33Z"/><path d="M672.92,347.93V359.4h22.94V336.46H672.92Z"/><path d="M703.51,347.93V359.4h22.94V336.46H703.51Z"/><path d="M734.1,347.93V359.4H757V336.46H734.1Z"/><path d="M764.68,347.93V359.4h22.94V336.46H764.68Z"/><path d="M795.27,347.93V359.4h22.94V336.46H795.27Z"/><path d="M825.86,347.93V359.4H848.8V336.46H825.86Z"/><path d="M856.45,347.93V359.4h22.94V336.46H856.45Z"/><path d="M887,347.93V359.4H910V336.46H887Z"/><path d="M917.62,347.93V359.4h22.94V336.46H917.62Z"/><path d="M948.21,347.93V359.4h22.94V336.46H948.21Z"/><path d="M978.79,347.93V359.4h22.94V336.46H978.79Z"/><path d="M1009.38,347.93V359.4h22.94V336.46h-22.94Z"/><path d="M1040,347.93V359.4h22.94V336.46H1040Z"/><path d="M1070.56,347.93V359.4h22.94V336.46h-22.94Z"/><path d="M1101.14,347.93V359.4h22.94V336.46h-22.94Z"/><path d="M1131.73,347.93V359.4h22.94V336.46h-22.94Z"/><path d="M1315.26,347.93V359.4h22.94V336.46h-22.94Z"/><path d="M1345.84,347.93V359.4h22.94V336.46h-22.94Z"/><path d="M1407,347.93V359.4H1430V336.46H1407Z"/><path d="M1437.6,347.93V359.4h22.94V336.46H1437.6Z"/><path d="M1468.19,347.93V359.4h22.94V336.46h-22.94Z"/><path d="M1498.78,347.93V359.4h22.94V336.46h-22.94Z"/><path d="M1529.37,347.93V359.4h22.94V336.46h-22.94Z"/><path d="M1560,347.93V359.4h22.94V336.46H1560Z"/><path d="M1621.13,347.93V359.4h22.94V336.46h-22.94Z"/><path d="M1651.72,347.93V359.4h22.94V336.46h-22.94Z"/><path d="M1682.3,347.93V359.4h22.94V336.46H1682.3Z"/><path d="M1774.06,347.93V359.4h23V336.46h-23Z"/><path d="M0,378.52V390H22.94V367.05H0Z"/><path d="M30.59,378.52V390H53.53V367.05H30.59Z"/><path d="M61.17,378.52V390h23V367.05h-23Z"/><path d="M91.76,378.52V390H114.7V367.05H91.76Z"/><path d="M122.35,378.52V390h22.94V367.05H122.35Z"/><path d="M152.94,378.52V390h22.94V367.05H152.94Z"/><path d="M183.52,378.52V390h22.94V367.05H183.52Z"/><path d="M305.87,378.52V390h22.94V367.05H305.87Z"/><path d="M336.46,378.52V390H359.4V367.05H336.46Z"/><path d="M367.05,378.52V390H390V367.05H367.05Z"/><path d="M397.64,378.52V390h22.94V367.05H397.64Z"/><path d="M428.22,378.52V390h22.94V367.05H428.22Z"/><path d="M458.81,378.52V390h22.94V367.05H458.81Z"/><path d="M489.4,378.52V390h22.94V367.05H489.4Z"/><path d="M520,378.52V390h22.95V367.05H520Z"/><path d="M642.33,378.52V390h22.94V367.05H642.33Z"/><path d="M672.92,378.52V390h22.94V367.05H672.92Z"/><path d="M703.51,378.52V390h22.94V367.05H703.51Z"/><path d="M734.1,378.52V390H757V367.05H734.1Z"/><path d="M764.68,378.52V390h22.94V367.05H764.68Z"/><path d="M795.27,378.52V390h22.94V367.05H795.27Z"/><path d="M825.86,378.52V390H848.8V367.05H825.86Z"/><path d="M856.45,378.52V390h22.94V367.05H856.45Z"/><path d="M887,378.52V390H910V367.05H887Z"/><path d="M917.62,378.52V390h22.94V367.05H917.62Z"/><path d="M948.21,378.52V390h22.94V367.05H948.21Z"/><path d="M978.79,378.52V390h22.94V367.05H978.79Z"/><path d="M1009.38,378.52V390h22.94V367.05h-22.94Z"/><path d="M1040,378.52V390h22.94V367.05H1040Z"/><path d="M1070.56,378.52V390h22.94V367.05h-22.94Z"/><path d="M1101.14,378.52V390h22.94V367.05h-22.94Z"/><path d="M1131.73,378.52V390h22.94V367.05h-22.94Z"/><path d="M1162.32,378.52V390h22.94V367.05h-22.94Z"/><path d="M1192.91,378.52V390h22.94V367.05h-22.94Z"/><path d="M1315.26,378.52V390h22.94V367.05h-22.94Z"/><path d="M1345.84,378.52V390h22.94V367.05h-22.94Z"/><path d="M1376.43,378.52V390h22.94V367.05h-22.94Z"/><path d="M1407,378.52V390H1430V367.05H1407Z"/><path d="M1437.6,378.52V390h22.94V367.05H1437.6Z"/><path d="M1468.19,378.52V390h22.94V367.05h-22.94Z"/><path d="M1498.78,378.52V390h22.94V367.05h-22.94Z"/><path d="M1529.37,378.52V390h22.94V367.05h-22.94Z"/><path d="M1560,378.52V390h22.94V367.05H1560Z"/><path d="M1590.54,378.52V390h22.94V367.05h-22.94Z"/><path d="M1621.13,378.52V390h22.94V367.05h-22.94Z"/><path d="M1651.72,378.52V390h22.94V367.05h-22.94Z"/><path d="M1682.3,378.52V390h22.94V367.05H1682.3Z"/><path d="M1712.89,378.52V390h22.94V367.05h-22.94Z"/><path d="M1774.06,378.52V390h23V367.05h-23Z"/><path d="M1804.65,378.52V390h22.94V367.05h-22.94Z"/><path d="M0,409.11v11.47H22.94V397.64H0Z"/><path d="M30.59,409.11v11.47H53.53V397.64H30.59Z"/><path d="M61.17,409.11v11.47h23V397.64h-23Z"/><path d="M91.76,409.11v11.47H114.7V397.64H91.76Z"/><path d="M122.35,409.11v11.47h22.94V397.64H122.35Z"/><path d="M152.94,409.11v11.47h22.94V397.64H152.94Z"/><path d="M183.52,409.11v11.47h22.94V397.64H183.52Z"/><path d="M214.11,409.11v11.47h22.94V397.64H214.11Z"/><path d="M244.7,409.11v11.47h22.94V397.64H244.7Z"/><path d="M275.29,409.11v11.47h22.94V397.64H275.29Z"/><path d="M305.87,409.11v11.47h22.94V397.64H305.87Z"/><path d="M336.46,409.11v11.47H359.4V397.64H336.46Z"/><path d="M367.05,409.11v11.47H390V397.64H367.05Z"/><path d="M397.64,409.11v11.47h22.94V397.64H397.64Z"/><path d="M428.22,409.11v11.47h22.94V397.64H428.22Z"/><path d="M458.81,409.11v11.47h22.94V397.64H458.81Z"/><path d="M489.4,409.11v11.47h22.94V397.64H489.4Z"/><path d="M520,409.11v11.47h22.95V397.64H520Z"/><path d="M550.57,409.11v11.47h22.94V397.64H550.57Z"/><path d="M581.16,409.11v11.47H604.1V397.64H581.16Z"/><path d="M611.75,409.11v11.47h22.94V397.64H611.75Z"/><path d="M642.33,409.11v11.47h22.94V397.64H642.33Z"/><path d="M672.92,409.11v11.47h22.94V397.64H672.92Z"/><path d="M703.51,409.11v11.47h22.94V397.64H703.51Z"/><path d="M734.1,409.11v11.47H757V397.64H734.1Z"/><path d="M764.68,409.11v11.47h22.94V397.64H764.68Z"/><path d="M795.27,409.11v11.47h22.94V397.64H795.27Z"/><path d="M825.86,409.11v11.47H848.8V397.64H825.86Z"/><path d="M856.45,409.11v11.47h22.94V397.64H856.45Z"/><path d="M887,409.11v11.47H910V397.64H887Z"/><path d="M917.62,409.11v11.47h22.94V397.64H917.62Z"/><path d="M948.21,409.11v11.47h22.94V397.64H948.21Z"/><path d="M978.79,409.11v11.47h22.94V397.64H978.79Z"/><path d="M1009.38,409.11v11.47h22.94V397.64h-22.94Z"/><path d="M1040,409.11v11.47h22.94V397.64H1040Z"/><path d="M1070.56,409.11v11.47h22.94V397.64h-22.94Z"/><path d="M1101.14,409.11v11.47h22.94V397.64h-22.94Z"/><path d="M1131.73,409.11v11.47h22.94V397.64h-22.94Z"/><path d="M1162.32,409.11v11.47h22.94V397.64h-22.94Z"/><path d="M1192.91,409.11v11.47h22.94V397.64h-22.94Z"/><path d="M1223.49,409.11v11.47h22.94V397.64h-22.94Z"/><path d="M1254.08,409.11v11.47H1277V397.64h-22.94Z"/><path d="M1284.67,409.11v11.47h22.94V397.64h-22.94Z"/><path d="M1315.26,409.11v11.47h22.94V397.64h-22.94Z"/><path d="M1345.84,409.11v11.47h22.94V397.64h-22.94Z"/><path d="M1376.43,409.11v11.47h22.94V397.64h-22.94Z"/><path d="M1407,409.11v11.47H1430V397.64H1407Z"/><path d="M1437.6,409.11v11.47h22.94V397.64H1437.6Z"/><path d="M1468.19,409.11v11.47h22.94V397.64h-22.94Z"/><path d="M1498.78,409.11v11.47h22.94V397.64h-22.94Z"/><path d="M1529.37,409.11v11.47h22.94V397.64h-22.94Z"/><path d="M1560,409.11v11.47h22.94V397.64H1560Z"/><path d="M1590.54,409.11v11.47h22.94V397.64h-22.94Z"/><path d="M1621.13,409.11v11.47h22.94V397.64h-22.94Z"/><path d="M1651.72,409.11v11.47h22.94V397.64h-22.94Z"/><path d="M1682.3,409.11v11.47h22.94V397.64H1682.3Z"/><path d="M1712.89,409.11v11.47h22.94V397.64h-22.94Z"/><path d="M1743.48,409.11v11.47h22.94V397.64h-22.94Z"/><path d="M1774.06,409.11v11.47h23V397.64h-23Z"/><path d="M1804.65,409.11v11.47h22.94V397.64h-22.94Z"/><path d="M1835.24,409.11v11.47h22.94V397.64h-22.94Z"/><path d="M1865.83,409.11v11.47h22.94V397.64h-22.94Z"/><path d="M1896.41,409.11v11.47h15.3V397.64h-15.3Z"/><path d="M0,439.69v11.47H22.94V428.22H0Z"/><path d="M30.59,439.69v11.47H53.53V428.22H30.59Z"/><path d="M61.17,439.69v11.47h23V428.22h-23Z"/><path d="M91.76,439.69v11.47H114.7V428.22H91.76Z"/><path d="M122.35,439.69v11.47h22.94V428.22H122.35Z"/><path d="M152.94,439.69v11.47h22.94V428.22H152.94Z"/><path d="M183.52,439.69v11.47h22.94V428.22H183.52Z"/><path d="M214.11,439.69v11.47h22.94V428.22H214.11Z"/><path d="M244.7,439.69v11.47h22.94V428.22H244.7Z"/><path d="M275.29,439.69v11.47h22.94V428.22H275.29Z"/><path d="M305.87,439.69v11.47h22.94V428.22H305.87Z"/><path d="M336.46,439.69v11.47H359.4V428.22H336.46Z"/><path d="M367.05,439.69v11.47H390V428.22H367.05Z"/><path d="M397.64,439.69v11.47h22.94V428.22H397.64Z"/><path d="M428.22,439.69v11.47h22.94V428.22H428.22Z"/><path d="M458.81,439.69v11.47h22.94V428.22H458.81Z"/><path d="M489.4,439.69v11.47h22.94V428.22H489.4Z"/><path d="M520,439.69v11.47h22.95V428.22H520Z"/><path d="M550.57,439.69v11.47h22.94V428.22H550.57Z"/><path d="M581.16,439.69v11.47H604.1V428.22H581.16Z"/><path d="M611.75,439.69v11.47h22.94V428.22H611.75Z"/><path d="M642.33,439.69v11.47h22.94V428.22H642.33Z"/><path d="M672.92,439.69v11.47h22.94V428.22H672.92Z"/><path d="M703.51,439.69v11.47h22.94V428.22H703.51Z"/><path d="M734.1,439.69v11.47H757V428.22H734.1Z"/><path d="M764.68,439.69v11.47h22.94V428.22H764.68Z"/><path d="M795.27,439.69v11.47h22.94V428.22H795.27Z"/><path d="M825.86,439.69v11.47H848.8V428.22H825.86Z"/><path d="M856.45,439.69v11.47h22.94V428.22H856.45Z"/><path d="M887,439.69v11.47H910V428.22H887Z"/><path d="M917.62,439.69v11.47h22.94V428.22H917.62Z"/><path d="M948.21,439.69v11.47h22.94V428.22H948.21Z"/><path d="M978.79,439.69v11.47h22.94V428.22H978.79Z"/><path d="M1009.38,439.69v11.47h22.94V428.22h-22.94Z"/><path d="M1040,439.69v11.47h22.94V428.22H1040Z"/><path d="M1070.56,439.69v11.47h22.94V428.22h-22.94Z"/><path d="M1101.14,439.69v11.47h22.94V428.22h-22.94Z"/><path d="M1131.73,439.69v11.47h22.94V428.22h-22.94Z"/><path d="M1162.32,439.69v11.47h22.94V428.22h-22.94Z"/><path d="M1192.91,439.69v11.47h22.94V428.22h-22.94Z"/><path d="M1315.26,439.69v11.47h22.94V428.22h-22.94Z"/><path d="M1345.84,439.69v11.47h22.94V428.22h-22.94Z"/><path d="M1376.43,439.69v11.47h22.94V428.22h-22.94Z"/><path d="M1407,439.69v11.47H1430V428.22H1407Z"/><path d="M1437.6,439.69v11.47h22.94V428.22H1437.6Z"/><path d="M1468.19,439.69v11.47h22.94V428.22h-22.94Z"/><path d="M1498.78,439.69v11.47h22.94V428.22h-22.94Z"/><path d="M1529.37,439.69v11.47h22.94V428.22h-22.94Z"/><path d="M1560,439.69v11.47h22.94V428.22H1560Z"/><path d="M1590.54,439.69v11.47h22.94V428.22h-22.94Z"/><path d="M1621.13,439.69v11.47h22.94V428.22h-22.94Z"/><path d="M1651.72,439.69v11.47h22.94V428.22h-22.94Z"/><path d="M1682.3,439.69v11.47h22.94V428.22H1682.3Z"/><path d="M1712.89,439.69v11.47h22.94V428.22h-22.94Z"/><path d="M1743.48,439.69v11.47h22.94V428.22h-22.94Z"/><path d="M1774.06,439.69v11.47h23V428.22h-23Z"/><path d="M1804.65,439.69v11.47h22.94V428.22h-22.94Z"/><path d="M1835.24,439.69v11.47h22.94V428.22h-22.94Z"/><path d="M1865.83,439.69v11.47h22.94V428.22h-22.94Z"/><path d="M1896.41,439.69v11.47h15.3V428.22h-15.3Z"/><path d="M0,470.28v11.47H22.94V458.81H0Z"/><path d="M30.59,470.28v11.47H53.53V458.81H30.59Z"/><path d="M61.17,470.28v11.47h23V458.81h-23Z"/><path d="M91.76,470.28v11.47H114.7V458.81H91.76Z"/><path d="M122.35,470.28v11.47h22.94V458.81H122.35Z"/><path d="M152.94,470.28v11.47h22.94V458.81H152.94Z"/><path d="M183.52,470.28v11.47h22.94V458.81H183.52Z"/><path d="M214.11,470.28v11.47h22.94V458.81H214.11Z"/><path d="M244.7,470.28v11.47h22.94V458.81H244.7Z"/><path d="M275.29,470.28v11.47h22.94V458.81H275.29Z"/><path d="M305.87,470.28v11.47h22.94V458.81H305.87Z"/><path d="M336.46,470.28v11.47H359.4V458.81H336.46Z"/><path d="M367.05,470.28v11.47H390V458.81H367.05Z"/><path d="M397.64,470.28v11.47h22.94V458.81H397.64Z"/><path d="M428.22,470.28v11.47h22.94V458.81H428.22Z"/><path d="M458.81,470.28v11.47h22.94V458.81H458.81Z"/><path d="M489.4,470.28v11.47h22.94V458.81H489.4Z"/><path d="M520,470.28v11.47h22.95V458.81H520Z"/><path d="M550.57,470.28v11.47h22.94V458.81H550.57Z"/><path d="M581.16,470.28v11.47H604.1V458.81H581.16Z"/><path d="M611.75,470.28v11.47h22.94V458.81H611.75Z"/><path d="M642.33,470.28v11.47h22.94V458.81H642.33Z"/><path d="M672.92,470.28v11.47h22.94V458.81H672.92Z"/><path d="M703.51,470.28v11.47h22.94V458.81H703.51Z"/><path d="M734.1,470.28v11.47H757V458.81H734.1Z"/><path d="M764.68,470.28v11.47h22.94V458.81H764.68Z"/><path d="M795.27,470.28v11.47h22.94V458.81H795.27Z"/><path d="M825.86,470.28v11.47H848.8V458.81H825.86Z"/><path d="M856.45,470.28v11.47h22.94V458.81H856.45Z"/><path d="M887,470.28v11.47H910V458.81H887Z"/><path d="M917.62,470.28v11.47h22.94V458.81H917.62Z"/><path d="M948.21,470.28v11.47h22.94V458.81H948.21Z"/><path d="M978.79,470.28v11.47h22.94V458.81H978.79Z"/><path d="M1009.38,470.28v11.47h22.94V458.81h-22.94Z"/><path d="M1040,470.28v11.47h22.94V458.81H1040Z"/><path d="M1070.56,470.28v11.47h22.94V458.81h-22.94Z"/><path d="M1101.14,470.28v11.47h22.94V458.81h-22.94Z"/><path d="M1131.73,470.28v11.47h22.94V458.81h-22.94Z"/><path d="M1315.26,470.28v11.47h22.94V458.81h-22.94Z"/><path d="M1345.84,470.28v11.47h22.94V458.81h-22.94Z"/><path d="M1407,470.28v11.47H1430V458.81H1407Z"/><path d="M1437.6,470.28v11.47h22.94V458.81H1437.6Z"/><path d="M1468.19,470.28v11.47h22.94V458.81h-22.94Z"/><path d="M1498.78,470.28v11.47h22.94V458.81h-22.94Z"/><path d="M1529.37,470.28v11.47h22.94V458.81h-22.94Z"/><path d="M1560,470.28v11.47h22.94V458.81H1560Z"/><path d="M1621.13,470.28v11.47h22.94V458.81h-22.94Z"/><path d="M1651.72,470.28v11.47h22.94V458.81h-22.94Z"/><path d="M1682.3,470.28v11.47h22.94V458.81H1682.3Z"/><path d="M1712.89,470.28v11.47h22.94V458.81h-22.94Z"/><path d="M1743.48,470.28v11.47h22.94V458.81h-22.94Z"/><path d="M1774.06,470.28v11.47h23V458.81h-23Z"/><path d="M1804.65,470.28v11.47h22.94V458.81h-22.94Z"/><path d="M0,500.87v11.47H22.94V489.4H0Z"/><path d="M30.59,500.87v11.47H53.53V489.4H30.59Z"/><path d="M61.17,500.87v11.47h23V489.4h-23Z"/><path d="M91.76,500.87v11.47H114.7V489.4H91.76Z"/><path d="M122.35,500.87v11.47h22.94V489.4H122.35Z"/><path d="M152.94,500.87v11.47h22.94V489.4H152.94Z"/><path d="M183.52,500.87v11.47h22.94V489.4H183.52Z"/><path d="M214.11,500.87v11.47h22.94V489.4H214.11Z"/><path d="M244.7,500.87v11.47h22.94V489.4H244.7Z"/><path d="M275.29,500.87v11.47h22.94V489.4H275.29Z"/><path d="M305.87,500.87v11.47h22.94V489.4H305.87Z"/><path d="M336.46,500.87v11.47H359.4V489.4H336.46Z"/><path d="M367.05,500.87v11.47H390V489.4H367.05Z"/><path d="M458.81,500.87v11.47h22.94V489.4H458.81Z"/><path d="M489.4,500.87v11.47h22.94V489.4H489.4Z"/><path d="M520,500.87v11.47h22.95V489.4H520Z"/><path d="M550.57,500.87v11.47h22.94V489.4H550.57Z"/><path d="M642.33,500.87v11.47h22.94V489.4H642.33Z"/><path d="M672.92,500.87v11.47h22.94V489.4H672.92Z"/><path d="M703.51,500.87v11.47h22.94V489.4H703.51Z"/><path d="M734.1,500.87v11.47H757V489.4H734.1Z"/><path d="M764.68,500.87v11.47h22.94V489.4H764.68Z"/><path d="M795.27,500.87v11.47h22.94V489.4H795.27Z"/><path d="M825.86,500.87v11.47H848.8V489.4H825.86Z"/><path d="M856.45,500.87v11.47h22.94V489.4H856.45Z"/><path d="M887,500.87v11.47H910V489.4H887Z"/><path d="M917.62,500.87v11.47h22.94V489.4H917.62Z"/><path d="M948.21,500.87v11.47h22.94V489.4H948.21Z"/><path d="M978.79,500.87v11.47h22.94V489.4H978.79Z"/><path d="M1009.38,500.87v11.47h22.94V489.4h-22.94Z"/><path d="M1040,500.87v11.47h22.94V489.4H1040Z"/><path d="M1070.56,500.87v11.47h22.94V489.4h-22.94Z"/><path d="M1101.14,500.87v11.47h22.94V489.4h-22.94Z"/><path d="M1345.84,500.87v11.47h22.94V489.4h-22.94Z"/><path d="M1437.6,500.87v11.47h22.94V489.4H1437.6Z"/><path d="M1468.19,500.87v11.47h22.94V489.4h-22.94Z"/><path d="M1498.78,500.87v11.47h22.94V489.4h-22.94Z"/><path d="M1529.37,500.87v11.47h22.94V489.4h-22.94Z"/><path d="M1621.13,500.87v11.47h22.94V489.4h-22.94Z"/><path d="M1651.72,500.87v11.47h22.94V489.4h-22.94Z"/><path d="M1774.06,500.87v11.47h23V489.4h-23Z"/><path d="M0,531.45v11.48H22.94V520H0Z"/><path d="M30.59,531.45v11.48H53.53V520H30.59Z"/><path d="M61.17,531.45v11.48h23V520h-23Z"/><path d="M91.76,531.45v11.48H114.7V520H91.76Z"/><path d="M122.35,531.45v11.48h22.94V520H122.35Z"/><path d="M152.94,531.45v11.48h22.94V520H152.94Z"/><path d="M183.52,531.45v11.48h22.94V520H183.52Z"/><path d="M305.87,531.45v11.48h22.94V520H305.87Z"/><path d="M336.46,531.45v11.48H359.4V520H336.46Z"/><path d="M367.05,531.45v11.48H390V520H367.05Z"/><path d="M458.81,531.45v11.48h22.94V520H458.81Z"/><path d="M489.4,531.45v11.48h22.94V520H489.4Z"/><path d="M642.33,531.45v11.48h22.94V520H642.33Z"/><path d="M672.92,531.45v11.48h22.94V520H672.92Z"/><path d="M703.51,531.45v11.48h22.94V520H703.51Z"/><path d="M734.1,531.45v11.48H757V520H734.1Z"/><path d="M764.68,531.45v11.48h22.94V520H764.68Z"/><path d="M795.27,531.45v11.48h22.94V520H795.27Z"/><path d="M825.86,531.45v11.48H848.8V520H825.86Z"/><path d="M856.45,531.45v11.48h22.94V520H856.45Z"/><path d="M887,531.45v11.48H910V520H887Z"/><path d="M948.21,531.45v11.48h22.94V520H948.21Z"/><path d="M1009.38,531.45v11.48h22.94V520h-22.94Z"/><path d="M1040,531.45v11.48h22.94V520H1040Z"/><path d="M1070.56,531.45v11.48h22.94V520h-22.94Z"/><path d="M1437.6,531.45v11.48h22.94V520H1437.6Z"/><path d="M1468.19,531.45v11.48h22.94V520h-22.94Z"/><path d="M1498.78,531.45v11.48h22.94V520h-22.94Z"/><path d="M1651.72,531.45v11.48h22.94V520h-22.94Z"/><path d="M0,562v11.47H22.94V550.57H0Z"/><path d="M30.59,562v11.47H53.53V550.57H30.59Z"/><path d="M61.17,562v11.47h23V550.57h-23Z"/><path d="M91.76,562v11.47H114.7V550.57H91.76Z"/><path d="M122.35,562v11.47h22.94V550.57H122.35Z"/><path d="M152.94,562v11.47h22.94V550.57H152.94Z"/><path d="M305.87,562v11.47h22.94V550.57H305.87Z"/><path d="M336.46,562v11.47H359.4V550.57H336.46Z"/><path d="M458.81,562v11.47h22.94V550.57H458.81Z"/><path d="M489.4,562v11.47h22.94V550.57H489.4Z"/><path d="M672.92,562v11.47h22.94V550.57H672.92Z"/><path d="M703.51,562v11.47h22.94V550.57H703.51Z"/><path d="M734.1,562v11.47H757V550.57H734.1Z"/><path d="M764.68,562v11.47h22.94V550.57H764.68Z"/><path d="M795.27,562v11.47h22.94V550.57H795.27Z"/><path d="M825.86,562v11.47H848.8V550.57H825.86Z"/><path d="M856.45,562v11.47h22.94V550.57H856.45Z"/><path d="M1009.38,562v11.47h22.94V550.57h-22.94Z"/><path d="M1040,562v11.47h22.94V550.57H1040Z"/><path d="M1468.19,562v11.47h22.94V550.57h-22.94Z"/><path d="M1651.72,562v11.47h22.94V550.57h-22.94Z"/><path d="M30.59,592.63V604.1H53.53V581.16H30.59Z"/><path d="M61.17,592.63V604.1h23V581.16h-23Z"/><path d="M91.76,592.63V604.1H114.7V581.16H91.76Z"/><path d="M122.35,592.63V604.1h22.94V581.16H122.35Z"/><path d="M336.46,592.63V604.1H359.4V581.16H336.46Z"/><path d="M458.81,592.63V604.1h22.94V581.16H458.81Z"/><path d="M489.4,592.63V604.1h22.94V581.16H489.4Z"/><path d="M672.92,592.63V604.1h22.94V581.16H672.92Z"/><path d="M703.51,592.63V604.1h22.94V581.16H703.51Z"/><path d="M734.1,592.63V604.1H757V581.16H734.1Z"/><path d="M764.68,592.63V604.1h22.94V581.16H764.68Z"/><path d="M795.27,592.63V604.1h22.94V581.16H795.27Z"/><path d="M825.86,592.63V604.1H848.8V581.16H825.86Z"/><path d="M1040,592.63V604.1h22.94V581.16H1040Z"/><path d="M1468.19,592.63V604.1h22.94V581.16h-22.94Z"/><path d="M30.59,623.22v11.47H53.53V611.75H30.59Z"/><path d="M61.17,623.22v11.47h23V611.75h-23Z"/><path d="M91.76,623.22v11.47H114.7V611.75H91.76Z"/><path d="M336.46,623.22v11.47H359.4V611.75H336.46Z"/><path d="M489.4,623.22v11.47h22.94V611.75H489.4Z"/><path d="M703.51,623.22v11.47h22.94V611.75H703.51Z"/><path d="M734.1,623.22v11.47H757V611.75H734.1Z"/><path d="M764.68,623.22v11.47h22.94V611.75H764.68Z"/><path d="M795.27,623.22v11.47h22.94V611.75H795.27Z"/><path d="M825.86,623.22v11.47H848.8V611.75H825.86Z"/><path d="M1468.19,623.22v11.47h22.94V611.75h-22.94Z"/><path d="M61.17,653.8v11.47h23V642.33h-23Z"/><path d="M91.76,653.8v11.47H114.7V642.33H91.76Z"/><path d="M336.46,653.8v11.47H359.4V642.33H336.46Z"/><path d="M489.4,653.8v11.47h22.94V642.33H489.4Z"/><path d="M703.51,653.8v11.47h22.94V642.33H703.51Z"/><path d="M734.1,653.8v11.47H757V642.33H734.1Z"/><path d="M764.68,653.8v11.47h22.94V642.33H764.68Z"/><path d="M795.27,653.8v11.47h22.94V642.33H795.27Z"/><path d="M61.17,684.39v11.47h23V672.92h-23Z"/><path d="M703.51,684.39v11.47h22.94V672.92H703.51Z"/><path d="M734.1,684.39v11.47H757V672.92H734.1Z"/><path d="M764.68,684.39v11.47h22.94V672.92H764.68Z"/><path d="M61.17,715v11.47h23V703.51h-23Z"/><path d="M734.1,715v11.47H757V703.51H734.1Z"/><path d="M764.68,715v11.47h22.94V703.51H764.68Z"/><path d="M61.17,745.57V757h23V734.1h-23Z"/><path d="M734.1,745.57V757H757V734.1H734.1Z"/><path d="M764.68,745.57V757h22.94V734.1H764.68Z"/><path d="M61.17,776.15v11.47h23V764.68h-23Z"/><path d="M734.1,776.15v11.47H757V764.68H734.1Z"/><path d="M764.68,776.15v11.47h22.94V764.68H764.68Z"/><path d="M61.17,806.74v11.47h23V795.27h-23Z"/><path d="M734.1,806.74v11.47H757V795.27H734.1Z"/><path d="M764.68,806.74v11.47h22.94V795.27H764.68Z"/><path d="M61.17,837.33V848.8h23V825.86h-23Z"/><path d="M764.68,837.33V848.8h22.94V825.86H764.68Z"/><path d="M61.17,867.92v11.47h23V856.45h-23Z"/><path d="M764.68,867.92v11.47h22.94V856.45H764.68Z"/><path d="M764.68,898.5V910h22.94V887H764.68Z"/></g></g></svg>