<svg xmlns="http://www.w3.org/2000/svg" viewBox="0 0 813.9 813.88"><defs><style>.cls-1{fill:gold;}.cls-2{font-size:67px;fill:#b0c4de;font-family:Glimp-CondensedThin, Glimp;font-weight:200;}</style></defs><title>patreon</title><g id="Capa_2" data-name="Capa 2"><g id="Capa_1-2" data-name="Capa 1"><path class="cls-1" d="M172.42,559.93A304.32,304.32,0,0,1,150,518.64c-.38-.84-.75-1.69-1.11-2.53-.24-.55-1.38-3.31-.45-1,.88,2.14,0,0-.15-.4l-1-2.55Q145,506.41,143,500.59q-3.72-10.59-6.62-21.44t-4.94-21.69q-1-5.28-1.79-10.58c-.14-.88-.26-1.77-.39-2.65-.5-3.38.16.35.1.8.25-2-.56-4.61-.77-6.63a297.14,297.14,0,0,1-1.37-43.84q.46-10.92,1.73-21.78c.07-.64.85-6.25.42-3.52s.44-2.87.54-3.5q.87-5.55,1.95-11.07a298.94,298.94,0,0,1,11.44-42.1q1.77-5,3.7-9.93c.64-1.65,1.31-3.28,2-4.92,1.23-3-.1.13-.27.63.42-1.23,1.07-2.47,1.59-3.65q4.45-10,9.65-19.71a296.75,296.75,0,0,1,23.7-37.27c.54-.73,1.09-1.44,1.62-2.16,1.52-2.05-1.93,2.43-.34.44,1.13-1.41,2.24-2.83,3.38-4.23q3.63-4.48,7.44-8.81,7.68-8.73,16-16.84,8.19-7.95,17-15.26c1.43-1.19,2.87-2.36,4.32-3.53l2.19-1.74c2-1.63-2.4,1.81-.32.24,3.19-2.4,6.39-4.78,9.66-7.08a303.17,303.17,0,0,1,40-23.75q5-2.46,10.05-4.73c1.68-.75,3.37-1.48,5.07-2.21-4.22,1.81,2.18-.85,3.34-1.31q10.49-4.12,21.28-7.44a296.44,296.44,0,0,1,43.37-9.83l2.65-.38c2.58-.38-3.4.41-.81.11,1.77-.19,3.54-.42,5.31-.61q5.64-.62,11.3-1,11.28-.78,22.59-.7c7.29,0,14.59.36,21.85,1q5.28.42,10.55,1c1.53.18,3.07.31,4.59.57-5.09-.86,1.76.29,3.07.5a300.25,300.25,0,0,1,42.47,9.95q10.74,3.36,21.22,7.52c1.63.65,3.31,1.26,4.91,2-3.69-1.7.45.22,1.79.82q5.18,2.3,10.24,4.78a297.42,297.42,0,0,1,38,22.29q4.44,3.06,8.75,6.28c.72.53,1.43,1.08,2.15,1.62,2.05,1.52-2.43-1.93-.43-.34,1.58,1.26,3.18,2.51,4.75,3.8Q591.59,196,600,204q7.95,7.59,15.33,15.77,3.71,4.13,7.27,8.38,1.8,2.13,3.54,4.31c.59.72,1.16,1.45,1.74,2.18,3,3.69-2.23-3,.62.79a309.86,309.86,0,0,1,25.28,39.2q5.63,10.41,10.42,21.25l1.11,2.53.16.39c-.93-2.28.19.48.41,1,.35.85.69,1.7,1,2.56q2.14,5.42,4.07,10.91a296.91,296.91,0,0,1,11.68,43.79q1,5.27,1.77,10.58c.13.88.25,1.77.38,2.65.38,2.58-.4-3.39-.11-.8.22,2,.48,4,.69,6q1.14,10.93,1.49,21.93a298.75,298.75,0,0,1-1.93,44.35c-.15,1.34-.38,6.64-.2,1.78a44.6,44.6,0,0,1-.78,5.23q-.88,5.55-2,11.07-2.1,10.69-5,21.23t-6.54,20.84q-1.77,5-3.71,9.93c-.65,1.64-1.34,3.27-2,4.91-.94,2.37,1.33-3,.27-.63-.47,1-.89,2-1.34,3a297.65,297.65,0,0,1-21.12,39.3q-6,9.35-12.63,18.22l-1.63,2.15c.34-.45,2.36-3,.34-.44-1.13,1.41-2.25,2.83-3.39,4.23q-3.65,4.47-7.46,8.79a297.68,297.68,0,0,1-33.06,32q-2.16,1.78-4.33,3.52l-2.2,1.73c.47-.37,3-2.23.31-.24-3.19,2.4-6.41,4.77-9.68,7.06q-9.6,6.72-19.71,12.68t-20.37,11q-5,2.45-10.05,4.7L516.11,665c-.55.23-3.3,1.37-1,.44s-.47.18-1,.41l-3.19,1.28a296.64,296.64,0,0,1-43.52,13.33q-10.82,2.43-21.79,4c-.86.13-1.82.18-2.65.38.5-.12,4.13-.51.8-.12-1.77.2-3.54.42-5.31.6q-5.64.6-11.29,1a298.43,298.43,0,0,1-44.45-.34c-3.52-.29-7-.65-10.54-1.06-.72-.09-5.61-.78-2.85-.35l-.89-.14-3.27-.5q-11.1-1.77-22.05-4.35a301.46,301.46,0,0,1-41.63-13.12c-1.64-.66-3.31-1.27-4.91-2,4.2,1.93-.7-.32-1.8-.81q-5.46-2.43-10.83-5.08-9.56-4.71-18.77-10.11-9.83-5.76-19.19-12.26-4.43-3.07-8.73-6.3l-2.15-1.63c.45.34,3,2.36.44.33-1.59-1.26-3.18-2.52-4.75-3.81a296.23,296.23,0,0,1-32.59-31.17q-3.71-4.12-7.26-8.39-1.78-2.15-3.53-4.32c-.58-.73-1.15-1.47-1.74-2.19-1.63-2,1.8,2.39.24.31-4.68-6.22-9.19-12.55-13.44-19.08-5.13-7.88-16.18-11.9-24.63-6.45-7.87,5.07-11.95,16.18-6.45,24.62a320.15,320.15,0,0,0,149.9,122.81C350,724.43,416,729,477.58,715a316.58,316.58,0,0,0,166.51-99.17c42.86-49,69.2-109.56,76.82-174.08,7.55-63.81-5.78-129.55-36.42-185.93-31-57.08-80.14-104.5-138.71-132.76a321.8,321.8,0,0,0-187-28.39c-64.82,9.51-126.19,40.78-173,86.48A315.55,315.55,0,0,0,96.85,346.42a320,320,0,0,0,22.08,190.39,305.49,305.49,0,0,0,22.41,41.29c5.09,7.91,16.2,11.89,24.62,6.46C173.86,579.47,177.88,568.4,172.42,559.93Z"/><path class="cls-1" d="M354.75,696.62l.08-47.58L355,535.33l.23-137.54.19-119.37c0-19.29.6-38.66.1-58,0-.26,0-.53,0-.79,0-9.42-8.29-18.43-18-18s-18,7.91-18,18l-.08,47.57L319.27,381,319,518.51l-.2,119.37c0,19.29-.59,38.66-.09,57.94,0,.27,0,.53,0,.8,0,9.41,8.29,18.43,18,18s18-7.91,18-18Z"/><path class="cls-1" d="M510.48,427.68h-39.1c-1.86,0-3.7-.23-5.55-.29-2.61-.08,3.26.62.71.13-1.11-.22-2.23-.38-3.33-.62q-2.62-.56-5.21-1.33c-.85-.26-1.69-.53-2.53-.82-.2-.07-4.32-1.57-1.56-.52,2.35.89-.3-.15-.87-.44-.78-.39-1.57-.77-2.35-1.18q-2.61-1.38-5.08-3c-1.26-.82-4.69-3.57-1.64-1-1.34-1.12-2.67-2.23-3.93-3.42s-2.48-2.43-3.65-3.72c-.58-.65-1.13-1.32-1.71-2-2.87-3.25,2,3.13-.37-.49a79.89,79.89,0,0,1-5.35-9,13.19,13.19,0,0,1-1.11-2.39c.1.45,1.37,3.79.32.62-.63-1.9-1.29-3.78-1.81-5.72-.47-1.73-.86-3.49-1.18-5.26s-1.55-3.14,0,.06a11.44,11.44,0,0,1-.23-2.75c-.09-1.53-.12-3.07-.13-4.6q-.34-47.34,0-94.72c0-1.95.13-3.89.23-5.83.06-1-.1-3.45-.16.69a16.85,16.85,0,0,1,.45-2.68q.57-3,1.42-5.88c.49-1.7,1.23-3.35,1.69-5.05.65-2.4-1.47,2.82-.29.64.42-.77.74-1.6,1.14-2.38a90,90,0,0,1,5.82-9.47c-2.46,3.7.43-.42,1.31-1.4,1.17-1.29,2.38-2.53,3.65-3.72s2.62-2.27,3.93-3.42c-3.5,3.05,1.58-1,2.74-1.71,1.49-.92,3-1.79,4.56-2.59.78-.4,1.58-.77,2.37-1.16,3.05-1.52-.38,0-.66.25,2.54-2.1,8.39-2.73,11.55-3.34a23.52,23.52,0,0,0,2.68-.45c-.16.3-4.41.34-.69.16,1.85-.08,3.7-.21,5.56-.23.74,0,1.49,0,2.24,0h13.5c8,0,16.05-.16,24.07,0,.39,0,5.52.38,5.53.35,0,.14-4.51-.81-.73-.08.89.17,1.78.32,2.66.51,1.76.37,3.49.82,5.21,1.33.85.26,1.7.53,2.53.82s5,1.2.64.13c3.14.77,6.54,3.25,9.22,5,1.09.71,5,3.95,1.65,1,1.47,1.29,3,2.51,4.4,3.87q1.88,1.81,3.6,3.76c.58.65,1.1,1.36,1.7,2,1.69,1.77-1.69-2.65-.43-.54,1.91,3.2,4.08,6.15,5.73,9.53a13.39,13.39,0,0,1,1.11,2.39c-.92-3.74-.63-1.61-.32-.62.54,1.69,1.16,3.35,1.64,5.07s.89,3.48,1.23,5.24c.06.29.52,4.63.31,1.65-.2-2.82,0,1.14.08,1.71.91,14.57.13,29.39.13,44v53.43c0,2.59-.11,5.16-.23,7.75-.17,3.72-.14-.53.17-.69a23.29,23.29,0,0,0-.46,2.68c-.34,1.76-.74,3.51-1.23,5.24s-1.08,3.38-1.64,5.07c-1,3.17.22-.17.32-.62a18,18,0,0,1-1.7,3.57,78.76,78.76,0,0,1-5.52,8.88c2.27-3.25-.3.28-1.32,1.4-1.31,1.45-2.69,2.83-4.12,4.16-.64.59-1.3,1.15-1.95,1.73-.46.41-2.71,2.14-.72.64s-.29.18-.8.52c-.91.6-1.8,1.22-2.73,1.8-1.48.92-3,1.79-4.56,2.59-.78.4-1.58.76-2.36,1.16-3,1.52,2.13-.58,0,0-3.45.93-6.73,2.26-10.27,3-.89.18-1.78.31-2.67.48-2.55.49,3.32-.21.71-.13-2.09.07-4.15.28-6.25.3-9.41.1-18.43,8.21-18,18s7.92,18.11,18,18c38-.4,73.19-27.09,81.23-64.86,3.79-17.8,2.07-37.22,2.07-55.29q0-28.41,0-56.82c0-32.07-17.59-63.14-47.28-76.78-22.8-10.46-47.52-8.25-71.93-8.25-35.61,0-66.77,20.21-80.14,53.4-7.39,18.34-5.65,38.86-5.65,58.24v62.05c0,9.88.64,19.8,3.61,29.29a85.59,85.59,0,0,0,33.42,44.95c22.88,15.85,49.54,14.07,75.87,14.07h8.8c9.42,0,18.44-8.28,18-18S520.58,427.68,510.48,427.68Z"/><text class="cls-2" transform="translate(442.63 58.37) rotate(8.57)">P</text><text class="cls-2" transform="translate(474.75 63.2) rotate(13.73)">a</text><text class="cls-2" transform="translate(504.82 70.8) rotate(17.5)">t</text><text class="cls-2" transform="matrix(0.94, 0.34, -0.34, 0.94, 519.19, 75.29)">r</text><text class="cls-2" transform="matrix(0.91, 0.41, -0.41, 0.91, 535.11, 80.89)">e</text><text class="cls-2" transform="translate(561.42 92.51) rotate(28.68)">o</text><text class="cls-2" transform="translate(586.95 106.36) rotate(33.68)">n</text><text class="cls-2" transform="translate(613.36 124.27) rotate(37.54)"> </text><text class="cls-2" transform="translate(625.82 134.12) rotate(39.71)">P</text><text class="cls-2" transform="matrix(0.69, 0.73, -0.73, 0.69, 650.28, 155.04)">a</text><text class="cls-2" transform="translate(671.44 177.69) rotate(50.24)">t</text><text class="cls-2" transform="matrix(0.6, 0.8, -0.8, 0.6, 681.09, 189.24)">r</text><text class="cls-2" transform="matrix(0.55, 0.84, -0.84, 0.55, 691.47, 202.58)">e</text><text class="cls-2" transform="matrix(0.48, 0.88, -0.88, 0.48, 707.31, 226.57)">o</text><text class="cls-2" transform="matrix(0.4, 0.92, -0.92, 0.4, 721.28, 252.02)">n</text><text class="cls-2" transform="translate(733.81 281.38) rotate(70.33)"> </text><text class="cls-2" transform="translate(739.27 295.71) rotate(74.27)">P</text><text class="cls-2" transform="translate(748.08 326.97) rotate(79.44)">a</text><text class="cls-2" transform="matrix(0.12, 0.99, -0.99, 0.12, 753.53, 357.52)">t</text><text class="cls-2" transform="matrix(0.07, 1, -1, 0.07, 755.35, 372.44)">r</text><text class="cls-2" transform="translate(756.81 389.3) rotate(89.52)">e</text><text class="cls-2" transform="matrix(-0.07, 1, -1, -0.07, 757.1, 418.06)">o</text><text class="cls-2" transform="translate(755.06 447.04) rotate(99.17)">n</text><text class="cls-2" transform="translate(749.72 478.5) rotate(103.03)"> </text><text class="cls-2" transform="translate(746.58 493.51) rotate(106.97)">P</text><text class="cls-2" transform="translate(737.11 524.59) rotate(112.17)">a</text><text class="cls-2" transform="translate(725.18 553.21) rotate(115.95)">t</text><text class="cls-2" transform="translate(718.63 566.76) rotate(118.61)">r</text><text class="cls-2" transform="translate(710.74 581.69) rotate(122.39)">e</text><text class="cls-2" transform="matrix(-0.6, 0.8, -0.8, -0.6, 695.37, 606)">o</text><text class="cls-2" transform="translate(677.91 629.21) rotate(132.1)">n</text><text class="cls-2" transform="matrix(-0.72, 0.69, -0.69, -0.72, 656.32, 652.74)"> </text><text class="cls-2" transform="translate(645.52 663.63) rotate(139.78)">P</text><text class="cls-2" transform="translate(620.71 684.63) rotate(144.94)">a</text><text class="cls-2" transform="translate(595.19 702.25) rotate(148.71)">t</text><text class="cls-2" transform="translate(582.34 710.09) rotate(151.36)">r</text><text class="cls-2" transform="matrix(-0.91, 0.42, -0.42, -0.91, 567.65, 718.38)">e</text><text class="cls-2" transform="translate(541.56 730.51) rotate(159.91)">o</text><text class="cls-2" transform="translate(514.33 740.58) rotate(164.9)">n</text><text class="cls-2" transform="translate(483.45 748.65) rotate(168.77)"> </text><text class="cls-2" transform="matrix(-0.99, 0.13, -0.13, -0.99, 468.48, 751.95)">P</text><text class="cls-2" transform="matrix(-1, 0.04, -0.04, -1, 436.25, 756.09)">a</text><text class="cls-2" transform="translate(405.26 757.02) rotate(-178.43)">t</text><text class="cls-2" transform="translate(390.19 756.64) rotate(-175.81)">r</text><text class="cls-2" transform="translate(373.31 755.63) rotate(-172.08)">e</text><text class="cls-2" transform="matrix(-0.98, -0.22, 0.22, -0.98, 344.85, 751.72)">o</text><text class="cls-2" transform="translate(316.48 745.46) rotate(-162.39)">n</text><text class="cls-2" transform="translate(286.1 735.55) rotate(-158.51)"> </text><text class="cls-2" transform="matrix(-0.9, -0.43, 0.43, -0.9, 271.74, 730.25)">P</text><text class="cls-2" transform="matrix(-0.86, -0.51, 0.51, -0.86, 242.42, 716.3)">a</text><text class="cls-2" transform="matrix(-0.82, -0.57, 0.57, -0.82, 215.87, 700.28)">t</text><text class="cls-2" transform="matrix(-0.8, -0.6, 0.6, -0.8, 203.43, 691.8)">r</text><text class="cls-2" transform="translate(189.82 681.78) rotate(-139.16)">e</text><text class="cls-2" transform="translate(168.02 662.99) rotate(-134.5)">o</text><text class="cls-2" transform="translate(147.59 642.34) rotate(-129.64)">n</text><text class="cls-2" transform="translate(127.41 617.58) rotate(-125.78)"> </text><text class="cls-2" transform="translate(118.19 605.35) rotate(-121.83)">P</text><text class="cls-2" transform="matrix(-0.45, -0.89, 0.89, -0.45, 101.04, 577.74)">a</text><text class="cls-2" transform="translate(87.37 549.94) rotate(-112.85)">t</text><text class="cls-2" transform="translate(81.49 536.07) rotate(-110.2)">r</text><text class="cls-2" transform="matrix(-0.28, -0.96, 0.96, -0.28, 75.45, 520.3)">e</text><text class="cls-2" transform="translate(67.28 492.73) rotate(-101.69)">o</text><text class="cls-2" transform="translate(61.29 464.29) rotate(-96.73)">n</text><text class="cls-2" transform="matrix(-0.05, -1, 1, -0.05, 57.8, 432.57)"> </text><text class="cls-2" transform="translate(56.71 417.29) rotate(-88.97)">P</text><text class="cls-2" transform="translate(57.28 384.78) rotate(-83.82)">a</text><text class="cls-2" transform="translate(60.85 353.98) rotate(-80.09)">t</text><text class="cls-2" transform="translate(63.41 339.13) rotate(-77.46)">r</text><text class="cls-2" transform="matrix(0.28, -0.96, 0.96, 0.28, 66.87, 322.6)">e</text><text class="cls-2" transform="matrix(0.36, -0.93, 0.93, 0.36, 74.89, 294.99)">o</text><text class="cls-2" transform="translate(85.23 267.84) rotate(-63.95)">n</text><text class="cls-2" transform="translate(99.47 239.28) rotate(-60.06)"> </text><text class="cls-2" transform="matrix(0.56, -0.83, 0.83, 0.56, 106.83, 225.85)">P</text><text class="cls-2" transform="matrix(0.63, -0.78, 0.78, 0.63, 124.95, 198.87)">a</text><text class="cls-2" transform="matrix(0.68, -0.74, 0.74, 0.68, 144.7, 174.95)">t</text><text class="cls-2" transform="matrix(0.71, -0.7, 0.7, 0.71, 154.93, 163.87)">r</text><text class="cls-2" transform="matrix(0.76, -0.65, 0.65, 0.76, 166.78, 151.85)">e</text><text class="cls-2" transform="translate(188.47 132.99) rotate(-36.17)">o</text><text class="cls-2" transform="translate(211.86 115.76) rotate(-31.18)">n</text><text class="cls-2" transform="matrix(0.89, -0.46, 0.46, 0.89, 239.31, 99.45)"> </text><text class="cls-2" transform="matrix(0.92, -0.4, 0.4, 0.92, 252.77, 92.14)">P</text><text class="cls-2" transform="translate(282.59 79.28) rotate(-18.13)">a</text><text class="cls-2" transform="translate(312.14 69.86) rotate(-14.37)">t</text><text class="cls-2" transform="translate(326.71 66.09) rotate(-11.74)">r</text><text class="cls-2" transform="translate(343.21 62.43) rotate(-8)">e</text><text class="cls-2" transform="matrix(1, -0.06, 0.06, 1, 371.7, 58.39)">o</text><text class="cls-2" transform="translate(400.71 56.62) rotate(1.66)">n</text></g></g></svg>