<svg xmlns="http://www.w3.org/2000/svg" viewBox="0 0 607.7 607.71"><defs><style>.cls-1{fill:gold;}.cls-2{font-size:49.84px;fill:none;stroke:gold;stroke-miterlimit:10;stroke-width:2.23px;font-family:Glimp-CondensedThin, Glimp;font-weight:200;}</style></defs><title>patreon_1</title><g id="Capa_2" data-name="Capa 2"><g id="Capa_1-2" data-name="Capa 1"><path class="cls-1" d="M129.37,417.67c-24.16-37.53-35.6-79.22-33.63-123.47q.35-7.92,1.27-15.8c0-.18.58-4.49.19-1.68.18-1.31.38-2.61.59-3.92q.61-3.9,1.37-7.79a223,223,0,0,1,8.69-31.81,179.16,179.16,0,0,1,12.63-28.26,222.26,222.26,0,0,1,17.25-27s2.68-3.48,1.19-1.57c.83-1.06,1.67-2.11,2.53-3.16q2.56-3.13,5.25-6.2,5.85-6.65,12.23-12.83c4-3.84,8.08-7.53,12.32-11.06a146.94,146.94,0,0,1,11.73-9,225.32,225.32,0,0,1,30.27-17.92c5.35-2.62,9-4.24,13.21-5.88q7.92-3.12,16.08-5.62a238.49,238.49,0,0,1,32.13-7.27c4.32-.69-2.61.28,1.73-.24l4-.46c2.65-.27,5.3-.51,8-.69q8.6-.6,17.23-.52,7.29.06,14.54.6,4,.3,7.9.73c1.31.14,2.62.3,3.93.47-2.62-.34,2.5.38,3,.46A223.2,223.2,0,0,1,367,105.34q7.56,2.39,14.94,5.3c3.9,1.54,7.34,3,12.56,5.59A222.45,222.45,0,0,1,423.23,133a184.81,184.81,0,0,1,24.48,20.11q5.44,5.22,10.53,10.8,2.79,3.08,5.46,6.24c.9,1.07,1.79,2.14,2.66,3.22.32.39,3.22,4.08,2.22,2.78a221.47,221.47,0,0,1,19.08,29.63,178,178,0,0,1,12.57,28.33,221.42,221.42,0,0,1,8.7,32.61,135.94,135.94,0,0,1,2,13.62q.92,8.6,1.14,17.24a222.37,222.37,0,0,1-1.4,31.7c0,.17-.58,4.48-.2,1.68-.18,1.3-.37,2.61-.58,3.91q-.62,3.91-1.38,7.8-1.63,8.42-3.92,16.69-2,7.32-4.54,14.49-1.21,3.44-2.52,6.82c-.48,1.24-1,2.46-1.47,3.69-.62,1.48-.68,1.63-.19.46-.35.81-.7,1.62-1.06,2.43a221.85,221.85,0,0,1-15.72,29.26q-4.33,6.78-9.15,13.23s-2.68,3.48-1.18,1.57c-.83,1.06-1.68,2.11-2.53,3.16-1.71,2.1-3.46,4.16-5.25,6.2a219.82,219.82,0,0,1-24.55,23.89c-14.82,12.34-37.62,25.85-55.21,32.78a222,222,0,0,1-32.4,9.94c-5.24,1.17-10.51,2.09-15.81,2.94-4.32.69,2.61-.27-1.73.24l-3.31.39c-2.87.31-5.74.57-8.62.76a221.51,221.51,0,0,1-33.09-.18q-4-.32-7.89-.77c-.18,0-4.49-.59-1.68-.2-1.31-.18-2.61-.37-3.92-.58-5.64-.9-11.26-2-16.82-3.33a222,222,0,0,1-30.21-9.52c-3.93-1.55-7.26-3-12.56-5.59s-10.26-5.26-15.22-8.18q-6.91-4.07-13.52-8.63-2.76-1.91-5.46-3.9c-1.08-.8-2.16-1.6-3.23-2.42,1.59,1.22-2.22-1.8-2.58-2.09a221,221,0,0,1-24.66-23.52,184.34,184.34,0,0,1-19.16-25.07c-3.94-6.05-11.86-8.58-18.32-4.8-6,3.52-8.77,12.24-4.8,18.32a238.44,238.44,0,0,0,111.16,91.22c43.68,17.56,92.69,21,138.55,10.73a235.52,235.52,0,0,0,124-73.49A238.49,238.49,0,0,0,537.39,330c5.65-47.45-4.21-96.32-26.94-138.28-23-42.48-59.51-77.8-103-98.87a239.41,239.41,0,0,0-139.2-21.29c-48.21,7-93.87,30.25-128.71,64.18A234.85,234.85,0,0,0,73.21,258.53,238,238,0,0,0,89.57,400.44a228.22,228.22,0,0,0,16.68,30.75c3.91,6.07,11.89,8.56,18.32,4.8C130.62,432.46,133.31,423.78,129.37,417.67Z"/><path class="cls-1" d="M265,519.35l.06-35.25.14-84.67L265.38,297l.14-88.63c0-14.35.56-28.81.08-43.16,0-.21,0-.42,0-.62,0-17.24-26.76-17.26-26.78,0l-.06,35.25-.14,84.67-.17,102.47-.15,88.63c0,14.35-.55,28.81-.07,43.16,0,.21,0,.42,0,.62,0,17.24,26.76,17.26,26.78,0Z"/><path class="cls-1" d="M380.87,319.28H363.13c-3.11,0-6.21,0-9.32,0a37.43,37.43,0,0,1-8.9-.76c-5.57-1.28-6.67-1.71-11.5-4.72a39.45,39.45,0,0,1-9.36-8.63,65.18,65.18,0,0,1-4-6.81c-1.79-3.49.45,2.06-.69-1.71-.39-1.29-.83-2.55-1.17-3.85s-.63-2.64-.86-4c.45,2.61-.14-1.81-.15-1.92-.06-1.08-.07-2.17-.08-3.25q-.32-35.1,0-70.24c.19-17.75,11.49-30.54,29.13-35,3.89-1-2.19,0,1.87-.29,1.4-.09,2.79-.17,4.19-.18h11.81c5.58,0,11.17-.07,16.76,0,1.4,0,2.79.09,4.19.18,4.06.25-2-.69,1.87.29a67.26,67.26,0,0,1,7.75,2.24c-2.37-.91,1.55.77,1.64.82,1.17.6,2.32,1.25,3.44,1.95,3.38,2.11,2.67,1.58,5.53,4.36,3.73,3.64,5,5.53,7.82,11.08,1.79,3.49-.46-2.07.69,1.71.26.86.57,1.69.82,2.55.38,1.3.63,2.63,1,3.94.27,1.62.32,1.79.16.5.11.91.18,1.84.24,2.76.6,10.56.08,21.28.08,31.85,0,13.83.12,27.66,0,41.48,0,1.08,0,2.17-.08,3.25,0,.11-.6,4.53-.15,1.92a48,48,0,0,1-1.21,5.28c-1.13,3.89-.78,3.08-2.72,6.61-.63,1.15-1.31,2.28-2,3.38-.48.73-1,1.45-1.5,2.15.75-1,.62-.87-.37.35-4.8,5-6.38,6.44-12.85,9.75-3.49,1.78,2.06-.45-1.72.69-1.72.52-3.4,1.09-5.16,1.49-.09,0-4.45.81-1.82.45a45,45,0,0,1-5.57.31c-17.22.25-17.27,27,0,26.79,28.08-.4,53.85-19.69,60.25-47.46,3.07-13.33,1.72-28.05,1.72-41.61,0-14.2,0-28.4,0-42.6-.07-23.74-12.91-46.64-34.79-56.92-17-8-35.68-6.36-54-6.32-24.76,0-48.13,13.48-58.22,36.6-6.46,14.8-5.52,30.15-5.52,45.86V280.3c0,22.09,8.57,41.76,26.84,54.79,17.13,12.22,37.14,11,57,11h6.68C398.1,346.07,398.13,319.28,380.87,319.28Z"/><text class="cls-2" transform="translate(330.4 44.54) rotate(8.57)">P</text><text class="cls-2" transform="translate(354.31 48.14) rotate(13.74)">a</text><text class="cls-2" transform="translate(376.68 53.79) rotate(17.5)">t</text><text class="cls-2" transform="matrix(0.94, 0.34, -0.34, 0.94, 387.37, 57.14)">r</text><text class="cls-2" transform="translate(399.24 61.31) rotate(23.93)">e</text><text class="cls-2" transform="translate(418.79 69.95) rotate(28.69)">o</text><text class="cls-2" transform="translate(437.8 80.27) rotate(33.69)">n</text><text class="cls-2" transform="matrix(0.79, 0.61, -0.61, 0.79, 457.45, 93.6)"> </text><text class="cls-2" transform="matrix(0.84, 0.54, -0.54, 0.84, 467.58, 103.69)">P</text><text class="cls-2" transform="translate(485.88 117.43) rotate(46.82)">a</text><text class="cls-2" transform="matrix(0.64, 0.77, -0.77, 0.64, 501.53, 134.37)">t</text><text class="cls-2" transform="matrix(0.6, 0.8, -0.8, 0.6, 508.68, 143.02)">r</text><text class="cls-2" transform="matrix(0.55, 0.84, -0.84, 0.55, 516.33, 152.97)">e</text><text class="cls-2" transform="matrix(0.47, 0.88, -0.88, 0.47, 528.03, 170.89)">o</text><text class="cls-2" transform="translate(538.32 189.9) rotate(66.76)">n</text><text class="cls-2" transform="matrix(0.33, 0.94, -0.94, 0.33, 547.53, 211.81)"> </text><text class="cls-2" transform="translate(551.53 222.48) rotate(74.59)">P</text><text class="cls-2" transform="translate(557.96 245.79) rotate(79.76)">a</text><text class="cls-2" transform="translate(561.88 268.51) rotate(83.49)">t</text><text class="cls-2" transform="translate(563.18 279.65) rotate(86.11)">r</text><text class="cls-2" transform="translate(564.19 292.2) rotate(89.84)">e</text><text class="cls-2" transform="translate(564.29 313.59) rotate(94.54)">o</text><text class="cls-2" transform="matrix(-0.16, 0.99, -0.99, -0.16, 562.65, 335.15)">n</text><text class="cls-2" transform="translate(558.54 358.56) rotate(103.36)"> </text><text class="cls-2" transform="translate(556.15 369.69) rotate(107.29)">P</text><text class="cls-2" transform="matrix(-0.38, 0.92, -0.92, -0.38, 548.96, 392.78)">a</text><text class="cls-2" transform="translate(539.96 414.03) rotate(116.29)">t</text><text class="cls-2" transform="translate(535.03 424.08) rotate(118.94)">r</text><text class="cls-2" transform="translate(529.1 435.14) rotate(122.72)">e</text><text class="cls-2" transform="matrix(-0.61, 0.79, -0.79, -0.61, 517.56, 453.16)">o</text><text class="cls-2" transform="matrix(-0.67, 0.74, -0.74, -0.67, 504.46, 470.38)">n</text><text class="cls-2" transform="matrix(-0.72, 0.69, -0.69, -0.72, 488.3, 487.78)"> </text><text class="cls-2" transform="translate(480.2 495.86) rotate(140.11)">P</text><text class="cls-2" transform="matrix(-0.82, 0.57, -0.57, -0.82, 461.65, 511.37)">a</text><text class="cls-2" transform="translate(442.6 524.36) rotate(149.05)">t</text><text class="cls-2" transform="matrix(-0.88, 0.47, -0.47, -0.88, 433, 530.15)">r</text><text class="cls-2" transform="translate(422.01 536.25) rotate(155.48)">e</text><text class="cls-2" transform="translate(402.54 545.17) rotate(160.25)">o</text><text class="cls-2" transform="matrix(-0.97, 0.25, -0.25, -0.97, 382.25, 552.53)">n</text><text class="cls-2" transform="translate(359.22 558.4) rotate(169.11)"> </text><text class="cls-2" transform="translate(348.07 560.79) rotate(173.03)">P</text><text class="cls-2" transform="matrix(-1, 0.03, -0.03, -1, 324.08, 563.72)">a</text><text class="cls-2" transform="translate(301 564.28) rotate(-178.08)">t</text><text class="cls-2" transform="translate(289.79 563.93) rotate(-175.46)">r</text><text class="cls-2" transform="translate(277.26 563.1) rotate(-171.74)">e</text><text class="cls-2" transform="matrix(-0.97, -0.22, 0.22, -0.97, 256.05, 560.05)">o</text><text class="cls-2" transform="translate(234.97 555.27) rotate(-162.03)">n</text><text class="cls-2" transform="translate(212.46 547.77) rotate(-158.15)"> </text><text class="cls-2" transform="translate(201.76 543.74) rotate(-154.19)">P</text><text class="cls-2" transform="translate(180 533.22) rotate(-148.97)">a</text><text class="cls-2" transform="translate(160.33 521.18) rotate(-145.2)">t</text><text class="cls-2" transform="matrix(-0.79, -0.61, 0.61, -0.79, 151.11, 514.81)">r</text><text class="cls-2" transform="translate(141.04 507.3) rotate(-138.81)">e</text><text class="cls-2" transform="matrix(-0.7, -0.72, 0.72, -0.7, 124.91, 493.22)">o</text><text class="cls-2" transform="matrix(-0.63, -0.77, 0.77, -0.63, 109.79, 477.75)">n</text><text class="cls-2" transform="matrix(-0.58, -0.82, 0.82, -0.58, 94.89, 459.23)"> </text><text class="cls-2" transform="matrix(-0.52, -0.85, 0.85, -0.52, 88.09, 450.08)">P</text><text class="cls-2" transform="translate(75.46 429.46) rotate(-116.25)">a</text><text class="cls-2" transform="translate(65.42 408.7) rotate(-112.47)">t</text><text class="cls-2" transform="translate(61.11 398.35) rotate(-109.83)">r</text><text class="cls-2" transform="translate(56.69 386.58) rotate(-106.06)">e</text><text class="cls-2" transform="translate(50.75 366.04) rotate(-101.32)">o</text><text class="cls-2" transform="translate(46.43 344.83) rotate(-96.36)">n</text><text class="cls-2" transform="translate(43.98 321.2) rotate(-92.51)"> </text><text class="cls-2" transform="translate(43.25 309.83) rotate(-88.6)">P</text><text class="cls-2" transform="translate(43.83 285.64) rotate(-83.45)">a</text><text class="cls-2" transform="matrix(0.18, -0.98, 0.98, 0.18, 46.64, 262.77)">t</text><text class="cls-2" transform="translate(48.62 251.71) rotate(-77.08)">r</text><text class="cls-2" transform="translate(51.27 239.42) rotate(-73.32)">e</text><text class="cls-2" transform="translate(57.37 218.94) rotate(-68.57)">o</text><text class="cls-2" transform="matrix(0.45, -0.9, 0.9, 0.45, 65.2, 198.77)">n</text><text class="cls-2" transform="translate(75.95 177.59) rotate(-59.67)"> </text><text class="cls-2" transform="matrix(0.56, -0.83, 0.83, 0.56, 81.5, 167.62)">P</text><text class="cls-2" transform="translate(95.11 147.66) rotate(-50.54)">a</text><text class="cls-2" transform="translate(109.95 129.93) rotate(-46.95)">t</text><text class="cls-2" transform="matrix(0.72, -0.7, 0.7, 0.72, 117.59, 121.76)">r</text><text class="cls-2" transform="translate(126.46 112.88) rotate(-40.51)">e</text><text class="cls-2" transform="matrix(0.81, -0.58, 0.58, 0.81, 142.72, 98.94)">o</text><text class="cls-2" transform="translate(160.21 86.25) rotate(-30.78)">n</text><text class="cls-2" transform="matrix(0.89, -0.45, 0.45, 0.89, 180.72, 74.25)"> </text><text class="cls-2" transform="translate(190.76 68.89) rotate(-22.93)">P</text><text class="cls-2" transform="translate(213.02 59.46) rotate(-17.73)">a</text><text class="cls-2" transform="matrix(0.97, -0.24, 0.24, 0.97, 235.07, 52.61)">t</text><text class="cls-2" transform="translate(245.93 49.88) rotate(-11.34)">r</text><text class="cls-2" transform="translate(258.21 47.24) rotate(-7.6)">e</text><text class="cls-2" transform="translate(279.45 44.38) rotate(-2.89)">o</text><text class="cls-2" transform="matrix(1, 0.04, -0.04, 1, 301.02, 43.21)">n</text></g></g></svg>