<svg xmlns="http://www.w3.org/2000/svg" viewBox="0 0 948.06 680.08"><defs><style>.cls-1{fill:#001329;}.cls-2{fill:gold;}</style></defs><title>Recurso 13</title><g id="Capa_2" data-name="Capa 2"><g id="Capa_1-2" data-name="Capa 1"><path class="cls-1" d="M14.05,87.07c-8.54-2-5.91-6.9-5.26-11.82,0-2.3-.65-4.93-.33-7.55a24.91,24.91,0,0,1,1-6.9c.33-1,2.3-2,2.63-2,3.28,1.65,3.94-.65,5.25-2,4.59-5.59,6.89-11.49,4.59-18.72a2.8,2.8,0,0,1,0-1.64c1-2.3-.32-6.89,3.62-6.56,2,0,4.26,3.94,5.58,6.56.65,2,0,4.93-.33,7.22-.66,3.29.33,5.26,2.62,7.88,5.59,5.58,9.85,12.15,10.84,19.7.65,5.25-5.58,12.8-10.84,15.1a3.87,3.87,0,0,0-2,3.28c-1.64,7.23,1.32,13.46,5.26,19.37,5.25,7.88,7.88,16.09,6.24,25.61-1,5.25-2,11.16,1,16.74,3.28,5.91,1,12.8-.66,18.71-3.28,11.49-3.61,23-4.26,34.47-.33,13.46-.66,26.59-.66,39.72a24,24,0,0,0,1.31,8.21C42,259.09,41,265,38,271.23a9.58,9.58,0,0,0-.66,3c-.32,8.21-.65,16.08-1,24.29-.33,7.22-3.61,11.16-11.16,12.8-4.6.66-8.54,2.3-13.46-.65-4.27-2.3-6.57-4.6-6.57-8.87.33-14.11,1-27.9,1-42-.33-12.8,1.31-25.6-2.63-38.08-2.63-8.2,0-16.41,2.3-24.62a11.07,11.07,0,0,0-1.31-9.52,37,37,0,0,1-4.27-9.85c-1-3.28,1-5.91,3.61-7.88,4.92-3.61,6.24-7.87,5.58-13.45-1.31-7.56-3.94-15.11-1.64-22.66.33-.65,0-1.31.33-1.64,6.23-5.25,3.94-13.13,7.22-19a80.65,80.65,0,0,0,6.56-16.74c1-2.3.66-4.92,1-8.21C19,89.69,16.67,87.72,14.05,87.07Z"/><path class="cls-1" d="M105.64,63.1c-1,3,0,7.22-5.25,7.55-4.93,0-4.27-4.26-4.93-7.22-1.31-5.58-3.28-9.52-8.86-11.82-3.94-1.64-7.22-6.23-10.18-9.85-2.63-3.61-2-6.56,1.64-9.84C89.22,21.74,102.68,20.1,116.47,17.8c17.73-2.63,35.46-5.91,53.18-7.88,6.9-.66,14.12,1.64,21,3.28,1.65.33,3,3.29,3.29,5.26a57.47,57.47,0,0,1,2.29,13.13c.33,1-.65,2.95-1.64,3.94-2,2-3.94,3.28-5.91,4.92-4.92,4.27-7.22,9.52-6.56,16.74a40.89,40.89,0,0,1-2,14.12c-.66,2.63-3.61,4.27-5.58,6.24-2-2.63-4.93-5.26-5.25-8.21-.66-4.6.32-9.52.65-14.44.33-1.65,0-3.62,0-5.91H158.16c0,4.92.33,9.84,0,14.77,0,1.64-1.31,3.28-2,4.92-1.64-1.31-4.26-2-4.92-3.94-1.31-2.95-1.64-6.56-2.63-10.17a4.7,4.7,0,0,1-2-.66c-1,2-2.95,3.94-2.95,6.24-.33,11.49,0,23.31-.33,35.12,0,3.94,0,8.54-1.31,12.15-4.6,12.15-3.61,25-5.25,37.42-2,15.43,1.64,29.22,3.93,44,1,6.23-.32,13.45-2.95,19.36-4.27,9.52-2.95,19-2,28.89a35.08,35.08,0,0,1,0,10.18c-2,13.46-4.27,26.92-6.57,40.38-.65,2.62-1,5.58-2.29,8.21-.66,1.64-2.63,3.93-3.61,3.93-1.65-.32-4.27-2-4.93-3.93-3-7.88-1.64-15.43,3-22.33-11.17-7.55-15.76-18-17.73-32.17-1.64-12.47,2.62-23.64,2.62-35.78-.32-9.52,2-19-2.62-28.56-2.3-4.93-.33-13.46,1.64-19.37,4.27-12.81,7.22-25.28,3.28-39.4-1-3.93.66-9.19,1.32-14.11.65-4.6,1.64-9.19,2-14.12,1-11.49,1.31-23.31,1.64-35.45C107.28,54.24,106.62,59.16,105.64,63.1Z"/><path class="cls-1" d="M282.91,148.13a16.71,16.71,0,0,0-.33,9.85c2,6.56-.66,12.47-2.95,18.71-2,4.92-1.64,10.18-3.61,14.77-3.29,6.9-.33,14.12-1.65,21.34-.65,2.63,1.65,5.58-2,7.88-1.31,1-3.61,2.3-5.25,2-1.31,0-2.62-2-3.28-3.28a16.24,16.24,0,0,1-1.64-5.26h-1c-2.3,10.18-4.26,20.36-6.56,30.2-.33,1.32-3,3.29-4.27,3.29-1.64,0-3.28-1.64-5.58-3-3.61,1-3.28,3.61-3,6.24a91.83,91.83,0,0,1-.32,16.41c-.33,1.32-3.94,3-5.91,4.27-1.32-1.64-3.29-3.28-3.94-4.92-.66-2-1-4.6,0-6.57,3.61-6.23.33-11.82-.66-17.73-.66-5.25-6.57-7.87-11.16-11.16-5.25-3.61-11.16-6.89-16.09-11.16-2-1.31-2.62-4.92-2-6.89,3.61-7.22-1-13.46-3.61-20a101.29,101.29,0,0,1-9.52-44.64,31.74,31.74,0,0,1,7.55-20c1.64-2.3,3.29-4.27,4.93-6.56a17.58,17.58,0,0,1,1.64-6.9c2-3.28,5.58-4.92,7.88-7.55a57.67,57.67,0,0,1,3.61-4.6c.66-1,.66-2.29,1.31-3.61,1.31-1.64,3.28-2.29,4.93-2.95a29.45,29.45,0,0,1,11.81-1.64H233c6.57-3.28,13.79-6.24,20.68-9.19A21.37,21.37,0,0,1,258,84.11c7.22-1,12.8,1,15.76,6.57a74.63,74.63,0,0,1,7.22,17.73c1.31,5.58,1,11.16,1.64,16.74a7,7,0,0,0,.66,3.61C287.18,135,285.86,141.56,282.91,148.13Zm-24.62-24.95-6.9,2.3c-1.31-3.94-2.62-7.55-3.94-11.16a10.08,10.08,0,0,1-3.28-.33c-1.31,2-2.95,3.94-3.28,5.91-.66,3.93-.33,8.2-1,12.14-.32,1.32-2.62,2.63-4.26,3.61-1-1.31-2.3-2.29-2.63-3.61-.66-1.64-.33-3.61-.33-5.25-.33,0-1-.33-1.31-.33-1.31,1.31-3.61,2.63-3.94,3.94a76.93,76.93,0,0,0-2.63,15.1c-.33,3,1.32,5.91.66,9.19-.66,6.9-3.28,14.12-3.61,21a166.39,166.39,0,0,0,1,28.56c1,5.59,3.94,11.17,5.91,17.4a23.2,23.2,0,0,0,2.3-1.31c3.28-12.15,6.89-24.29,10.51-36.44a101.85,101.85,0,0,1,4.92-12.8c1.64-4.6,5.25-8.87,5.91-13.13,1-5.91,2-11.82,4.27-17.73C258.29,134.67,257.63,129.09,258.29,123.18Z"/><path class="cls-1" d="M414.22,187.85c0,5.58,0,10.83-.33,16.41a11.92,11.92,0,0,1-1,4.93c-.33,2.63-1,5.58-1.64,8.53-.66,4.93-.66,12.81-4.27,17.07a44.35,44.35,0,0,1-1.64,11.49,141.4,141.4,0,0,1,.66,20.36c-.33,5.91-9.52,5.91-9.2,0V258.1h-.32c-1-2-3.29-4.26-3.29-6.23.33-11.82,1.64-23.64,2-35.13v-2c-.65-.33-1-1-1.64-1.64l-4.92-8.87-2,3.94c-3.61,6.57-4.93,15.1-14.12,18.72-1-4.6-1.64-8.21-2.63-11.82-6.89,5.91-14.44,11.82-21.33,18.38-7.23,6.57-7.55,15.76-6.9,24.62.33,5.58-1.31,8.87-8.53,10.18-.33-6.24-1-12.15-1.32-18.06-7.22,2-11.81-1.64-16.08-6.89-9.19-10.83-11.16-23-8.87-36.77.66-4.59-1-9.85-1.31-14.77-.33-2.63-1.31-5.91-.33-8.21,6.9-15.43,16.09-29.87,20.68-46,3.29-11.82,13.79-12.47,20-19.37,6.57-7.22,16.09-10.5,25.93-11.49,6.24-.65,9.52-6.56,8.54-13.13-1.64-7.22-2.3-14.77-3.28-22.32,0-1-.33-2,0-2.63,7.22-16.08,1.31-33.15,2.62-49.57.33-5.25,1.64-8.53,7.23-9.85a47.79,47.79,0,0,1,7.22-2.95c1.64-.33,4.92-.66,5.58.33,4.92,7.88,11.16,14.77,8.86,25.28-.65,2.95.33,6.23,0,9.52-.33,7.55-.65,15.1-1.31,22.65-.33,4.59-.66,9.52-1.31,14.44-.33,5.25,1.64,9.52,5.58,13.13,7.22,6.57,7.22,8.87,1.31,16.09-5.58,7.22-3.61,14.44-2,22,1.64,8.54,4.92,16.75,0,25.94-1.64,2.62,2.3,8.21,2.63,12.47C414.22,174.72,414.22,181.28,414.22,187.85Zm-28.56-64c-4.92,3.62-4.92,3.62-4.92,9.2,0,2.3,0,5.25-1,7.55-1.64,2.62-4.59,5.58-7.22,1.64-4.27-7.22-5.91-3-8.21,1-4.26,7.23-7.22,16.09-13.13,21.34-7.88,6.9-12.14,14.77-15.43,24-3.28,9.52-6.56,19-5.25,29.87,2.63-2.63,3.94-5.58,5.58-8.53,4.6-6.57,9.19-13.14,14.12-19.37,2.62-3.61,5.91-6.24,8.86-9.52,4.27-4.93,4.27-12.48,11.16-16.42C386.65,155.68,391.24,142.22,385.66,123.83Z"/><path class="cls-1" d="M538,148.13a16.72,16.72,0,0,0-.32,9.85c2,6.56-.66,12.47-3,18.71-2,4.92-1.64,10.18-3.61,14.77-3.28,6.9-.33,14.12-1.64,21.34-.66,2.63,1.64,5.58-2,7.88-1.31,1-3.61,2.3-5.25,2-1.32,0-2.63-2-3.29-3.28a16.49,16.49,0,0,1-1.64-5.26h-1c-2.3,10.18-4.27,20.36-6.57,30.2-.33,1.32-2.95,3.29-4.27,3.29-1.64,0-3.28-1.64-5.58-3-3.61,1-3.28,3.61-2.95,6.24a90.91,90.91,0,0,1-.33,16.41c-.33,1.32-3.94,3-5.91,4.27-1.31-1.64-3.28-3.28-3.94-4.92-.66-2-1-4.6,0-6.57,3.61-6.23.33-11.82-.66-17.73-.65-5.25-6.56-7.87-11.16-11.16-5.25-3.61-11.16-6.89-16.08-11.16-2-1.31-2.63-4.92-2-6.89,3.61-7.22-1-13.46-3.61-20a101.15,101.15,0,0,1-9.52-44.64,31.63,31.63,0,0,1,7.55-20c1.64-2.3,3.28-4.27,4.92-6.56a17.75,17.75,0,0,1,1.64-6.9c2-3.28,5.58-4.92,7.88-7.55a57.67,57.67,0,0,1,3.61-4.6c.66-1,.66-2.29,1.32-3.61,1.31-1.64,3.28-2.29,4.92-2.95a29.52,29.52,0,0,1,11.82-1.64h.65c6.57-3.28,13.79-6.24,20.69-9.19A21.09,21.09,0,0,1,513,84.11c7.23-1,12.81,1,15.76,6.57A74.63,74.63,0,0,1,536,108.41c1.32,5.58,1,11.16,1.65,16.74a7.13,7.13,0,0,0,.65,3.61C542.25,135,540.94,141.56,538,148.13Zm-24.62-24.95-6.89,2.3c-1.31-3.94-2.63-7.55-3.94-11.16a10,10,0,0,1-3.28-.33c-1.32,2-3,3.94-3.29,5.91-.65,3.93-.33,8.2-1,12.14-.33,1.32-2.63,2.63-4.27,3.61-1-1.31-2.3-2.29-2.63-3.61-.65-1.64-.32-3.61-.32-5.25-.33,0-1-.33-1.32-.33-1.31,1.31-3.61,2.63-3.94,3.94a76.92,76.92,0,0,0-2.62,15.1c-.33,3,1.31,5.91.65,9.19-.65,6.9-3.28,14.12-3.61,21a166.39,166.39,0,0,0,1,28.56c1,5.59,3.94,11.17,5.91,17.4a21,21,0,0,0,2.29-1.31c3.29-12.15,6.9-24.29,10.51-36.44a101.85,101.85,0,0,1,4.92-12.8c1.65-4.6,5.26-8.87,5.91-13.13,1-5.91,2-11.82,4.27-17.73C513.36,134.67,512.71,129.09,513.36,123.18Z"/><path class="cls-1" d="M673.24,235.78c1.31,3.94,2.29,8.53,1.64,12.47-1.32,5.91-4.93,11.49-6.9,17.07-1,3.62-.65,7.88-.65,11.5C667,282.4,667,288,667,293.56c.33,4.92-2.3,7.22-8.54,8.86,0-5.25-1-10.18-.33-14.77,1.32-12.15,3-24-2.29-35.78-4.6-10.18-8.54-21-12.81-31.19-2.3-6.24-5.25-12.15-2.62-19,3.94-9.85-2-19.37-3-28.89s-4.59-18.06-8.21-26.92c-2.62-7.22-3.94-16.41,1.32-25,3.94-7.22,5.25-16.41,1-24.29-6.24-11.49-2.62-22.65,0-34.14a9.05,9.05,0,0,0-.65-5.91c-3.29-4.6-1.65-8.87.32-13.79a77.63,77.63,0,0,0,3.94-15.1c1-9.52,9.2-18.71,18.72-19,2,0,5.25,3,6.23,4.92A59.13,59.13,0,0,1,665,30c.33,6.89-1.32,13.78-1.64,21,0,5.25-.66,10.83.65,15.75,2.63,9.85,4.6,19,1,28.89a8.12,8.12,0,0,0,.33,6.24c4.26,7.55,3.28,15.1,1.64,23-2.3,13.79-5.26,27.58-5.91,41.69a219.33,219.33,0,0,0,2.3,44C664.7,219,670.28,227.24,673.24,235.78Z"/><path class="cls-1" d="M791.75,148.13a16.63,16.63,0,0,0-.33,9.85c2,6.56-.66,12.47-3,18.71-2,4.92-1.64,10.18-3.61,14.77-3.28,6.9-.33,14.12-1.64,21.34-.66,2.63,1.64,5.58-2,7.88-1.31,1-3.61,2.3-5.25,2-1.31,0-2.63-2-3.28-3.28a16.27,16.27,0,0,1-1.65-5.26h-1c-2.3,10.18-4.27,20.36-6.57,30.2-.33,1.32-3,3.29-4.26,3.29-1.65,0-3.29-1.64-5.58-3-3.62,1-3.29,3.61-3,6.24a90.91,90.91,0,0,1-.33,16.41c-.33,1.32-3.94,3-5.91,4.27-1.31-1.64-3.28-3.28-3.94-4.92-.65-2-1-4.6,0-6.57,3.61-6.23.33-11.82-.65-17.73-.66-5.25-6.57-7.87-11.16-11.16-5.26-3.61-11.17-6.89-16.09-11.16-2-1.31-2.63-4.92-2-6.89,3.61-7.22-1-13.46-3.61-20a101.15,101.15,0,0,1-9.52-44.64,31.74,31.74,0,0,1,7.55-20c1.64-2.3,3.28-4.27,4.92-6.56a17.6,17.6,0,0,1,1.65-6.9c2-3.28,5.58-4.92,7.87-7.55,1.32-1.64,2.3-3.28,3.61-4.6.66-1,.66-2.29,1.32-3.61,1.31-1.64,3.28-2.29,4.92-2.95a29.52,29.52,0,0,1,11.82-1.64h.66c6.56-3.28,13.78-6.24,20.68-9.19a21,21,0,0,1,4.27-1.32c7.22-1,12.8,1,15.75,6.57a74.67,74.67,0,0,1,7.23,17.73c1.31,5.58,1,11.16,1.64,16.74a7.13,7.13,0,0,0,.65,3.61C796,135,794.7,141.56,791.75,148.13Zm-24.63-24.95-6.89,2.3c-1.31-3.94-2.63-7.55-3.94-11.16A10,10,0,0,1,753,114c-1.32,2-3,3.94-3.28,5.91-.66,3.93-.33,8.2-1,12.14-.33,1.32-2.63,2.63-4.27,3.61-1-1.31-2.3-2.29-2.62-3.61-.66-1.64-.33-3.61-.33-5.25-.33,0-1-.33-1.31-.33-1.32,1.31-3.62,2.63-3.94,3.94a76.2,76.2,0,0,0-2.63,15.1c-.33,3,1.31,5.91.66,9.19-.66,6.9-3.29,14.12-3.62,21a166.39,166.39,0,0,0,1,28.56c1,5.59,3.94,11.17,5.91,17.4a23.2,23.2,0,0,0,2.3-1.31c3.28-12.15,6.89-24.29,10.5-36.44a101.93,101.93,0,0,1,4.93-12.8c1.64-4.6,5.25-8.87,5.91-13.13,1-5.91,2-11.82,4.26-17.73C767.12,134.67,766.47,129.09,767.12,123.18Z"/><path class="cls-1" d="M914.85,133.36a6.49,6.49,0,0,1,.66,2.95v1l-1,2a4.36,4.36,0,0,1-1.31,1c-.66.66-1.64,1.31-2,2l-1.31,1.31-1.31-1.31c-.33-.33-1-.66-1.32-1.31a5.9,5.9,0,0,1-1.64-1.32c-.33-.65-.66-1-.66-1.64a12.61,12.61,0,0,1-.32-3.28v-3c-9.52-4.92-18.39-10.5-27.91-14.44-1.31,1-2.95,2.3-5.25,4.27l-2.3,1.64-.66-2.63c-1-3.28-1.64-5.91-2.29-8.53h-8.54a70.93,70.93,0,0,0-8.53.33h-.33c-.33,0-.66.32-1,.32a1.15,1.15,0,0,1-.33.66V115c-.32,3.28-.65,6.57-1,10.18.33.33.33.33.33.65a1,1,0,0,1,.33.66c.32,0,.65.33,1,.33a15,15,0,0,1,3.28,1.64,5.46,5.46,0,0,1,2,2c.33.66.66,1.31,1,1.31a.32.32,0,0,0,.33.33h1c1.64,0,3.28-.33,5.25-.33h1a10.7,10.7,0,0,1,4.6,1.32c1.31.65,2.29,1.31,3.61,2a5.33,5.33,0,0,0,2.95,1c1.31.33,2.3.33,3.61.66A41.15,41.15,0,0,1,886,138a39.52,39.52,0,0,1,8.21,2.63,13.24,13.24,0,0,1,3.61,2.3,26.43,26.43,0,0,1,6.9,6.56,37,37,0,0,1,3.61,8.21,30.15,30.15,0,0,0,1.64,3.28,34,34,0,0,0,1.64,3.94,6.53,6.53,0,0,1,.66,2.95,10,10,0,0,1,.65,3.29,5.59,5.59,0,0,1-.33,2.3,42.82,42.82,0,0,0-2.95,15.43,36.13,36.13,0,0,0,1,8.53v2.95a9.38,9.38,0,0,1-2,6.24,16.3,16.3,0,0,1-6.24,4.6.32.32,0,0,0-.33.33c-.33.33-.66.33-.66,1-.65.66-1,1.64-1.64,2.3a22.65,22.65,0,0,0-1,2.63,13.83,13.83,0,0,1-1.32,3.28l-2,2a31.93,31.93,0,0,0-7.55,7.22,32.64,32.64,0,0,0-3.28,8.86,10.92,10.92,0,0,1-2,3.94,15.47,15.47,0,0,0-2.3,3.29l-.65,1-5.91-.66v-1.64c-.33-2.95-.33-5.58-.66-8.53h-.33a.32.32,0,0,0-.33.33,49.12,49.12,0,0,1-3.28,5.58c-1,2-2.3,3.61-3,5.58a11.59,11.59,0,0,0-.66,3.28,9.86,9.86,0,0,0,1.64,4.93,9.52,9.52,0,0,1,2,5.25,6.12,6.12,0,0,1-.66,2.62,4.72,4.72,0,0,1-1.64,2c-1,1.32-2.62,2.3-4.92,3.29l-.66.32-1-.65a20.36,20.36,0,0,1-3.94-3,7.46,7.46,0,0,1-2.3-3.28,6.07,6.07,0,0,1-.66-2.3,9.52,9.52,0,0,1,.66-2.95,12,12,0,0,1,1.31-3,20.54,20.54,0,0,0,1.64-7.22,11.77,11.77,0,0,0-3-7.88,18.54,18.54,0,0,0-7.88-4.59c-.33.32-.65,1.31-1.31,1.64a9.15,9.15,0,0,1-2,1.64,7.71,7.71,0,0,1-2.63.66,3.7,3.7,0,0,1-2.62-1,4.51,4.51,0,0,1-1.65-2.63,12.87,12.87,0,0,1-1.31-5.9,25.17,25.17,0,0,0-.66-4.93,7.76,7.76,0,0,0-2-3.61,12,12,0,0,0-3.29-2.3,4.63,4.63,0,0,1-1.31-1c-.33-.33-.33-1-.66-1.32a7.16,7.16,0,0,1-.33-2.62,5.57,5.57,0,0,1,.33-2.3,18.51,18.51,0,0,0,1-5.91,11.11,11.11,0,0,0-2-6.89,8.31,8.31,0,0,1-.66-3.94V190.8c0-1,.33-2,.33-2.62a5.76,5.76,0,0,0,.33-2v-1a6,6,0,0,1-.66-2.29,4.13,4.13,0,0,1,.33-2c.33-.33.66-1,1-1.32a7.18,7.18,0,0,1,3-2.29l.33-.33c0-.33.33-.66.33-1.32a11.12,11.12,0,0,1,1.64-3.61,14.16,14.16,0,0,1,2-2.3,13.39,13.39,0,0,0,2.29-1.31l1.32-1.31,1.31,1.64.66.66a2.51,2.51,0,0,1,1.64.65,4,4,0,0,1,1.64,1.64,17.56,17.56,0,0,1,2,7.88,15.87,15.87,0,0,1-.33,3.94c-.33,1-.66,1.64-1,2.63,0,.66-.33,1.31-.33,2v.33a2.46,2.46,0,0,0,.33,1.31c0,.66.32,1,.65,1.64,1.65,3.28,3.29,6.57,5.26,9.85a11.69,11.69,0,0,0,2.29,3.28,9,9,0,0,0,2.63,2.3,3.3,3.3,0,0,1,1.64,1.31,1,1,0,0,1,.33.66c1.64.66,2.95,1.31,4.27,2a15.53,15.53,0,0,1,2.3,1.31,6.83,6.83,0,0,0,2,1.32l.33.32c1.32-.65,2.3-1,3.61-1.64a7,7,0,0,0,2.63-1.64c.33-.65.66-1,.66-1.64a18.6,18.6,0,0,0,.33-4.27,26.36,26.36,0,0,1,1.31-4.92,8.46,8.46,0,0,1,2.3-3.61l3-3a1.15,1.15,0,0,0,.66-.33c0-.32-.33-.32-.66-.32a5.26,5.26,0,0,1-2.3-2.3,4.08,4.08,0,0,1-1.31-2.63,9.79,9.79,0,0,1,1-3.28l2.3-2.3a5.76,5.76,0,0,0,1.64-2.3,25.73,25.73,0,0,0,1.32-2.95c.33-.33.33-.33.33-.66a19.35,19.35,0,0,0-1.65-6.24c0-.32-.32-.65-1-1.31-.33-.33-.66-.33-1.31-.66a18.19,18.19,0,0,0-4.93-1.31c-1.64-.65-3.94-1.31-5.58-2.62-.65-.33-1-.66-1.64-1a9.92,9.92,0,0,1-2.3-1.64,4.63,4.63,0,0,1-1-1.31c-.66,0-1.32.32-2,.32H860c0,.33-.33.66-.33,1.32a5.94,5.94,0,0,1-1.31,2.95l-2,2c-1.32.66-2.63,1-4.27,1.64l-1.64.33-.33-1.64a39.84,39.84,0,0,1-2.63-6.57,10.43,10.43,0,0,1-.65-2.62V156a12,12,0,0,0-4.93-2.63,5.07,5.07,0,0,1-2.62-2c-.33-.33-.33-1-.66-1.64-2-.66-4.27-1.64-6.56-2.3a4.05,4.05,0,0,1-1.32,2.63,8.21,8.21,0,0,1-2.95,1.31h-.33a4.21,4.21,0,0,1-3-1.31,4.59,4.59,0,0,1-1.64-3.29v-3.93c0-1.32-.33-1.65-.33-3a2.53,2.53,0,0,1-.32-1.31c-1.64-3.28-3.29-6.24-4.6-9.52a29.52,29.52,0,0,1-2.95-10.51v-1.31a10.09,10.09,0,0,1,1-4.27,12.78,12.78,0,0,1,3.61-3.61c3.28-2,5.91-4.92,8.54-7.88,2.62-3.28,6.23-5.25,9.85-7.22,3.61-1.64,7.55-3,10.83-4.6a20.43,20.43,0,0,1,10.18-2.62c3.61,0,6.89,1,10.17,1.64a46.6,46.6,0,0,0,9.19,2h1.32c.33.33.65.33,1.31.66A34.9,34.9,0,0,1,885,93a91.89,91.89,0,0,1,10.18,3.94c2,.65,3.61,1.64,4.59,2a.32.32,0,0,1,.33.32A66.25,66.25,0,0,0,907,102.5a18.49,18.49,0,0,1,4.93,3.28,9.67,9.67,0,0,1,2.3,3.94,9.28,9.28,0,0,1,.32,3,16.35,16.35,0,0,1-.32,3.94,20.16,20.16,0,0,0-.33,4.6c0,3.28.33,6.56.65,10.18A11.3,11.3,0,0,1,914.85,133.36Z"/><path class="cls-1" d="M71,574.9c.33,6.57,4.93,12.48,7.22,19,2.63,8.54-1,14.78-8.53,19.37-2.63,1.32-4.27,5.58-4.93,8.87-.65,4.92.66,10.17-.32,15.1-.33,3-3.62,7.55-5.91,7.55-5.91.33-6.24-5.25-4.93-9.19,2-6.24,1-10.18-3.28-15.43-7.22-7.88-11.16-16.75-9.19-28.89s2.95-25-2.63-37.43c-2-3.94-1-9.19-1-14.11,1-12.48,2.29-25.28,2.95-38.08.66-24,1-47.93,1.31-71.57.33-11.82,11.49-18.71,22.66-14.11,7.22,3,8.86,9.19,12.14,15.1,1.32,2.62,4.27,4.59,5.58,7.55a66,66,0,0,1,4.27,12.14C90.37,468.87,94,486.92,99.23,505c6.24-23.64,15.43-45.63,26.27-67,3.28-6.24,6.89-12.47,9.84-18.71,3-5.91,4.93-12.15,7.23-18.39,1-1.64,1.31-3.61,2.62-4.92,3.61-3.94,16.75-4.6,21.67-2.63,5.91,2.3,5.91,6.24,5.25,10.84-1.64,12.8-3.61,25.27-4.92,38.08-2.3,17.73-4.6,35.78,2.95,52.85,3.29,7.55.66,14.45-3.28,21.34a15.44,15.44,0,0,0-2.63,8.54c0,17.39-.65,34.79.33,52.19.33,6.9,4.27,13.46,5.58,20.36.66,4.26-.65,9.19-1.31,13.46-.33,3-1.64,5.58-1.64,8.2.33,13.79.33,27.25-7.55,39.73-1.64,2.62,1,7.87,1.31,12.14a26.37,26.37,0,0,1-1.64,8.54c0,.65-4.6.65-5.58-.33-1.64-2-2.63-4.93-3.61-7.55-.66-.66-.33-2,0-3,2.3-5.58,2-10.83-3.94-14.77-1-.66-1.64-2.63-2-3.28-3,1.31-5.58,2.3-8.21,3.61-1-3-3.28-5.91-3.28-8.54.33-15.1,1-30.2,1.31-45.3,0-3.94-1.64-8.21-2.3-12.15-.32-1.64-1-3.94-.32-4.92,5.9-9.85,2-20.68,2.62-31.19.33-15.1,0-30.53,0-46,0-4.59,1-9.52.66-14.77-3.61,14.77-10.51,28.23-8.21,44.32.66,6.89-1.64,15.1-4.59,21.67-3.94,8.2-7.56,16.08-7.23,25.6.33,3.61-1.31,7.55-3,10.83-.66,1.32-3.61,3-4.93,2.63-1.64-.66-4.26-3.28-4.26-4.59.65-12.15-7.55-20-12.48-29.55-6.89-12.8-13.79-25.61-16.41-40a26.41,26.41,0,0,0-3-7.88C70.67,534.2,70.34,554.55,71,574.9Z"/><path class="cls-1" d="M314.26,571c4.92,8.53,4.27,17.39-.33,24.62-6.89,11.49-6.89,24-6.57,36.44,0,7.22-1,9.52-7.87,12.47-1-4.6-2.3-9.19-3-13.79-1.64-8.86-2.63-17.72-3.94-26.59,0-.66.33-1.64,0-2C286,597.23,287,590,287.67,582.78l-1-2a11.06,11.06,0,0,1-.33-3.28V574.9H286a1,1,0,0,1-.66-.32c-.66-.33-1.64-.33-2.63-.66h-1.31c-1,3.94-1.64,7.55-2.3,11.49-.33,1.64-.33,3.94-1.31,5.25s-3.28,2-4.93,3c-.65-1.64-2-3.29-2-5.26a20,20,0,0,1,.33-4.26,37.54,37.54,0,0,1-3.28,6.23,26.85,26.85,0,0,1-5.25,3.94,6.91,6.91,0,0,0-1.64,1c-2,10.5-2.63,21-4.6,31.51-.33,3.29-2.63,6.24-3.94,9.2l-2.63-.66v-17.4a5.44,5.44,0,0,0-1.64-.66,20.25,20.25,0,0,0-3,4.27c-3.61,9.19-9.52,15.76-18.06,18.06-3.94,1.31-3.28,2.95-2.95,6.56a64.62,64.62,0,0,1,.33,17.73c-.33,2-3.94,3.61-6.24,5.58-1-2.63-3-4.92-3-7.22-.66-4.6-.33-9.52-.33-14.12.33-4.59-.66-7.88-3.94-11.16-4.6-4.92-7.88-5.25-13.46.33-1.32-7.55-3.28-13.79-3.28-19.7,0-7.55,3.28-15.1,2.62-22.32-1-7.88,2-12.81,5.91-18.06,3.94-5.58,8.21-10.83,12.15-16.74,2.29-3.28,4.92-7.22,5.58-11.16,2.62-12.48,10.17-20,18.05-27.25,9.85-9.52,19.7-18.71,29.88-27.9,2.29-2,4.92-2.63,7.55-4.27v-1c4.59,1,8.53-5.91,13.13-6.89,5.58-1.31,9.85,2.3,14.11,6.24A45.19,45.19,0,0,0,309.66,507c4.6,7.22,5.58,14.12,1.64,22-1,1.65-.65,3.94-.32,5.59,2.95,8.2,2.29,16.08,1,24.62A18.78,18.78,0,0,0,314.26,571Zm-33.49-50.56a18.56,18.56,0,0,0-10.83,10.83c-2.63,6.57-4.27,14.78-11.49,16.75-3.94,1.31-5.25,3.93-6.89,7.55-2,3.94-3.94,8.53-6.9,10.83-12.8,9.85-19,24-21,41.36,1.32-1.31,3-2.3,3.94-3.94,16.09-20.68,31.84-41.69,47.93-62.37C280.44,535.18,283.73,529.27,280.77,520.41Z"/><path class="cls-1" d="M433.42,517.13c.66,6.23-1.31,12.8-2.62,19.37-.33,1.31-2.3,2.29-3.94,3.61-5.58-3.29-3.61-7.55-3.28-11.49a125.82,125.82,0,0,0-.66-15.76c0-1.31-2.63-2.63-3.94-3.94a7.51,7.51,0,0,0-1.64,1c.66,1.65,2,3.29,2,5.26a26.31,26.31,0,0,1-1.64,8.53c-.33,1-3,1.32-4.6,1.64-.66-1-1.64-2.29-1.64-3.61-.33-3.28,0-6.56,0-10.17-6.57,5.58-8.21,15.1-6.24,21.33a82.74,82.74,0,0,1,2.63,11.49c.65,3.62-1,5.91-6.57,6.9-.33-5.58-1-11.16-1.31-17.07H398.3c-3,8.53-7.55,17.07-3.28,26.26,1.64,3.28.32,5.91-3.29,7.55s-3.61,3.61-3,6.57c.65,3.28,0,6.56-.66,9.84a35.84,35.84,0,0,1-3.28,8.21c-.66,1.31-1.64,2.63-2.63,4.27a7.82,7.82,0,0,0-2.3-1.31,46.22,46.22,0,0,0-2.62-5.91h-1.64c-.33,3.94-1,8.2-1.64,12.14a32.17,32.17,0,0,0-.66,5.58,17.29,17.29,0,0,0,2.3,11.17c2,2.95,1,7.22.33,10.83-1,3.61-2,6.89,0,10.5,1.31,3,.65,6.57,0,9.85-.33,1.32-3.62,2-5.26,3.29-1.31-1.32-3-2.3-3.28-3.62-1.64-5.58-3-11.16-4.27-16.74-.66-1.31-1-3.28-2.3-4.27-6.56-4.92-7.55-10.83-5.25-17.72.66-2-.33-4.6-1.31-6.9-1.31-3.94-4.6-7.22-2.3-11.81a2.72,2.72,0,0,0-.66-2.63c-4.92-5.58-3.61-11.16-2.29-17.4,1-5.91.65-12.15.65-18.38,0-1.32-2.3-2.3-2.95-3.94-3.29-6.9-3.29-14.45-3.61-22-.33-11.49,2.29-22.65,6.89-33.48,2-4.93,3.94-9.85,6.24-14.45,1-1.64,3-2.95,3.94-4.27,4.26,3,9.19,4.93,10.83,8.21,1.64,2.63,3,4.6,5.91,6.24,1,.66.33,3.28-.33,4.6-.33,1.31-2,2.62-2.95,3.93-4.93,5.26-6.57,10.18-3,16.42,1.64,2.95,2,6.56,3,9.52A2.48,2.48,0,0,0,375,525c0-8.87,9.52-12.81,14.12-19.37,3.61-4.93,8.86-8.54,13.46-12.48s10.17-3.61,15.43-3.28c5.25,0,8.2,3.61,9.52,7.55C429.81,503.67,432.77,510.23,433.42,517.13Z"/><path class="cls-1" d="M576.23,468.87c.32.33.32.66.65,1.31a27,27,0,0,1-5.25,3c-7.55,2.95-14.12,6.56-19.7,12.14-1.64,1.64-4.92,2.63-7.55,3.29-5.91,1.64-8.86,4.59-8.86,9.52V503c.66,4.6-.33,8.54-8.54,9.85-1-5.25-2.62-10.83-3.94-16.74-3.61,1.64-6.89,2.95-10.5,4.59,1.64,3.94,2.3,7.55-4.27,9.52a23.22,23.22,0,0,0-2.63-5.91,3.92,3.92,0,0,0-2.29-2.29,3.76,3.76,0,0,0-3,2c-2.3,3.93-6.23,7.87-2.62,13.13,1.31,2,.32,4.92.32,7.55.33,3.28-1,6.89,3,9.52,1,.65.66,3.28.33,4.92-2,8.54-4.27,16.74-6.24,25.28a9.14,9.14,0,0,0,1,5.91c3,5.58,2,11.16.33,16.74-.33,1,.66,3,1.64,4.27,2,2.95,4.27,5.58,5.91,8.86,3,4.93,5.58,9.85,8.87,16.09,7.55-6.9,15.1-11.82,19-18.39,2-3.61,3.28-7.55,6.89-10.5,3.28-2.63,6.24-5.58,9.52-8.21a2.46,2.46,0,0,1,.33-1.64,1.15,1.15,0,0,0,.33-.66,1.18,1.18,0,0,0,.33-1,8.63,8.63,0,0,0,.65-2.3,13.69,13.69,0,0,1,3-4.59c2-2.3,4.92-3.94,7.55-5.59a3.15,3.15,0,0,1,3.94,1v.66c.33,0,.65.32,1,.65-1,2.63-2,5.58-2.95,8.21-2.63,5.91-5.58,11.49-7.22,17.73s-2,12.47-2.63,19c-.33,2.3-.33,4.92-2,7.22v4.6a2.54,2.54,0,0,1-2.3,2.62,2.4,2.4,0,0,1-3-2c-1-2.3-1-4.92-1.64-7.22-.33-.33-.33-.66-.66-1v-.66h0a.32.32,0,0,1-.33-.33l-.33-.33V614a29.75,29.75,0,0,0-2.95,5.25c-1,1.64-1.32,3.94-3,5.25-3.94,4.6-8.86,8.54-12.47,13.47-2,2-2,5.25-2.3,8.2,0,5.91.66,11.82.33,17.73,0,1.64-3.28,3-5.25,4.6-1-1.65-2.63-3-3-4.6-.66-3.94,0-8.21-1-12.15a22,22,0,0,0-1.64-6.23,3,3,0,0,1-1.65-.33,14.32,14.32,0,0,1-4.26-4.6v-.33h-.66c0,1,.33,1.64.33,2.63a13.39,13.39,0,0,0,.33,3.61v2a2.44,2.44,0,0,1,.32,2.95c-.65,1.32-2.62,2-3.61,1-1.64-1-2-2.3-2.29-3.94a15.91,15.91,0,0,0-.33-3.94,15.91,15.91,0,0,0-.33-3.94v-.33c-1-1-1-2.29-1.31-3.61,0-1-.33-2-.33-3.28,0-.33-.33-.66-.33-1.31v-.33h0c-.33-.33-.33-.66-.66-1-2.29-2-4.59-3.94-6.89-6.24-.66-.65-1-1.31-1.64-2a5.52,5.52,0,0,1,.33,2.29c.32,1.64-.33,3-1.65,3.29a2.74,2.74,0,0,1-3.61-2c-.65-3.61-1-7.23-1.31-10.84-5.58-6.23-8.21-13.78-10.83-21.34a16,16,0,0,0-.33,3.94,44.17,44.17,0,0,0,1.31,9.2c.66,3.28-4.59,4.92-5.25,1.31a90,90,0,0,1-1.64-9.19c0-3,.65-5.91.33-8.87-.33-2.62-1.32-5.58-1.32-8.2-.33-3,0-5.91-1-8.54a3.45,3.45,0,0,1,.33-2.62A25.15,25.15,0,0,1,464,566c3.61-14.44,7.22-28.56,7.55-43.33,0-1.64-1.31-3-2.29-4.6-2,1.31-4.6,2-5.91,3.61-2.63,3.61-4.6,7.55-6.9,11.49l-2.95-.65c0-1.65-.33-3.29-.33-5.26,0-1.64,1.31-3.61.66-5.58-.66-2.62-.33-6.56-6.24-4.59-4.93,1.31-6.57-1.64-7.22-4.93-.33-3.28,1.31-5.25,5.58-4.92a4.35,4.35,0,0,0,3-.33c7.55-4.27,14.77-8.86,22-13.13,0-3.28-.66-7.22.32-11.16.66-4.6,3-8.87,4.27-13.13,3-8.87,5.58-17.4,8.21-25.94,1.31-3.94,2.3-7.88,8.86-8.53,3,0,5.91-2.3,8.87-3.62,1.31,2.63,1.64,4.6,2.62,5.26,5.58,3.28,7.88,8.86,5.58,15.1-3.61,10.83-7.22,21.67-11.16,34.14C525,478.72,550,471.82,576.23,468.87Z"/><path class="cls-1" d="M708.2,547.33c-3,4.27-5.91,8.21-8.54,12.15l-1,2c-1,2-2.63,3.29-3.94,4.93-.66,1-1.64,2.3-2.3,3.28-1.31,3-2.3,5.91-5.25,8.21-4.27,7.22-7.88,15.1-9.52,24h-2.3a83,83,0,0,0-5.25-7.88c-5.91,8.21-11.82,16.09-18.06,23.64-2,2.3-3.94,4.93-6.56,6.24-6.24,3.28-8.87,7.88-8.21,15.1,0,4.92,1.31,10.83-7.22,12.15l-1-12.81h-8.86c-6.57,0-10.51,8.21-7.88,15.43A42.94,42.94,0,0,1,615,667.81c.32,5.58-3,9.85-9.2,11.16-4.26-6.24-4.92-13.79-3.61-21,1.32-8.54.33-15.1-6.56-21.34-4.27-3.61-6.9-9.52-9.52-14.77-2.3-4.6-4.6-9.19-5.58-13.79a60.37,60.37,0,0,1-.33-7.55,3.32,3.32,0,0,1-1.32-2.3,91.3,91.3,0,0,1,4.27-18.71,23.55,23.55,0,0,1,3.29-7.88A60.85,60.85,0,0,1,592,564.4c.32,0,.32-.33.65-.33A152,152,0,0,1,599.21,547a84.88,84.88,0,0,1,1-12.8,9,9,0,0,1,3.29-5.91A9.78,9.78,0,0,0,606.1,527c.66-.65,1-1.64,1.64-2.29l3-5.91a24.52,24.52,0,0,1,4.92-5.25c3.94-3.29,8.54-6.57,12.81-9.52l3.28-2.3c2.3-2.3,4.59-4.6,7.22-6.9,6.89-5.91,15.1-8.53,24-8.86,5.26-.33,9.53,1.64,12.15,6.57,1,2,3.61,3.61,5.91,4.26,12.48,4.6,16.42,10.18,12.8,22.65-4.26,15.11-10.83,28.89-24.62,38.41-5.91,3.94-11.16,9.2-18.38,11.49-1.31.66-2,3.94-3,5.91-1.31,3-2.62,5.91-3.93,9.19-.66-.32-1-.65-1.65-.65-.65-2.3-1.31-4.93-2-6.57-4.92,2.63-9.52,4.93-14.11,7.55-1,.33-1.64,2.3-2,3.61-.66,2-.33,4.27-1.64,5.91-1.32,2-3.61,3.29-5.26,4.6a16.62,16.62,0,0,1-2.29-5.58,35.72,35.72,0,0,1-.33-6.57c-8.21,6.9-7.88,15.43-7.88,24.95,9.19,1,17.4-6.24,24-12.14a217.87,217.87,0,0,1,24.62-18.39c3.94-2.3,8.54-4.27,11.17-7.88,1.31-1.64,1.64-3.61,2.62-5.25a7.15,7.15,0,0,1,4.93-4.27,5.52,5.52,0,0,1,2.29-.33c1-1,2.3-2,3.29-2.95a53.23,53.23,0,0,0,6.56-5.58,1.21,1.21,0,0,0,.33-1,11,11,0,0,1,3.28-5.25,10.53,10.53,0,0,1,6.24-1.64h1l.33-.33L698,546a4.7,4.7,0,0,0,.66-2c2-3.29,6.89-5.26,10.5-3.62a2.67,2.67,0,0,1,1.64,1.65h.66a1.11,1.11,0,0,0-.33.65,2.18,2.18,0,0,1-.65,2.3A15.58,15.58,0,0,1,708.2,547.33Zm-88.31,17.73c14.12-12.15,28.89-24,42.35-36.44a32.61,32.61,0,0,0,3.61-3.29c-.33-.65,0-1.31.33-2a1,1,0,0,1,.33-.65c0-.33.32-.66.32-1v-1a1.21,1.21,0,0,1,.33-1c0-1-.33-1.64-.33-2.62,0-.33-.32-.33-.65-.33a4.36,4.36,0,0,1-1.31-1l-.33-.32c-.33-.66-.66-1.32-.33-2-.33-.33-.66-.66-.66-1a38.36,38.36,0,0,0-6.56,2.3,43.25,43.25,0,0,0-9.85,7.55A109.49,109.49,0,0,0,619.89,565.06Z"/><path class="cls-1" d="M820.47,527.3a6.54,6.54,0,0,1,.66,3v1l-1,2a4.63,4.63,0,0,1-1.31,1,10.77,10.77,0,0,0-2,2l-1.31,1.31-1.32-1.31c-.33-.33-1-.66-1.31-1.32a5.42,5.42,0,0,1-1.64-1.31c-.33-.66-.66-1-.66-1.64a12.24,12.24,0,0,1-.33-3.28v-3c-9.52-4.92-18.38-10.5-27.9-14.44-1.31,1-2.95,2.3-5.25,4.27l-2.3,1.64-.66-2.63c-1-3.28-1.64-5.91-2.3-8.54h-8.53a71.1,71.1,0,0,0-8.54.33h-.32c-.33,0-.66.33-1,.33a1.15,1.15,0,0,1-.33.66v1.64c-.33,3.28-.65,6.57-1,10.18.33.32.33.32.33.65a1,1,0,0,1,.32.66c.33,0,.66.33,1,.33a14.54,14.54,0,0,1,3.28,1.64,5.55,5.55,0,0,1,2,2c.33.66.66,1.31,1,1.31a.32.32,0,0,0,.32.33h1c1.64,0,3.28-.33,5.25-.33h1a10.74,10.74,0,0,1,4.59,1.31c1.32.66,2.3,1.32,3.61,2a5.29,5.29,0,0,0,3,1c1.31.33,2.3.33,3.61.66a41.15,41.15,0,0,1,9.19,1.31,39.52,39.52,0,0,1,8.21,2.63,13.62,13.62,0,0,1,3.61,2.29,26.57,26.57,0,0,1,6.89,6.57,36.52,36.52,0,0,1,3.61,8.21,30.45,30.45,0,0,0,1.65,3.28,32.3,32.3,0,0,0,1.64,3.94,6.54,6.54,0,0,1,.65,2.95,9.7,9.7,0,0,1,.66,3.29,5.52,5.52,0,0,1-.33,2.29,42.9,42.9,0,0,0-2.95,15.43,36.15,36.15,0,0,0,1,8.54v2.95a9.39,9.39,0,0,1-2,6.24,16.27,16.27,0,0,1-6.23,4.6.32.32,0,0,0-.33.32c-.33.33-.66.33-.66,1-.66.66-1,1.64-1.64,2.3a22.29,22.29,0,0,0-1,2.62,13.28,13.28,0,0,1-1.31,3.29c-.66.65-1.31,1.31-2,2a31.74,31.74,0,0,0-7.55,7.22,32.2,32.2,0,0,0-3.28,8.86,11,11,0,0,1-2,3.94,15.33,15.33,0,0,0-2.3,3.28l-.66,1-5.9-.66v-1.64c-.33-3-.33-5.58-.66-8.53h-.33a.32.32,0,0,0-.33.32,49.23,49.23,0,0,1-3.28,5.59c-1,2-2.3,3.61-3,5.58a11.86,11.86,0,0,0-.65,3.28,9.7,9.7,0,0,0,1.64,4.92,9.55,9.55,0,0,1,2,5.26,6.12,6.12,0,0,1-.66,2.62,4.8,4.8,0,0,1-1.64,2,11.68,11.68,0,0,1-4.92,3.28l-.66.33-1-.65a20.26,20.26,0,0,1-3.93-3,7.46,7.46,0,0,1-2.3-3.28,6.07,6.07,0,0,1-.66-2.3,9.52,9.52,0,0,1,.66-2.95,11.62,11.62,0,0,1,1.31-3,20.54,20.54,0,0,0,1.64-7.22,11.77,11.77,0,0,0-3-7.88,18.65,18.65,0,0,0-7.88-4.6c-.33.33-.66,1.32-1.31,1.65a9.15,9.15,0,0,1-2,1.64,7.69,7.69,0,0,1-2.63.65,3.71,3.71,0,0,1-2.63-1,4.54,4.54,0,0,1-1.64-2.63,12.94,12.94,0,0,1-1.31-5.91,25.17,25.17,0,0,0-.66-4.92,7.78,7.78,0,0,0-2-3.61,11.72,11.72,0,0,0-3.28-2.3,4.67,4.67,0,0,1-1.31-1c-.33-.33-.33-1-.66-1.32a7.16,7.16,0,0,1-.33-2.62,5.55,5.55,0,0,1,.33-2.3,18.51,18.51,0,0,0,1-5.91,11.11,11.11,0,0,0-2-6.89,8.31,8.31,0,0,1-.66-3.94v-3.29c0-1,.33-2,.33-2.62a5.76,5.76,0,0,0,.33-2v-1a6,6,0,0,1-.66-2.3,4.17,4.17,0,0,1,.33-2c.33-.32.65-1,1-1.31a7.22,7.22,0,0,1,3-2.3l.32-.32c0-.33.33-.66.33-1.32a11.46,11.46,0,0,1,1.64-3.61,15.22,15.22,0,0,1,2-2.3,13.81,13.81,0,0,0,2.3-1.31l1.32-1.31,1.31,1.64.65.65a2.52,2.52,0,0,1,1.65.66,4,4,0,0,1,1.64,1.64,17.56,17.56,0,0,1,2,7.88,15.91,15.91,0,0,1-.33,3.94c-.33,1-.66,1.64-1,2.63,0,.65-.32,1.31-.32,2v.32a2.56,2.56,0,0,0,.32,1.32c0,.65.33,1,.66,1.64,1.64,3.28,3.28,6.57,5.25,9.85a11.93,11.93,0,0,0,2.3,3.28,8.83,8.83,0,0,0,2.63,2.3,3.35,3.35,0,0,1,1.64,1.31,1,1,0,0,1,.33.66c1.64.65,2.95,1.31,4.26,2a13.81,13.81,0,0,1,2.3,1.31,6.75,6.75,0,0,0,2,1.31l.33.33c1.31-.65,2.3-1,3.61-1.64a7.12,7.12,0,0,0,2.63-1.64c.33-.66.65-1,.65-1.64a18.64,18.64,0,0,0,.33-4.27,27.19,27.19,0,0,1,1.32-4.92A8.47,8.47,0,0,1,781.4,590l3-3a1.15,1.15,0,0,0,.66-.33c0-.33-.33-.33-.66-.33a5.14,5.14,0,0,1-2.3-2.29,4.06,4.06,0,0,1-1.31-2.63,9.57,9.57,0,0,1,1-3.28l2.3-2.3a5.86,5.86,0,0,0,1.64-2.3,26.54,26.54,0,0,0,1.32-3c.32-.33.32-.33.32-.66a19.09,19.09,0,0,0-1.64-6.24c0-.33-.33-.65-1-1.31-.33-.33-.66-.33-1.32-.66a18,18,0,0,0-4.92-1.31c-1.64-.66-3.94-1.31-5.58-2.63-.66-.32-1-.65-1.64-1a10.23,10.23,0,0,1-2.3-1.64,4.38,4.38,0,0,1-1-1.32c-.66,0-1.32.33-2,.33h-.32c0,.33-.33.66-.33,1.32a5.94,5.94,0,0,1-1.31,3l-2,2c-1.32.66-2.63,1-4.27,1.64l-1.64.33-.33-1.64a39,39,0,0,1-2.63-6.57,10,10,0,0,1-.65-2.62V550a12.19,12.19,0,0,0-4.93-2.62,5.18,5.18,0,0,1-2.63-2c-.32-.33-.32-1-.65-1.64-2-.66-4.27-1.64-6.57-2.3a4.06,4.06,0,0,1-1.31,2.63,8.29,8.29,0,0,1-2.95,1.31h-.33a4.19,4.19,0,0,1-3-1.31,4.59,4.59,0,0,1-1.64-3.29v-3.94c0-1.31-.33-1.64-.33-3a2.48,2.48,0,0,1-.33-1.31c-1.64-3.29-3.28-6.24-4.59-9.52a29.74,29.74,0,0,1-3-10.51v-1.31a10,10,0,0,1,1-4.27,12.53,12.53,0,0,1,3.61-3.61c3.28-2,5.91-4.93,8.54-7.88,2.62-3.28,6.23-5.25,9.84-7.22,3.62-1.64,7.55-3,10.84-4.6A20.42,20.42,0,0,1,764.33,481c3.62,0,6.9,1,10.18,1.64a46.44,46.44,0,0,0,9.19,2H785c.32.32.65.32,1.31.65a38.51,38.51,0,0,1,4.27,1.64,95,95,0,0,1,10.17,3.94c2,.66,3.61,1.65,4.6,2a.32.32,0,0,1,.33.33,63.27,63.27,0,0,0,6.89,3.28,18.51,18.51,0,0,1,4.93,3.29,9.58,9.58,0,0,1,2.29,3.94,9,9,0,0,1,.33,2.95,15.91,15.91,0,0,1-.33,3.94,20.11,20.11,0,0,0-.33,4.6c0,3.28.33,6.56.66,10.17A11.69,11.69,0,0,1,820.47,527.3Z"/><path class="cls-1" d="M885.8,599.53c8.54,2,5.91,6.89,5.25,11.81,0,2.63.66,4.93.66,7.55a43.77,43.77,0,0,1-1.31,6.9c-.33,1-2.3,2.3-2.63,2-3.28-1.64-3.94.65-5.25,2-4.6,5.58-6.9,11.82-4.6,18.71,0,.66.33,1.31,0,1.64-1,2.3.33,6.9-3.61,6.57-2,0-4.27-3.94-5.58-6.57-.66-2,0-4.59.33-7.22.65-3-.33-5.25-2.63-7.88-5.58-5.58-9.85-12.15-10.83-19.7-.66-5.25,5.58-12.8,10.83-15.1a3.85,3.85,0,0,0,2-3.28c1.64-7.22-1.31-13.46-5.25-19.37-5.25-7.88-7.88-16.09-6.24-25.61,1-5.25,2-11.16-1-16.74-3-5.91-1-12.47.65-18.71,3.29-11.16,3.61-23,4.27-34.47.33-13.13.66-26.59.66-39.72a23.76,23.76,0,0,0-1.32-8.21c-2.29-6.56-1.31-12.47,1.64-18.71a9.58,9.58,0,0,0,.66-3c.33-7.87.66-16.08,1-24.29.32-7.22,3.61-11.16,11.16-12.8,4.59-.66,8.53-2.3,13.46.66,4.26,2.29,6.56,4.59,6.56,8.86-.32,14.11-1,27.9-1,42,.33,12.8-1.32,25.6,2.62,38.08,2.63,8.21,0,16.41-2.29,24.62a10.9,10.9,0,0,0,1.31,9.52,37.62,37.62,0,0,1,4.27,9.85c1,3.61-1,5.91-3.61,8.21-4.93,3.28-6.24,7.55-5.26,13.13,1,7.55,3.62,15.1,1.32,22.65-.33.66,0,1.31-.33,1.64-6.24,5.25-3.94,13.13-7.22,19a76.19,76.19,0,0,0-6.57,17.07c-1,2-.66,4.6-1,7.88C880.88,596.9,883.17,599.2,885.8,599.53Z"/><path class="cls-2" d="M46.6,81.09c-8.53-2-5.91-6.9-5.25-11.82,0-2.3-.66-4.93-.33-7.55a24.91,24.91,0,0,1,1-6.9c.32-1,2.29-2,2.62-2,3.28,1.65,3.94-.65,5.25-2,4.6-5.58,6.9-11.49,4.6-18.71,0-.33-.33-1,0-1.64,1-2.3-.33-6.89,3.61-6.57,2,0,4.27,3.94,5.58,6.57.66,2,0,4.92-.33,7.22C62.69,41,63.67,43,66,45.63c5.58,5.58,9.85,12.15,10.83,19.7.66,5.25-5.58,12.8-10.83,15.1a3.87,3.87,0,0,0-2,3.28c-1.64,7.22,1.31,13.46,5.25,19.37,5.26,7.88,7.88,16.09,6.24,25.61-1,5.25-2,11.16,1,16.74,3.28,5.91,1,12.8-.66,18.71-3.28,11.49-3.61,23-4.27,34.47-.33,13.46-.66,26.59-.66,39.72a23.76,23.76,0,0,0,1.32,8.21c2.3,6.57,1.31,12.48-1.64,18.71a9.58,9.58,0,0,0-.66,3c-.33,8.2-.66,16.08-1,24.29-.32,7.22-3.61,11.16-11.16,12.8-4.59.66-8.53,2.3-13.46-.65-4.26-2.3-6.56-4.6-6.56-8.87.33-14.11,1-27.9,1-42-.33-12.8,1.32-25.6-2.62-38.08-2.63-8.2,0-16.41,2.29-24.62a11,11,0,0,0-1.31-9.52,37.33,37.33,0,0,1-4.27-9.85c-1-3.28,1-5.91,3.61-7.88,4.93-3.61,6.24-7.88,5.59-13.46-1.32-7.55-3.94-15.1-1.65-22.65.33-.65,0-1.31.33-1.64,6.24-5.25,3.94-13.13,7.22-19a80.14,80.14,0,0,0,6.57-16.74c1-2.3.66-4.93,1-8.21C51.53,83.71,49.23,81.74,46.6,81.09Z"/><path class="cls-2" d="M138.19,57.12c-1,3,0,7.22-5.25,7.55-4.92,0-4.27-4.27-4.92-7.22-1.32-5.58-3.29-9.52-8.87-11.82-3.94-1.64-7.22-6.24-10.17-9.85-2.63-3.61-2-6.56,1.64-9.85C121.78,15.76,135.24,14.12,149,11.82c17.72-2.63,35.45-5.91,53.18-7.88,6.89-.66,14.12,1.64,21,3.28,1.64.33,2.95,3.29,3.28,5.26a58,58,0,0,1,2.3,13.13c.33,1-.66,2.95-1.64,3.94-2,2-3.94,3.28-5.91,4.92-4.92,4.27-7.22,9.52-6.57,16.74a40.65,40.65,0,0,1-2,14.12c-.65,2.62-3.61,4.27-5.58,6.24-2-2.63-4.92-5.26-5.25-8.21-.66-4.6.33-9.52.66-14.45.33-1.64,0-3.61,0-5.9H190.72c0,4.92.33,9.84,0,14.77,0,1.64-1.31,3.28-2,4.92-1.64-1.31-4.27-2-4.92-3.94-1.32-2.95-1.65-6.56-2.63-10.17a4.65,4.65,0,0,1-2-.66c-1,2-3,3.94-3,6.24-.32,11.49,0,23.3-.32,35.12,0,3.94,0,8.54-1.32,12.15-4.59,12.15-3.61,25-5.25,37.42-2,15.43,1.64,29.22,3.94,44,1,6.24-.33,13.46-2.95,19.37-4.27,9.52-3,19-2,28.89a35.79,35.79,0,0,1,0,10.18c-2,13.46-4.27,26.92-6.57,40.38-.66,2.62-1,5.58-2.3,8.2-.65,1.65-2.62,3.94-3.61,3.94-1.64-.32-4.27-2-4.92-3.94-3-7.87-1.64-15.42,2.95-22.32-11.16-7.55-15.76-18.05-17.73-32.17-1.64-12.48,2.63-23.64,2.63-35.78-.33-9.52,2-19-2.63-28.56-2.29-4.93-.32-13.46,1.65-19.37,4.26-12.81,7.22-25.28,3.28-39.4-1-3.94.66-9.19,1.31-14.11.66-4.6,1.64-9.2,2-14.12,1-11.49,1.31-23.31,1.64-35.45C139.84,48.26,139.18,53.18,138.19,57.12Z"/><path class="cls-2" d="M315.47,142.15a16.63,16.63,0,0,0-.33,9.85c2,6.56-.66,12.47-3,18.71-2,4.92-1.64,10.17-3.61,14.77-3.28,6.89-.33,14.12-1.64,21.34-.66,2.62,1.64,5.58-2,7.88-1.31,1-3.61,2.3-5.25,2-1.32,0-2.63-2-3.29-3.29a16.36,16.36,0,0,1-1.64-5.25h-1c-2.3,10.18-4.27,20.36-6.57,30.2-.33,1.32-3,3.29-4.27,3.29-1.64,0-3.28-1.64-5.58-3-3.61,1-3.28,3.61-2.95,6.24a90.91,90.91,0,0,1-.33,16.41c-.33,1.32-3.94,3-5.91,4.27-1.31-1.64-3.28-3.28-3.94-4.92-.65-2-1-4.6,0-6.57,3.61-6.24.33-11.82-.65-17.73-.66-5.25-6.57-7.87-11.17-11.16-5.25-3.61-11.16-6.89-16.08-11.16-2-1.31-2.63-4.92-2-6.89,3.61-7.23-1-13.46-3.61-20a101.19,101.19,0,0,1-9.52-44.65,31.74,31.74,0,0,1,7.55-20c1.64-2.3,3.28-4.27,4.92-6.57a17.75,17.75,0,0,1,1.64-6.89c2-3.28,5.58-4.92,7.88-7.55,1.32-1.64,2.3-3.28,3.61-4.6.66-1,.66-2.29,1.32-3.61,1.31-1.64,3.28-2.3,4.92-3a29.34,29.34,0,0,1,11.82-1.64h.66c6.56-3.29,13.78-6.24,20.68-9.2a21.58,21.58,0,0,1,4.27-1.31c7.22-1,12.8,1,15.75,6.57a74.77,74.77,0,0,1,7.23,17.72c1.31,5.59,1,11.17,1.64,16.75a7.15,7.15,0,0,0,.65,3.61C319.73,129,318.42,135.58,315.47,142.15Zm-24.63-25L284,119.49c-1.31-3.93-2.63-7.55-3.94-11.16a10.35,10.35,0,0,1-3.28-.32c-1.32,2-3,3.93-3.29,5.9-.65,3.94-.32,8.21-1,12.15-.33,1.31-2.63,2.63-4.27,3.61-1-1.31-2.3-2.3-2.62-3.61-.66-1.64-.33-3.61-.33-5.25-.33,0-1-.33-1.32-.33-1.31,1.31-3.61,2.63-3.94,3.94a76.79,76.79,0,0,0-2.62,15.1c-.33,2.95,1.31,5.91.66,9.19-.66,6.9-3.29,14.12-3.62,21a166.39,166.39,0,0,0,1,28.56c1,5.58,3.94,11.16,5.91,17.4a23.2,23.2,0,0,0,2.3-1.31c3.28-12.15,6.89-24.29,10.5-36.44a101.34,101.34,0,0,1,4.93-12.8c1.64-4.6,5.25-8.87,5.9-13.13,1-5.91,2-11.82,4.27-17.73C290.84,128.69,290.19,123.11,290.84,117.2Z"/><path class="cls-2" d="M446.78,181.87c0,5.58,0,10.83-.33,16.41a12,12,0,0,1-1,4.93c-.32,2.62-1,5.58-1.64,8.53-.65,4.93-.65,12.81-4.26,17.07a43.93,43.93,0,0,1-1.65,11.49,140,140,0,0,1,.66,20.36c-.33,5.91-9.52,5.91-9.19,0v-8.54h-.33c-1-2-3.28-4.27-3.28-6.24.33-11.81,1.64-23.63,2-35.12v-2c-.66-.33-1-1-1.64-1.64l-4.93-8.87c-.65,1.32-1.31,2.63-2,3.94-3.61,6.57-4.92,15.1-14.11,18.71-1-4.59-1.65-8.2-2.63-11.81C395.57,215,388,220.93,381.12,227.5c-7.22,6.57-7.55,15.76-6.89,24.62.33,5.58-1.32,8.87-8.54,10.18-.33-6.24-1-12.15-1.31-18.06-7.22,2-11.82-1.64-16.09-6.89-9.19-10.83-11.16-23-8.86-36.77.66-4.59-1-9.85-1.31-14.77-.33-2.63-1.32-5.91-.33-8.21,6.89-15.43,16.08-29.87,20.68-46,3.28-11.82,13.79-12.47,20-19.37,6.57-7.22,16.09-10.5,25.94-11.49,6.24-.65,9.52-6.56,8.54-13.13-1.65-7.22-2.3-14.77-3.29-22.32,0-1-.33-2,0-2.63,7.22-16.08,1.32-33.15,2.63-49.57.33-5.25,1.64-8.53,7.22-9.85A47.61,47.61,0,0,1,426.75.33c1.64-.33,4.93-.66,5.58.33,4.93,7.88,11.17,14.77,8.87,25.27-.66,3,.33,6.24,0,9.52-.33,7.56-.66,15.11-1.32,22.66-.32,4.59-.65,9.52-1.31,14.44-.33,5.25,1.64,9.52,5.58,13.13,7.22,6.57,7.22,8.87,1.31,16.09-5.58,7.22-3.61,14.44-2,22,1.64,8.54,4.92,16.75,0,25.94-1.65,2.62,2.29,8.2,2.62,12.47A196.46,196.46,0,0,1,446.78,181.87Zm-28.56-64c-4.93,3.61-4.93,3.61-4.93,9.2,0,2.29,0,5.25-1,7.55-1.64,2.62-4.6,5.58-7.22,1.64-4.27-7.22-5.91-3-8.21,1-4.27,7.22-7.22,16.09-13.13,21.34-7.88,6.89-12.15,14.77-15.43,24-3.28,9.52-6.57,19-5.25,29.87,2.62-2.63,3.94-5.58,5.58-8.54,4.59-6.56,9.19-13.13,14.11-19.36,2.63-3.62,5.91-6.24,8.87-9.52,4.26-4.93,4.26-12.48,11.16-16.42C419.2,149.7,423.8,136.24,418.22,117.85Z"/><path class="cls-2" d="M570.54,142.15a16.71,16.71,0,0,0-.33,9.85c2,6.56-.66,12.47-3,18.71-2,4.92-1.64,10.17-3.62,14.77-3.28,6.89-.32,14.12-1.64,21.34-.65,2.62,1.64,5.58-2,7.88-1.31,1-3.61,2.3-5.25,2-1.31,0-2.63-2-3.28-3.29a16.11,16.11,0,0,1-1.64-5.25h-1c-2.3,10.18-4.27,20.36-6.56,30.2-.33,1.32-3,3.29-4.27,3.29-1.64,0-3.28-1.64-5.58-3-3.61,1-3.28,3.61-3,6.24a91.83,91.83,0,0,1-.32,16.41c-.33,1.32-3.94,3-5.91,4.27-1.32-1.64-3.29-3.28-3.94-4.92-.66-2-1-4.6,0-6.57,3.61-6.24.33-11.82-.66-17.73-.66-5.25-6.56-7.87-11.16-11.16-5.25-3.61-11.16-6.89-16.09-11.16-2-1.31-2.62-4.92-2-6.89,3.61-7.23-1-13.46-3.61-20a101.33,101.33,0,0,1-9.52-44.65,31.74,31.74,0,0,1,7.55-20c1.64-2.3,3.29-4.27,4.93-6.57a17.57,17.57,0,0,1,1.64-6.89c2-3.28,5.58-4.92,7.88-7.55a55.47,55.47,0,0,1,3.61-4.6c.65-1,.65-2.29,1.31-3.61,1.31-1.64,3.28-2.3,4.93-3A29.3,29.3,0,0,1,520,88.64h.66c6.57-3.29,13.79-6.24,20.68-9.2a21.79,21.79,0,0,1,4.27-1.31c7.22-1,12.8,1,15.76,6.57a74.73,74.73,0,0,1,7.22,17.72c1.31,5.59,1,11.17,1.64,16.75a7.05,7.05,0,0,0,.66,3.61C574.81,129,573.49,135.58,570.54,142.15Zm-24.62-25-6.9,2.29c-1.31-3.93-2.62-7.55-3.94-11.16a10.38,10.38,0,0,1-3.28-.32c-1.31,2-2.95,3.93-3.28,5.9-.66,3.94-.33,8.21-1,12.15-.32,1.31-2.62,2.63-4.26,3.61-1-1.31-2.3-2.3-2.63-3.61-.66-1.64-.33-3.61-.33-5.25-.33,0-1-.33-1.31-.33-1.31,1.31-3.61,2.63-3.94,3.94a76.8,76.8,0,0,0-2.63,15.1c-.32,2.95,1.32,5.91.66,9.19-.66,6.9-3.28,14.12-3.61,21a166.39,166.39,0,0,0,1,28.56c1,5.58,3.94,11.16,5.91,17.4a23.2,23.2,0,0,0,2.3-1.31c3.28-12.15,6.89-24.29,10.51-36.44a101.26,101.26,0,0,1,4.92-12.8c1.64-4.6,5.25-8.87,5.91-13.13,1-5.91,2-11.82,4.27-17.73C545.92,128.69,545.26,123.11,545.92,117.2Z"/><path class="cls-2" d="M705.79,229.8c1.31,3.94,2.3,8.53,1.64,12.47-1.31,5.91-4.92,11.49-6.89,17.07-1,3.61-.66,7.88-.66,11.49-.33,5.58-.33,11.17-.33,16.75.33,4.92-2.29,7.22-8.53,8.86,0-5.25-1-10.18-.33-14.77,1.31-12.15,2.95-24-2.3-35.79-4.59-10.17-8.53-21-12.8-31.18-2.3-6.24-5.25-12.15-2.63-19,3.94-9.85-2-19.37-3-28.89s-4.6-18.06-8.21-26.92c-2.63-7.22-3.94-16.42,1.31-24.95,3.94-7.22,5.26-16.42,1-24.29-6.24-11.49-2.63-22.66,0-34.15a9,9,0,0,0-.66-5.9c-3.28-4.6-1.64-8.87.33-13.79a79.08,79.08,0,0,0,3.94-15.1c1-9.52,9.19-18.72,18.71-19,2,0,5.25,3,6.24,4.92A58.71,58.71,0,0,1,697.58,24c.33,6.9-1.31,13.79-1.64,21,0,5.26-.66,10.84.66,15.76,2.62,9.85,4.59,19,1,28.89a8.21,8.21,0,0,0,.33,6.24c4.27,7.55,3.28,15.1,1.64,23-2.29,13.79-5.25,27.57-5.91,41.69a220.07,220.07,0,0,0,2.3,44C697.26,213.06,702.84,221.26,705.79,229.8Z"/><path class="cls-2" d="M824.3,142.15A16.8,16.8,0,0,0,824,152c2,6.56-.65,12.47-3,18.71-2,4.92-1.64,10.17-3.61,14.77-3.29,6.89-.33,14.12-1.64,21.34-.66,2.62,1.64,5.58-2,7.88-1.32,1-3.61,2.3-5.26,2-1.31,0-2.62-2-3.28-3.29a16.36,16.36,0,0,1-1.64-5.25h-1c-2.29,10.18-4.26,20.36-6.56,30.2-.33,1.32-3,3.29-4.27,3.29-1.64,0-3.28-1.64-5.58-3-3.61,1-3.28,3.61-3,6.24a92.78,92.78,0,0,1-.33,16.41c-.33,1.32-3.94,3-5.91,4.27-1.31-1.64-3.28-3.28-3.94-4.92-.66-2-1-4.6,0-6.57,3.61-6.24.33-11.82-.66-17.73-.65-5.25-6.56-7.87-11.16-11.16-5.25-3.61-11.16-6.89-16.09-11.16-2-1.31-2.62-4.92-2-6.89,3.61-7.23-1-13.46-3.62-20a101.47,101.47,0,0,1-9.52-44.65,31.74,31.74,0,0,1,7.55-20c1.65-2.3,3.29-4.27,4.93-6.57A17.75,17.75,0,0,1,744.2,109c2-3.28,5.58-4.92,7.88-7.55a57.67,57.67,0,0,1,3.61-4.6c.66-1,.66-2.29,1.31-3.61,1.32-1.64,3.29-2.3,4.93-3a29.34,29.34,0,0,1,11.82-1.64h.65c6.57-3.29,13.79-6.24,20.68-9.2a22,22,0,0,1,4.27-1.31c7.22-1,12.8,1,15.76,6.57a74.73,74.73,0,0,1,7.22,17.72c1.31,5.59,1,11.17,1.64,16.75a7.05,7.05,0,0,0,.66,3.61C828.57,129,827.26,135.58,824.3,142.15Zm-24.62-25-6.89,2.29c-1.32-3.93-2.63-7.55-3.94-11.16a10.41,10.41,0,0,1-3.29-.32c-1.31,2-2.95,3.93-3.28,5.9-.66,3.94-.33,8.21-1,12.15-.33,1.31-2.63,2.63-4.27,3.61-1-1.31-2.3-2.3-2.63-3.61-.65-1.64-.33-3.61-.33-5.25-.32,0-1-.33-1.31-.33-1.31,1.31-3.61,2.63-3.94,3.94a76.8,76.8,0,0,0-2.63,15.1c-.32,2.95,1.32,5.91.66,9.19-.66,6.9-3.28,14.12-3.61,21a165.39,165.39,0,0,0,1,28.56c1,5.58,3.94,11.16,5.9,17.4a21.85,21.85,0,0,0,2.3-1.31c3.29-12.15,6.9-24.29,10.51-36.44a101.26,101.26,0,0,1,4.92-12.8c1.64-4.6,5.25-8.87,5.91-13.13,1-5.91,2-11.82,4.27-17.73C799.68,128.69,799,123.11,799.68,117.2Z"/><path class="cls-2" d="M947.41,127.37a6.59,6.59,0,0,1,.65,3v1c-.32.66-.65,1.32-1,2a4.63,4.63,0,0,1-1.31,1,10.77,10.77,0,0,0-2,2l-1.32,1.31-1.31-1.31c-.33-.33-1-.66-1.31-1.32a5.42,5.42,0,0,1-1.64-1.31c-.33-.66-.66-1-.66-1.64a12.24,12.24,0,0,1-.33-3.28v-3c-9.52-4.92-18.38-10.5-27.9-14.44-1.32,1-3,2.3-5.26,4.27l-2.29,1.64-.66-2.63c-1-3.28-1.64-5.91-2.3-8.53h-8.53a73.3,73.3,0,0,0-8.54.32h-.33c-.33,0-.65.33-1,.33a1.15,1.15,0,0,1-.33.66V109c-.33,3.28-.66,6.57-1,10.18.33.32.33.32.33.65a1,1,0,0,1,.33.66c.33,0,.66.33,1,.33a14.75,14.75,0,0,1,3.28,1.64,5.63,5.63,0,0,1,2,2c.33.66.66,1.31,1,1.31a.32.32,0,0,0,.33.33h1c1.64,0,3.28-.33,5.25-.33h1a10.62,10.62,0,0,1,4.6,1.32c1.31.65,2.3,1.31,3.61,2a5.36,5.36,0,0,0,3,1c1.31.33,2.29.33,3.61.66a41.24,41.24,0,0,1,9.19,1.31,39.71,39.71,0,0,1,8.21,2.63,13.62,13.62,0,0,1,3.61,2.29,26.57,26.57,0,0,1,6.89,6.57,36.52,36.52,0,0,1,3.61,8.21,32.1,32.1,0,0,0,1.64,3.28,34.21,34.21,0,0,0,1.65,3.94,6.68,6.68,0,0,1,.65,3,9.7,9.7,0,0,1,.66,3.29,5.52,5.52,0,0,1-.33,2.29,42.92,42.92,0,0,0-3,15.43,35.63,35.63,0,0,0,1,8.54v3a9.39,9.39,0,0,1-2,6.24,16.24,16.24,0,0,1-6.24,4.6.32.32,0,0,0-.33.33c-.32.32-.65.32-.65,1-.66.66-1,1.64-1.64,2.3a22.29,22.29,0,0,0-1,2.62A13.68,13.68,0,0,1,930,214.7l-2,2a31.93,31.93,0,0,0-7.55,7.22,32.2,32.2,0,0,0-3.28,8.86,11.17,11.17,0,0,1-2,3.94,15.11,15.11,0,0,0-2.3,3.29l-.66,1-5.91-.66v-1.64c-.33-2.95-.33-5.58-.65-8.53h-.33a.32.32,0,0,0-.33.32,50.77,50.77,0,0,1-3.28,5.59c-1,2-2.3,3.61-3,5.58a11.5,11.5,0,0,0-.65,3.28,9.7,9.7,0,0,0,1.64,4.92,9.55,9.55,0,0,1,2,5.26,6.12,6.12,0,0,1-.66,2.62,4.88,4.88,0,0,1-1.64,2c-1,1.32-2.63,2.3-4.93,3.28l-.65.33-1-.65a20.68,20.68,0,0,1-3.94-3,7.44,7.44,0,0,1-2.29-3.28,6.07,6.07,0,0,1-.66-2.3,9.52,9.52,0,0,1,.66-3,11.28,11.28,0,0,1,1.31-3,20.76,20.76,0,0,0,1.64-7.22,11.82,11.82,0,0,0-3-7.88,18.54,18.54,0,0,0-7.88-4.59c-.33.32-.66,1.31-1.32,1.64a8.7,8.7,0,0,1-2,1.64,7.64,7.64,0,0,1-2.62.65,3.71,3.71,0,0,1-2.63-1,4.54,4.54,0,0,1-1.64-2.63,12.81,12.81,0,0,1-1.31-5.91,25.17,25.17,0,0,0-.66-4.92,7.78,7.78,0,0,0-2-3.61,11.72,11.72,0,0,0-3.28-2.3,4.74,4.74,0,0,1-1.32-1c-.32-.33-.32-1-.65-1.32a7.16,7.16,0,0,1-.33-2.62,5.57,5.57,0,0,1,.33-2.3,18.77,18.77,0,0,0,1-5.91,11.11,11.11,0,0,0-2-6.89,8.43,8.43,0,0,1-.65-3.94v-3.29c0-1,.32-2,.32-2.62a5.76,5.76,0,0,0,.33-2v-1a6,6,0,0,1-.65-2.29,4.24,4.24,0,0,1,.32-2c.33-.33.66-1,1-1.32a7.25,7.25,0,0,1,2.95-2.3l.33-.32c0-.33.33-.66.33-1.32a11.46,11.46,0,0,1,1.64-3.61,15.22,15.22,0,0,1,2-2.3,14.24,14.24,0,0,0,2.3-1.31l1.31-1.31,1.32,1.64.65.65a2.47,2.47,0,0,1,1.64.66,4,4,0,0,1,1.65,1.64,17.56,17.56,0,0,1,2,7.88,15.87,15.87,0,0,1-.33,3.94c-.33,1-.66,1.64-1,2.63,0,.65-.33,1.31-.33,2v.33a2.48,2.48,0,0,0,.33,1.31c0,.66.33,1,.66,1.64,1.64,3.28,3.28,6.57,5.25,9.85a11.72,11.72,0,0,0,2.3,3.28,8.83,8.83,0,0,0,2.63,2.3,3.35,3.35,0,0,1,1.64,1.31,1,1,0,0,1,.32.66c1.65.66,3,1.31,4.27,2a14.24,14.24,0,0,1,2.3,1.31,6.87,6.87,0,0,0,2,1.32l.33.32c1.31-.65,2.3-1,3.61-1.64a7.12,7.12,0,0,0,2.63-1.64c.32-.66.65-1,.65-1.64a18.64,18.64,0,0,0,.33-4.27,28,28,0,0,1,1.31-4.92,8.49,8.49,0,0,1,2.3-3.61l3-3a1.11,1.11,0,0,0,.65-.33c0-.33-.32-.33-.65-.33a5.14,5.14,0,0,1-2.3-2.29,4,4,0,0,1-1.31-2.63,9.57,9.57,0,0,1,1-3.28L911,176a5.86,5.86,0,0,0,1.64-2.3,25.83,25.83,0,0,0,1.31-2.95c.33-.33.33-.33.33-.66a19.6,19.6,0,0,0-1.64-6.24c0-.33-.33-.65-1-1.31-.33-.33-.66-.33-1.32-.66a18,18,0,0,0-4.92-1.31c-1.64-.66-3.94-1.31-5.58-2.63-.66-.32-1-.65-1.64-1a10,10,0,0,1-2.3-1.64,4.63,4.63,0,0,1-1-1.31c-.65,0-1.31.32-2,.32h-.33c0,.33-.32.66-.32,1.32a5.87,5.87,0,0,1-1.32,2.95l-2,2c-1.31.66-2.62,1-4.26,1.64l-1.65.33-.32-1.64a39,39,0,0,1-2.63-6.57,10.08,10.08,0,0,1-.66-2.62V150a12,12,0,0,0-4.92-2.63,5.14,5.14,0,0,1-2.63-2c-.33-.33-.33-1-.65-1.64-2-.66-4.27-1.64-6.57-2.3a4.11,4.11,0,0,1-1.31,2.63,8.26,8.26,0,0,1-3,1.31h-.33a4.19,4.19,0,0,1-3-1.31,4.59,4.59,0,0,1-1.64-3.29v-3.94c0-1.31-.33-1.64-.33-2.95a2.48,2.48,0,0,1-.33-1.31c-1.64-3.29-3.28-6.24-4.59-9.52a29.74,29.74,0,0,1-3-10.51v-1.31a10.08,10.08,0,0,1,1-4.27,12.53,12.53,0,0,1,3.61-3.61c3.28-2,5.91-4.93,8.53-7.88,2.63-3.28,6.24-5.25,9.85-7.22,3.61-1.64,7.55-3,10.83-4.6a20.48,20.48,0,0,1,10.18-2.62c3.61,0,6.9,1,10.18,1.64a46.44,46.44,0,0,0,9.19,2H912c.33.33.66.33,1.32.65A36.75,36.75,0,0,1,917.53,87a92.31,92.31,0,0,1,10.18,3.93c2,.66,3.61,1.65,4.6,2a.32.32,0,0,1,.33.33,64.37,64.37,0,0,0,6.89,3.29,18,18,0,0,1,4.92,3.28,9.5,9.5,0,0,1,2.3,3.94,9,9,0,0,1,.33,3,15.87,15.87,0,0,1-.33,3.94,20.11,20.11,0,0,0-.33,4.6c0,3.28.33,6.56.66,10.17A11.69,11.69,0,0,1,947.41,127.37Z"/><path class="cls-2" d="M103.56,568.92c.32,6.57,4.92,12.48,7.22,19,2.63,8.54-1,14.78-8.54,19.37-2.62,1.32-4.26,5.58-4.92,8.87-.66,4.92.66,10.17-.33,15.1-.33,3-3.61,7.55-5.91,7.55-5.91.33-6.24-5.25-4.92-9.19,2-6.24,1-10.18-3.29-15.43-7.22-7.88-11.16-16.75-9.19-28.89s3-25-2.62-37.43c-2-3.94-1-9.19-1-14.11,1-12.48,2.3-25.28,3-38.08.65-24,1-47.93,1.31-71.57C74.67,412.33,85.83,405.44,97,410c7.22,3,8.86,9.2,12.15,15.1,1.31,2.63,4.27,4.6,5.58,7.56A66.46,66.46,0,0,1,119,444.83c3.94,18.06,7.55,36.11,12.8,54.17,6.24-23.64,15.43-45.63,26.26-67,3.28-6.24,6.9-12.48,9.85-18.71,2.95-5.91,4.92-12.15,7.22-18.39,1-1.64,1.32-3.61,2.63-4.92,3.61-3.94,16.74-4.6,21.67-2.63,5.9,2.3,5.9,6.24,5.25,10.84-1.64,12.8-3.61,25.27-4.93,38.08-2.29,17.72-4.59,35.78,3,52.85,3.28,7.55.66,14.44-3.28,21.34a15.35,15.35,0,0,0-2.63,8.53c0,17.4-.66,34.8.33,52.2.33,6.9,4.27,13.46,5.58,20.35.66,4.27-.66,9.2-1.31,13.46-.33,3-1.65,5.59-1.65,8.21.33,13.79.33,27.25-7.55,39.72-1.64,2.63,1,7.88,1.32,12.15a26.12,26.12,0,0,1-1.65,8.54c0,.65-4.59.65-5.58-.33-1.64-2-2.62-4.93-3.61-7.55-.65-.66-.32-2,0-3,2.3-5.58,2-10.83-3.94-14.77-1-.66-1.64-2.63-2-3.28-2.95,1.31-5.58,2.29-8.2,3.61-1-3-3.29-5.91-3.29-8.54.33-15.1,1-30.2,1.32-45.3,0-3.94-1.64-8.21-2.3-12.15-.33-1.64-1-3.94-.33-4.92,5.91-9.85,2-20.68,2.63-31.19.33-15.1,0-30.53,0-46,0-4.59,1-9.52.65-14.77-3.61,14.77-10.5,28.23-8.2,44.32.65,6.89-1.64,15.1-4.6,21.66-3.94,8.21-7.55,16.09-7.22,25.61.33,3.61-1.31,7.55-3,10.83-.65,1.32-3.61,3-4.92,2.63-1.64-.66-4.27-3.28-4.27-4.6.66-12.14-7.55-20-12.47-29.54-6.9-12.8-13.79-25.61-16.42-40.05a26.44,26.44,0,0,0-3-7.88C103.23,528.22,102.9,548.57,103.56,568.92Z"/><path class="cls-2" d="M346.81,565c4.93,8.54,4.27,17.4-.32,24.62-6.9,11.5-6.9,24-6.57,36.44,0,7.23-1,9.52-7.88,12.48-1-4.6-2.3-9.19-3-13.79-1.65-8.86-2.63-17.73-3.94-26.59,0-.66.33-1.64,0-2-6.57-4.92-5.58-12.15-4.93-19.37-.33-.65-.65-1.31-1-2a11.09,11.09,0,0,1-.33-3.28v-2.63h-.33a1,1,0,0,1-.66-.33c-.65-.32-1.64-.32-2.62-.65H314c-1,3.94-1.65,7.55-2.3,11.49-.33,1.64-.33,3.94-1.32,5.25s-3.28,2-4.92,3c-.66-1.65-2-3.29-2-5.26a20,20,0,0,1,.33-4.26,38.3,38.3,0,0,1-3.28,6.23,27.61,27.61,0,0,1-5.26,3.94,7.34,7.34,0,0,0-1.64,1c-2,10.5-2.62,21-4.59,31.51-.33,3.28-2.63,6.24-3.94,9.19l-2.63-.65v-17.4a5.54,5.54,0,0,0-1.64-.66,19.68,19.68,0,0,0-3,4.27c-3.61,9.19-9.52,15.76-18.05,18.06-3.94,1.31-3.28,2.95-3,6.56a63.85,63.85,0,0,1,.33,17.73c-.33,2-3.94,3.61-6.23,5.58-1-2.63-3-4.93-3-7.22-.66-4.6-.33-9.52-.33-14.12.33-4.6-.65-7.88-3.94-11.16-4.59-4.93-7.88-5.25-13.46.33C229,623.75,227,617.51,227,611.6c0-7.55,3.28-15.1,2.63-22.32-1-7.88,2-12.81,5.91-18.06,3.93-5.58,8.2-10.83,12.14-16.74,2.3-3.28,4.93-7.22,5.58-11.16,2.63-12.48,10.18-20,18.06-27.25,9.85-9.52,19.7-18.71,29.87-27.9,2.3-2,4.93-2.63,7.55-4.27v-1c4.6,1,8.54-5.91,13.13-6.89,5.58-1.31,9.85,2.3,14.12,6.24A45.24,45.24,0,0,0,342.22,501c4.59,7.22,5.58,14.11,1.64,22-1,1.64-.66,3.94-.33,5.58,3,8.21,2.3,16.09,1,24.63A18.73,18.73,0,0,0,346.81,565Zm-33.48-50.55a18.5,18.5,0,0,0-10.83,10.83C299.87,531.83,298.23,540,291,542c-3.94,1.32-5.26,3.94-6.9,7.55-2,3.94-3.94,8.54-6.89,10.84-12.81,9.85-19,24-21,41.36,1.31-1.31,3-2.3,3.94-3.94,16.08-20.68,31.84-41.69,47.93-62.37C313,529.2,316.28,523.29,313.33,514.43Z"/><path class="cls-2" d="M466,511.15c.66,6.23-1.31,12.8-2.63,19.36-.33,1.32-2.29,2.3-3.94,3.62-5.58-3.29-3.61-7.56-3.28-11.49a125.82,125.82,0,0,0-.66-15.76c0-1.32-2.62-2.63-3.93-3.94a7.23,7.23,0,0,0-1.65,1c.66,1.64,2,3.29,2,5.26a26.09,26.09,0,0,1-1.64,8.53c-.33,1-3,1.31-4.59,1.64-.66-1-1.65-2.3-1.65-3.61-.32-3.28,0-6.56,0-10.18-6.56,5.59-8.2,15.11-6.23,21.34a81.24,81.24,0,0,1,2.62,11.49c.66,3.61-1,5.91-6.56,6.9-.33-5.58-1-11.16-1.32-17.07h-1.64c-3,8.53-7.55,17.07-3.28,26.26,1.64,3.28.33,5.91-3.28,7.55s-3.61,3.61-3,6.56c.66,3.29,0,6.57-.65,9.85a35.6,35.6,0,0,1-3.29,8.21c-.65,1.31-1.64,2.63-2.62,4.27a8.23,8.23,0,0,0-2.3-1.32,46.82,46.82,0,0,0-2.63-5.9H408.2c-.33,3.94-1,8.2-1.64,12.14a32.17,32.17,0,0,0-.66,5.58,17.32,17.32,0,0,0,2.3,11.16c2,3,1,7.23.33,10.84-1,3.61-2,6.89,0,10.5,1.31,3,.66,6.57,0,9.85-.33,1.31-3.61,2-5.25,3.28-1.32-1.31-3-2.29-3.29-3.61-1.64-5.58-2.95-11.16-4.26-16.74-.66-1.31-1-3.28-2.3-4.27-6.57-4.92-7.55-10.83-5.25-17.72.65-2-.33-4.6-1.32-6.9-1.31-3.94-4.59-7.22-2.29-11.82a2.73,2.73,0,0,0-.66-2.62c-4.93-5.58-3.61-11.16-2.3-17.4,1-5.91.66-12.15.66-18.39,0-1.31-2.3-2.29-3-3.93-3.28-6.9-3.28-14.45-3.61-22-.33-11.49,2.3-22.65,6.9-33.48,2-4.93,3.94-9.85,6.23-14.45,1-1.64,3-3,3.94-4.27,4.27,3,9.19,4.93,10.84,8.21,1.64,2.63,2.95,4.6,5.91,6.24,1,.65.32,3.28-.33,4.59-.33,1.32-2,2.63-3,3.94-4.92,5.26-6.56,10.18-3,16.42,1.64,2.95,2,6.56,3,9.52a2.48,2.48,0,0,0,1.32.65c0-8.86,9.52-12.8,14.11-19.36,3.61-4.93,8.87-8.54,13.46-12.48s10.18-3.61,15.43-3.28c5.25,0,8.21,3.61,9.52,7.55C462.37,497.69,465.32,504.25,466,511.15Z"/><path class="cls-2" d="M608.78,462.89c.33.33.33.65.66,1.31a27.31,27.31,0,0,1-5.25,3c-7.55,2.95-14.12,6.56-19.7,12.14-1.64,1.64-4.93,2.63-7.55,3.28-5.91,1.65-8.87,4.6-8.87,9.52V497c.66,4.6-.32,8.53-8.53,9.85-1-5.25-2.63-10.84-3.94-16.74-3.61,1.64-6.9,2.95-10.51,4.59,1.65,3.94,2.3,7.55-4.26,9.52a23.58,23.58,0,0,0-2.63-5.91,4,4,0,0,0-2.3-2.3,3.79,3.79,0,0,0-2.95,2c-2.3,3.94-6.24,7.88-2.63,13.14,1.31,2,.33,4.92.33,7.55.33,3.28-1,6.89,3,9.52,1,.65.66,3.28.33,4.92-2,8.54-4.26,16.74-6.24,25.28a9.14,9.14,0,0,0,1,5.91c3,5.58,2,11.16.33,16.74-.33,1,.66,2.95,1.64,4.27,2,2.95,4.27,5.58,5.91,8.86,3,4.93,5.58,9.85,8.86,16.09,7.55-6.9,15.1-11.82,19-18.39,2-3.61,3.29-7.55,6.9-10.5,3.28-2.63,6.23-5.58,9.52-8.21a2.44,2.44,0,0,1,.33-1.64,1.16,1.16,0,0,0,.32-.66,1.19,1.19,0,0,0,.33-1,8.34,8.34,0,0,0,.66-2.3,14,14,0,0,1,3-4.6c2-2.29,4.93-3.93,7.55-5.58a3.14,3.14,0,0,1,3.94,1v.66c.33,0,.66.32,1,.65-1,2.63-2,5.58-3,8.21-2.62,5.91-5.58,11.49-7.22,17.73s-2,12.47-2.62,19c-.33,2.29-.33,4.92-2,7.22v4.59a2.54,2.54,0,0,1-2.3,2.63,2.41,2.41,0,0,1-3-2c-1-2.3-1-4.92-1.64-7.22-.33-.33-.33-.66-.65-1v-.65h0a.32.32,0,0,1-.33-.33l-.33-.33V608a29.24,29.24,0,0,0-3,5.25c-1,1.64-1.31,3.94-3,5.25-3.94,4.6-8.86,8.54-12.48,13.46-2,2-2,5.26-2.29,8.21,0,5.91.65,11.82.32,17.73,0,1.64-3.28,3-5.25,4.59-1-1.64-2.62-3-3-4.59-.66-3.94,0-8.21-1-12.15a21.85,21.85,0,0,0-1.64-6.24,3,3,0,0,1-1.64-.32,14.47,14.47,0,0,1-4.27-4.6v-.33h-.65c0,1,.32,1.64.32,2.63a13.39,13.39,0,0,0,.33,3.61v2a2.43,2.43,0,0,1,.33,2.95c-.66,1.32-2.63,2-3.61,1-1.64-1-2-2.3-2.3-3.94a15.91,15.91,0,0,0-.33-3.94,15.91,15.91,0,0,0-.33-3.94v-.33c-1-1-1-2.3-1.31-3.61,0-1-.33-2-.33-3.28,0-.33-.32-.66-.32-1.32v-.32h0c-.33-.33-.33-.66-.66-1-2.3-2-4.6-3.94-6.9-6.24-.65-.65-1-1.31-1.64-2a5.59,5.59,0,0,1,.33,2.3c.33,1.64-.33,3-1.64,3.29a2.74,2.74,0,0,1-3.61-2c-.66-3.62-1-7.23-1.31-10.84-5.59-6.24-8.21-13.79-10.84-21.34a16,16,0,0,0-.33,3.94,44.19,44.19,0,0,0,1.32,9.2c.65,3.28-4.6,4.92-5.26,1.31a92.78,92.78,0,0,1-1.64-9.19c0-3,.66-5.91.33-8.87-.33-2.62-1.31-5.58-1.31-8.2-.33-3,0-5.91-1-8.54a3.49,3.49,0,0,1,.33-2.63,25.17,25.17,0,0,1,.66-4.92c3.61-14.45,7.22-28.56,7.55-43.33,0-1.65-1.31-3-2.3-4.6-2,1.31-4.59,2-5.91,3.61-2.62,3.61-4.59,7.55-6.89,11.49l-3-.66c0-1.64-.32-3.28-.32-5.25,0-1.64,1.31-3.61.65-5.58-.65-2.62-.33-6.56-6.24-4.59-4.92,1.31-6.56-1.65-7.22-4.93-.33-3.28,1.32-5.25,5.58-4.92a4.38,4.38,0,0,0,3-.33c7.55-4.27,14.77-8.87,22-13.13,0-3.29-.65-7.22.33-11.16.66-4.6,2.95-8.87,4.27-13.14,2.95-8.86,5.58-17.39,8.21-25.93,1.31-3.94,2.29-7.88,8.86-8.54,2.95,0,5.91-2.29,8.86-3.61,1.32,2.63,1.64,4.6,2.63,5.26,5.58,3.28,7.88,8.86,5.58,15.1-3.61,10.83-7.22,21.66-11.16,34.14C557.57,472.74,582.52,465.84,608.78,462.89Z"/><path class="cls-2" d="M740.75,541.35c-3,4.26-5.91,8.2-8.53,12.14l-1,2c-1,2-2.62,3.29-3.94,4.93-.65,1-1.64,2.3-2.29,3.28-1.32,3-2.3,5.91-5.26,8.21-4.26,7.22-7.88,15.1-9.52,24h-2.29a81,81,0,0,0-5.26-7.88c-5.91,8.21-11.82,16.09-18,23.64-2,2.3-3.94,4.92-6.57,6.24-6.24,3.28-8.86,7.88-8.21,15.1,0,4.92,1.32,10.83-7.22,12.14q-.5-6.39-1-12.8h-8.87c-6.56,0-10.5,8.21-7.88,15.43a42.69,42.69,0,0,1,2.63,14.12c.33,5.58-2.95,9.85-9.19,11.16-4.27-6.24-4.92-13.79-3.61-21,1.31-8.54.33-15.1-6.57-21.34-4.27-3.61-6.89-9.52-9.52-14.77-2.3-4.6-4.59-9.19-5.58-13.79a60.37,60.37,0,0,1-.33-7.55,3.34,3.34,0,0,1-1.31-2.3,91.3,91.3,0,0,1,4.27-18.71,23.53,23.53,0,0,1,3.28-7.88,60,60,0,0,1,5.58-7.22c.33,0,.33-.33.66-.33A153.87,153.87,0,0,1,631.76,541a83.52,83.52,0,0,1,1-12.8,9,9,0,0,1,3.28-5.91,9.83,9.83,0,0,0,2.63-1.32c.65-.65,1-1.64,1.64-2.29l3-5.91a25.11,25.11,0,0,1,4.93-5.26c3.94-3.28,8.53-6.56,12.8-9.52l3.28-2.29c2.3-2.3,4.6-4.6,7.23-6.9,6.89-5.91,15.1-8.53,24-8.86,5.25-.33,9.52,1.64,12.15,6.56,1,2,3.61,3.62,5.91,4.27,12.47,4.6,16.41,10.18,12.8,22.65-4.27,15.1-10.83,28.89-24.62,38.41-5.91,3.94-11.16,9.19-18.39,11.49-1.31.66-2,3.94-2.95,5.91-1.31,3-2.63,5.91-3.94,9.19-.66-.32-1-.65-1.64-.65-.66-2.3-1.31-4.93-2-6.57-4.92,2.63-9.52,4.93-14.12,7.55-1,.33-1.64,2.3-2,3.61-.65,2-.33,4.27-1.64,5.91-1.31,2-3.61,3.28-5.25,4.6a16.64,16.64,0,0,1-2.3-5.58,35.72,35.72,0,0,1-.33-6.57c-8.2,6.9-7.88,15.43-7.88,25,9.2,1,17.4-6.24,24-12.15a218.08,218.08,0,0,1,24.62-18.38c3.94-2.3,8.54-4.27,11.16-7.88,1.32-1.64,1.64-3.61,2.63-5.25a7.12,7.12,0,0,1,4.92-4.27,5.57,5.57,0,0,1,2.3-.33c1-1,2.3-2,3.28-2.95a53.33,53.33,0,0,0,6.57-5.58,1.21,1.21,0,0,0,.33-1,11,11,0,0,1,3.28-5.25,10.53,10.53,0,0,1,6.24-1.64h1l.33-.33.66-.66a4.59,4.59,0,0,0,.65-2c2-3.28,6.9-5.25,10.51-3.61a2.72,2.72,0,0,1,1.64,1.65H744a1.11,1.11,0,0,0-.33.65,2.17,2.17,0,0,1-.66,2.3A15.12,15.12,0,0,1,740.75,541.35Zm-88.3,17.73c14.11-12.15,28.88-24,42.34-36.44a31.74,31.74,0,0,0,3.61-3.29,2.2,2.2,0,0,1,.33-2,1,1,0,0,1,.33-.65c0-.33.33-.66.33-1v-1a1.21,1.21,0,0,1,.33-1c0-1-.33-1.64-.33-2.62,0-.33-.33-.33-.66-.33a4.63,4.63,0,0,1-1.31-1l-.33-.33a2.19,2.19,0,0,1-.33-2c-.32-.32-.65-.65-.65-1a38.47,38.47,0,0,0-6.57,2.3,43.69,43.69,0,0,0-9.85,7.55A109.47,109.47,0,0,0,652.45,559.08Z"/><path class="cls-2" d="M853,521.32a6.69,6.69,0,0,1,.65,3v1l-1,2a4.56,4.56,0,0,1-1.32,1c-.65.65-1.64,1.31-2,2l-1.32,1.31-1.31-1.31c-.33-.33-1-.66-1.31-1.32a5.74,5.74,0,0,1-1.65-1.31c-.32-.66-.65-1-.65-1.64a12.28,12.28,0,0,1-.33-3.28v-3c-9.52-4.92-18.38-10.5-27.91-14.44-1.31,1-3,2.29-5.25,4.26l-2.3,1.65-.65-2.63c-1-3.28-1.64-5.91-2.3-8.54H795.9a71,71,0,0,0-8.53.33H787c-.33,0-.66.33-1,.33a1.15,1.15,0,0,1-.33.66v1.64c-.33,3.28-.66,6.56-1,10.18.33.32.33.32.33.65a1,1,0,0,1,.33.66c.33,0,.66.33,1,.33a14.33,14.33,0,0,1,3.29,1.64,5.55,5.55,0,0,1,2,2c.33.65.65,1.31,1,1.31a.32.32,0,0,0,.33.33h1c1.65,0,3.29-.33,5.26-.33h1a10.79,10.79,0,0,1,4.6,1.31c1.31.66,2.3,1.32,3.61,2a5.26,5.26,0,0,0,3,1c1.32.33,2.3.33,3.61.65a41.24,41.24,0,0,1,9.2,1.32,39.4,39.4,0,0,1,8.2,2.62,13.79,13.79,0,0,1,3.62,2.3,26.57,26.57,0,0,1,6.89,6.57,36.44,36.44,0,0,1,3.61,8.2,30.19,30.19,0,0,0,1.64,3.29,35.83,35.83,0,0,0,1.64,3.94,6.49,6.49,0,0,1,.66,2.95,9.7,9.7,0,0,1,.66,3.29,5.52,5.52,0,0,1-.33,2.29,42.92,42.92,0,0,0-3,15.43,35.63,35.63,0,0,0,1,8.54v2.95a9.39,9.39,0,0,1-2,6.24,16.24,16.24,0,0,1-6.24,4.6.32.32,0,0,0-.33.32c-.33.33-.65.33-.65,1-.66.66-1,1.64-1.65,2.3a24.4,24.4,0,0,0-1,2.62,14.11,14.11,0,0,1-1.31,3.29l-2,2a31.55,31.55,0,0,0-7.55,7.22,32.56,32.56,0,0,0-3.29,8.86,11,11,0,0,1-2,3.94,15,15,0,0,0-2.29,3.28l-.66,1-5.91-.66v-1.64c-.33-3-.33-5.58-.66-8.54H811a.32.32,0,0,0-.33.33,49.24,49.24,0,0,1-3.29,5.58c-1,2-2.29,3.62-2.95,5.58a11.66,11.66,0,0,0-.66,3.29,9.8,9.8,0,0,0,1.64,4.92,9.47,9.47,0,0,1,2,5.25,6.17,6.17,0,0,1-.65,2.63,4.88,4.88,0,0,1-1.64,2,11.72,11.72,0,0,1-4.93,3.28l-.65.33-1-.65a20.68,20.68,0,0,1-3.94-3,7.55,7.55,0,0,1-2.3-3.28,6.24,6.24,0,0,1-.65-2.3,9.85,9.85,0,0,1,.65-3,11.76,11.76,0,0,1,1.32-3,20.81,20.81,0,0,0,1.64-7.22,11.76,11.76,0,0,0-3-7.88,18.59,18.59,0,0,0-7.88-4.6c-.32.33-.65,1.32-1.31,1.64a8.5,8.5,0,0,1-2,1.65,7.88,7.88,0,0,1-2.62.65,3.76,3.76,0,0,1-2.63-1,4.5,4.5,0,0,1-1.64-2.63,12.82,12.82,0,0,1-1.32-5.91,25.15,25.15,0,0,0-.65-4.92,7.87,7.87,0,0,0-2-3.61A11.87,11.87,0,0,0,767,606a4.56,4.56,0,0,1-1.32-1c-.33-.32-.33-1-.65-1.31a7.16,7.16,0,0,1-.33-2.62,5.55,5.55,0,0,1,.33-2.3,18.77,18.77,0,0,0,1-5.91,11.16,11.16,0,0,0-2-6.9,8.27,8.27,0,0,1-.66-3.94v-3.28c0-1,.33-2,.33-2.62a5.79,5.79,0,0,0,.33-2v-1a6.07,6.07,0,0,1-.66-2.3,4.17,4.17,0,0,1,.33-2c.33-.33.66-1,1-1.31a7.18,7.18,0,0,1,2.95-2.3L768,565c0-.32.33-.65.33-1.31a11.46,11.46,0,0,1,1.64-3.61,14.67,14.67,0,0,1,2-2.3,14.68,14.68,0,0,0,2.3-1.31l1.31-1.31,1.31,1.64.66.65a2.49,2.49,0,0,1,1.64.66,4,4,0,0,1,1.64,1.64,17.4,17.4,0,0,1,2,7.88,16.39,16.39,0,0,1-.32,3.94c-.33,1-.66,1.64-1,2.63,0,.65-.33,1.31-.33,2v.32a2.49,2.49,0,0,0,.33,1.32c0,.65.33,1,.66,1.64,1.64,3.28,3.28,6.56,5.25,9.85a11.87,11.87,0,0,0,2.3,3.28,8.93,8.93,0,0,0,2.62,2.3,3.21,3.21,0,0,1,1.64,1.31,1,1,0,0,1,.33.66c1.64.65,3,1.31,4.27,2a14.24,14.24,0,0,1,2.3,1.31,6.5,6.5,0,0,0,2,1.31l.33.33c1.31-.65,2.29-1,3.61-1.64a7.08,7.08,0,0,0,2.62-1.64c.33-.66.66-1,.66-1.64a18.69,18.69,0,0,0,.33-4.27,28,28,0,0,1,1.31-4.92A8.59,8.59,0,0,1,814,584l2.95-2.95a1.15,1.15,0,0,0,.66-.33c0-.33-.33-.33-.66-.33a5.11,5.11,0,0,1-2.29-2.29,4.07,4.07,0,0,1-1.32-2.63,9.57,9.57,0,0,1,1-3.28c.65-.66,1.64-1.65,2.3-2.3a6,6,0,0,0,1.64-2.3,26.64,26.64,0,0,0,1.31-3c.33-.33.33-.33.33-.66a19.6,19.6,0,0,0-1.64-6.24c0-.33-.33-.65-1-1.31-.33-.33-.65-.33-1.31-.66a18,18,0,0,0-4.92-1.31c-1.65-.66-3.94-1.31-5.59-2.63-.65-.33-1-.65-1.64-1a10.46,10.46,0,0,1-2.3-1.64,4.74,4.74,0,0,1-1-1.32c-.66,0-1.31.33-2,.33h-.33c0,.33-.33.66-.33,1.31a5.88,5.88,0,0,1-1.31,3l-2,2c-1.31.66-2.62,1-4.27,1.64l-1.64.33-.33-1.64a39,39,0,0,1-2.62-6.57,10,10,0,0,1-.66-2.63V544a12.09,12.09,0,0,0-4.92-2.62,5.14,5.14,0,0,1-2.63-2c-.33-.33-.33-1-.66-1.64-2-.66-4.26-1.64-6.56-2.3a4.06,4.06,0,0,1-1.31,2.62,8.1,8.1,0,0,1-3,1.32h-.33a4.13,4.13,0,0,1-3-1.32,4.51,4.51,0,0,1-1.64-3.28v-3.94c0-1.31-.33-1.64-.33-3a2.49,2.49,0,0,1-.33-1.32c-1.64-3.28-3.28-6.23-4.6-9.52a29.61,29.61,0,0,1-3-10.5v-1.31a10.18,10.18,0,0,1,1-4.27,12.57,12.57,0,0,1,3.62-3.61c3.28-2,5.9-4.93,8.53-7.88,2.63-3.28,6.24-5.25,9.85-7.22,3.61-1.64,7.55-3,10.83-4.6A20.47,20.47,0,0,1,796.89,475c3.61,0,6.89,1,10.18,1.65a46.29,46.29,0,0,0,9.19,2h1.31c.33.32.66.32,1.31.65a37.77,37.77,0,0,1,4.27,1.64,96,96,0,0,1,10.18,3.94c2,.66,3.61,1.64,4.59,2a.32.32,0,0,1,.33.33,65.32,65.32,0,0,0,6.9,3.28,18.29,18.29,0,0,1,4.92,3.29,9.5,9.5,0,0,1,2.3,3.94,9,9,0,0,1,.33,2.95,15.91,15.91,0,0,1-.33,3.94,20.07,20.07,0,0,0-.33,4.6c0,3.28.33,6.56.66,10.17A11.69,11.69,0,0,1,853,521.32Z"/><path class="cls-2" d="M918.36,593.54c8.53,2,5.9,6.9,5.25,11.82,0,2.63.65,4.93.65,7.55a41.61,41.61,0,0,1-1.31,6.9c-.33,1-2.3,2.3-2.63,2-3.28-1.64-3.93.65-5.25,2-4.59,5.58-6.89,11.81-4.59,18.71,0,.66.32,1.31,0,1.64-1,2.3.32,6.89-3.62,6.57-2,0-4.26-3.94-5.58-6.57-.65-2,0-4.6.33-7.22.66-3-.33-5.25-2.62-7.88-5.58-5.58-9.85-12.15-10.84-19.7-.65-5.25,5.58-12.8,10.84-15.1a3.87,3.87,0,0,0,2-3.28c1.64-7.22-1.32-13.46-5.26-19.37-5.25-7.88-7.88-16.09-6.23-25.61,1-5.25,2-11.16-1-16.74-3-5.91-1-12.47.66-18.71,3.28-11.16,3.61-23,4.27-34.47.32-13.13.65-26.59.65-39.72a24,24,0,0,0-1.31-8.21c-2.3-6.57-1.31-12.47,1.64-18.71a9.58,9.58,0,0,0,.66-3c.33-7.88.65-16.08,1-24.29.33-7.22,3.61-11.16,11.16-12.8,4.6-.66,8.54-2.3,13.46.65,4.27,2.3,6.57,4.6,6.57,8.87-.33,14.11-1,27.9-1,42,.33,12.8-1.31,25.6,2.63,38.08,2.63,8.21,0,16.41-2.3,24.62a11,11,0,0,0,1.31,9.52,36.83,36.83,0,0,1,4.27,9.85c1,3.61-1,5.91-3.61,8.21-4.92,3.28-6.24,7.55-5.25,13.13,1,7.55,3.61,15.1,1.31,22.65-.33.65,0,1.31-.33,1.64-6.23,5.25-3.94,13.13-7.22,19a76.64,76.64,0,0,0-6.56,17.07c-1,2-.66,4.6-1,7.88C913.43,590.92,915.73,593.22,918.36,593.54Z"/></g></g></svg>