<svg xmlns="http://www.w3.org/2000/svg" viewBox="0 0 153.3 99.28"><defs><style>.cls-1{fill:#fff;}</style></defs><title>Recurso 19</title><g id="Capa_2" data-name="Capa 2"><g id="Capa_1-2" data-name="Capa 1"><path class="cls-1" d="M60.86,96.16a33.8,33.8,0,0,1-4.16.17c-2.2,0-3.54.07-4,.15a24.51,24.51,0,0,1-5,.09c-.09,0-1.1,0-3,.05a22.44,22.44,0,0,1-3.63-.13q-1.06-.27-9.5.38-1.15,0-8.9,1.32l-6.58,1.09-1.67-1.2a3.94,3.94,0,0,1-1.81-2.94q-.47-3.73,3.54-4.4a19,19,0,0,1,3.65-.16q6.34.14,12.31-.27a100.47,100.47,0,0,1,12.67.12q3.93.67,19.06-.34,7.19-.16,16.49-.81,1.74-.14,7.57-.44t13.66-1q3.06-.21,7.65-.45t8.22-.55q11.07-1.53,16.13-1.18a6.23,6.23,0,0,0,2.22.07,4,4,0,0,0,.7-.19,5.06,5.06,0,0,1,.7-.19,13.24,13.24,0,0,1,2.06,0,10.47,10.47,0,0,0,3.22-.09,3.44,3.44,0,0,1,3.36,1.65A4.46,4.46,0,0,1,146,91a2.41,2.41,0,0,1-1.88,1.56,26.19,26.19,0,0,1-5.56-.26c-2.84-.31-4.56-.47-5.15-.47-1.37,0-2.54,0-3.53,0Q126,91.9,113.65,93c-8.26.72-13.82,1.08-16.67,1a62.16,62.16,0,0,0-6.7.37q-.86.15-13.82,1a25.88,25.88,0,0,1-4.1.08Q70.41,95.19,60.86,96.16Zm92.44-9.35c-.05.89-.21,1.12-.48.67-.62-.78-.67-1.41-.16-1.89.34-.25.55-.18.62.2ZM152.09,83c-.43-.22-.51-.7-.24-1.43a12.58,12.58,0,0,0,.22-3.13l-.23-2.31.68,3.27c.4,2.39.35,3.62-.12,3.7A.44.44,0,0,1,152.09,83Z"/><path class="cls-1" d="M54.58,58.08a38.57,38.57,0,0,1-4.16.17,39,39,0,0,0-4,.15,24.92,24.92,0,0,1-5,.08c-.1,0-1.1,0-3,.06a22,22,0,0,1-3.63-.14c-.71-.18-3.88,0-9.49.39q-1.17,0-8.9,1.32L9.8,61.19,8.13,60a3.93,3.93,0,0,1-1.8-2.94q-.48-3.75,3.53-4.41a19.86,19.86,0,0,1,3.65-.16q6.36.13,12.31-.26a100.47,100.47,0,0,1,12.67.12Q42.43,53,57.55,52q7.19-.15,16.49-.8c1.16-.1,3.69-.24,7.58-.44s8.44-.54,13.66-1q3-.2,7.64-.45c3.06-.16,5.81-.34,8.22-.54q11.07-1.53,16.13-1.19a6.25,6.25,0,0,0,2.22.08,7,7,0,0,0,.7-.19,3.81,3.81,0,0,1,.71-.19,11.63,11.63,0,0,1,2-.05,9.87,9.87,0,0,0,3.22-.09,3.46,3.46,0,0,1,3.36,1.66A4.46,4.46,0,0,1,139.7,53a2.41,2.41,0,0,1-1.87,1.56,26.9,26.9,0,0,1-5.56-.26c-2.85-.32-4.57-.47-5.15-.48-1.37,0-2.55,0-3.53,0q-3.82,0-16.22,1.12T90.71,56a59.68,59.68,0,0,0-6.71.37q-.85.13-13.81,1a27.81,27.81,0,0,1-4.11.09Q64.13,57.09,54.58,58.08ZM147,48.73q-.08,1.34-.48.66c-.62-.78-.67-1.4-.16-1.88.35-.25.56-.19.62.19ZM145.81,45c-.43-.23-.51-.7-.23-1.44a13.54,13.54,0,0,0,.22-3.12l-.24-2.32.69,3.27c.39,2.39.35,3.62-.13,3.7A.4.4,0,0,1,145.81,45Z"/><path class="cls-1" d="M48.31,20a35.17,35.17,0,0,1-4.16.18,40.08,40.08,0,0,0-4,.14,24.56,24.56,0,0,1-5,.09c-.09,0-1.1,0-3,.05a22.37,22.37,0,0,1-3.62-.13c-.72-.18-3.88-.05-9.5.38-.78,0-3.74.47-8.9,1.32L3.53,23.11l-1.67-1.2A3.91,3.91,0,0,1,.05,19q-.46-3.75,3.54-4.41a18.92,18.92,0,0,1,3.65-.16q6.35.13,12.31-.27a100.48,100.48,0,0,1,12.67.12q3.93.68,19.06-.34,7.19-.16,16.48-.81c1.17-.09,3.69-.24,7.58-.44s8.44-.53,13.66-1q3-.21,7.65-.45t8.22-.55Q115.94,9.14,121,9.49a6.23,6.23,0,0,0,2.22.07,4,4,0,0,0,.71-.19,5.06,5.06,0,0,1,.7-.19,13.14,13.14,0,0,1,2,0,10.46,10.46,0,0,0,3.22-.09,3.45,3.45,0,0,1,3.36,1.65,4.82,4.82,0,0,1,.53,1.39,4.81,4.81,0,0,1-.36,2.77,2.4,2.4,0,0,1-1.87,1.56,26.19,26.19,0,0,1-5.56-.26c-2.84-.31-4.56-.47-5.15-.47-1.37,0-2.55,0-3.53,0q-3.82,0-16.21,1.13c-8.27.72-13.82,1.08-16.67,1.05a62,62,0,0,0-6.7.37q-.87.15-13.82,1a27.68,27.68,0,0,1-4.1.09Q57.86,19,48.31,20Zm92.43-9.35c-.05.89-.2,1.12-.47.67-.62-.78-.68-1.41-.17-1.88.35-.26.56-.19.62.19Zm-1.2-3.77c-.43-.22-.51-.7-.24-1.43a12.53,12.53,0,0,0,.22-3.12L139.29,0,140,3.27c.39,2.39.35,3.62-.13,3.7A.43.43,0,0,1,139.54,6.87Z"/></g></g></svg>