<svg xmlns="http://www.w3.org/2000/svg" viewBox="0 0 200 200"><defs><style>.cls-1{fill:gold;}</style></defs><title>Recurso 2</title><g id="Capa_2" data-name="Capa 2"><g id="Capa_1-2" data-name="Capa 1"><path class="cls-1" d="M100,0C72.86,0,69.45.12,58.79.6S40.86,2.78,34.5,5.25A49,49,0,0,0,16.79,16.79,49,49,0,0,0,5.25,34.5C2.78,40.85,1.09,48.12.6,58.75S0,72.84,0,100s.12,30.55.6,41.22,2.18,17.91,4.65,24.27a51.23,51.23,0,0,0,29.24,29.25c6.37,2.48,13.62,4.16,24.27,4.65s14.08.6,41.24.6,30.55-.13,41.23-.6,17.92-2.18,24.28-4.65a51.23,51.23,0,0,0,29.24-29.25c2.46-6.36,4.15-13.63,4.65-24.28s.6-14.06.6-41.22-.13-30.56-.6-41.24-2.19-17.91-4.65-24.26a49,49,0,0,0-11.54-17.71A49,49,0,0,0,165.5,5.25C159.12,2.77,151.85,1.09,141.21.6S127.15,0,100,0h0ZM91,18h9c26.7,0,29.87.08,40.4.57C150.16,19,155.46,20.68,159,22a33,33,0,0,1,19,19c1.38,3.51,3,8.81,3.44,18.56.49,10.54.59,13.7.59,40.39s-.1,29.86-.59,40.4c-.44,9.75-2.08,15-3.44,18.56a33.15,33.15,0,0,1-19,19c-3.5,1.37-8.81,3-18.57,3.45-10.53.47-13.7.59-40.4.59s-29.87-.12-40.41-.59c-9.75-.45-15-2.08-18.56-3.45a30.87,30.87,0,0,1-11.5-7.48,30.92,30.92,0,0,1-7.5-11.5c-1.36-3.51-3-8.81-3.44-18.56C18.13,129.82,18,126.66,18,100s.1-29.85.57-40.39c.45-9.75,2.08-15.05,3.45-18.57a31,31,0,0,1,7.49-11.5A31,31,0,0,1,41,22c3.52-1.37,8.81-3,18.56-3.45C68.83,18.14,72.4,18,91,18Zm62.35,16.59a12,12,0,0,0,0,24h0a12,12,0,0,0,0-24ZM100,48.65a51.36,51.36,0,1,0-1.6,102.71H100a51.36,51.36,0,0,0,0-102.71Zm0,18a33.34,33.34,0,0,1,0,66.68h0a33.34,33.34,0,1,1,0-66.68Z"/></g></g></svg>