<svg xmlns="http://www.w3.org/2000/svg" viewBox="0 0 225.06 180.06"><defs><style>.cls-1{fill:gold;stroke:gold;stroke-miterlimit:10;stroke-width:5.06px;}.cls-2{fill:#b0c4de;}.cls-3{fill:#001f3f;}.cls-4{fill:#333;}.cls-5{fill:#2e4057;}.cls-6{fill:#fff;}</style></defs><title>Recurso 8</title><g id="Capa_2" data-name="Capa 2"><g id="Capa_1-2" data-name="Capa 1"><path class="cls-1" d="M189.27,105.07c-.05-12.34-.16-18.69-.36-18.69s-.29,5.21-.34,15.37c-.33-1.44-.75-3.08-1.24-4.73-.06-7-.16-10.64-.32-10.64s-.24,2.93-.3,8.66c-.41-1.21-.86-2.39-1.35-3.48a44.12,44.12,0,0,0-.21-4.92.41.41,0,0,0-.57,0s-.08,1.17-.11,3.1A11.5,11.5,0,0,0,183,87.68a3.76,3.76,0,0,0-.16-1.3c-.05,0-.1.33-.14,1a4.59,4.59,0,0,0-.41-.36l-1.22.07c0-.46-.08-.7-.13-.7s-.09.24-.13.71l-1.66.1c-.14-.75-.35-.84-.64-.5a2.14,2.14,0,0,0-.07.54l-1.52.08c0-.16,0-.3,0-.42a11,11,0,0,1,1.28,0,7.77,7.77,0,0,0-1.36-1.24c26.78-.11,45.74-.24,45.74-.37s-19.45-.34-46.79-.44c-.71-.52-1.61-1.16-2.76-1.92.12-1.29.16-3.83.16-8.3,0-7-.11-9.27-.45-9.45s-.5,2-.5,9.45c0,3.16,0,5.36.08,6.83L171,80.22c.06-2.27.09-5.5.09-9.6q0-3.83,0-6.62l3.47-4q0,2.86,0,6.41c0,11.54.16,17.76.38,17.76s.38-6.22.38-17.76-.11-17.75-.38-17.75-.27,2.89-.33,8.4c-.54-1.69-2-4.12-5.58-7.31-.06-.78-.14-1.09-.24-1.09s-.16.2-.22.69c-.52-.45-1.09-.92-1.7-1.4-.06-3.34-.15-5.06-.28-5.06s-.22,1.57-.28,4.62c-.42-.32-.85-.65-1.31-1-.06-4.74-.16-7.19-.31-7.19s-.24,2.05-.3,6a10.06,10.06,0,0,0-3.06-3.83s-1-.64-2.6-1.58q-.06-.63-.12-.63s-.08.17-.11.5c-2-1.18-4.79-2.77-7.56-4.12-.06-6.29-.18-8.37-.39-8.37s-.33,2-.38,8c-1.17-.55-2.32-1-3.39-1.45-.06-8.13-.16-12.31-.33-12.31s-.27,4.1-.33,12.07a14.19,14.19,0,0,0-2-.57l-1.81,2.71s0,0,0,0l-1.68,2.51,5.24-12.68a118.13,118.13,0,0,0-19.41-6.12c1.49-3.74,3.22-7.61,5.2-11.5,0,0-20-10.73-46.11-2.22,0,0,2.64,5.64,5.83,13.52A63.44,63.44,0,0,0,67.59,30.5a44.63,44.63,0,0,0-.25-5.6c-.19-.13-.38-.18-.38,0,0,1.78,0,3.86,0,6.16l-1.54,1.24c-.06-7.06-.16-10.68-.31-10.68s-.27,3.81-.33,11.22c-.42.36-.83.72-1.22,1.08-.05-11.35-.16-17.18-.35-17.18s-.31,6-.36,17.82c-.4.38-.8.75-1.17,1.12,0-20.32-.16-26.05-.45-26.05s-.43,5.83-.4,26.9c-.59.6-1.13,1.18-1.63,1.73A5.06,5.06,0,0,0,59,36.66a6.32,6.32,0,0,0-.19,2,39.91,39.91,0,0,0-3.72,4.79l3.58,2.35c0,3.76,0,8.66,0,14.66v2.81c-5.14,3.34-6,4.5-6,4.5a26.27,26.27,0,0,1,6,.69v.07L55.91,68l-2.77,4.39c-.06-.72-.14-1.1-.23-1.1s-.22.68-.29,1.92l-.23.36-1-.2c0-5.31-.17-8.3-.38-8.3s-.36,2.94-.38,8.15L49.41,73c-.07-1.21-.19-1.68-.38-1.68s-.35.6-.39,2.27L47.21,75V72.84c0-7.24-.15-11.32-.38-11.32s-.38,4.08-.38,11.32c0,1,0,2,0,2.93L45.28,77q0-2.7,0-6.35c0-8.75-.15-13.54-.38-13.54s-.38,4.79-.38,13.54c0,2.75,0,5.1,0,7l-1.24,1.27c0-2.73.06-6.75.06-12.48,0-15.58-.07-17.8-.57-17.8s-.57,2.13-.49,17.62c0,6.44.09,10.74.17,13.49L41,81.35c.13-4.24.18-13.23.18-26.71,0-19.4-.11-29.52-.38-29.52s-.38,10.12-.38,29.52c0,13.91.06,23,.19,27.11L39,83.34c.15-1.86.24-6.83.24-14.5,0-9.9-.15-15.31-.38-15.31s-.38,5.41-.38,15.31c0,8.06.1,13.15.26,14.76l-1.11,1.13c-20.93.06-35,.16-35,.32a.5.5,0,0,0,.27.66c.25.11,13.61.17,33.64.18l-1.62,1.64c-.06-.76-.12-1.15-.19-1.15a4.44,4.44,0,0,0-.2,1.54l-1,1,.89,15.27c.06,4.54.18,7,.35,7a10.24,10.24,0,0,0,.27-3l1.66-.09c.08.52.17.78.28.83s.14-.29.2-.86L38.5,108c0,5.87.18,9,.35,9s.31-3.16.36-9.06l1.17-.06c0,2.46,0,5.13,0,8,0,19.39.12,29.51.38,29.51s.38-10.12.38-29.51c0-2.9,0-5.58,0-8.06l1.15-.06c0,12.22.12,14.11.57,14.11s.56-1.89.57-14.18l1.19-.06c.07,3.79.18,5.8.33,5.8s.27-2,.33-5.84l1.36-.08c.06,1,.13,1.49.21,1.49s.15-.52.21-1.51l11.57-.65v3.27c0,15.53.11,23.74.38,23.74s.38-8.21.38-23.74v-3.4l1.5-.44q0,7.35-.06,17.33c-.08,29.65,0,37.33.38,37.33s.56-32.85.45-54.88l1.17-.33c0,4.14,0,8.94,0,14.37,0,22.2.11,33.74.38,33.74s.38-11.54.38-33.74c0-5.52,0-10.39,0-14.58l1.18-.34q0,5.48,0,12.48c0,20.55.11,31.3.38,31.3s.38-10.75.38-31.3q0-7.14,0-12.69l1.38-.39c-.62,2.4-1,5.6.16,8.37v1.48l-1.12,1.26L67,117.85q0,4.65,0,8.53a37.14,37.14,0,0,0,0,8.68c0,5.8.13,9.21.25,10.11l-1.47,1.5c36.26,61.09,75.53,12.62,75.53,12.62L138.66,151a15.19,15.19,0,0,0,7.45-4.33,40.57,40.57,0,0,0,.25,5.88c.12,0,.21-2.17.27-6.41a20.17,20.17,0,0,0,1.59-1.88,21.6,21.6,0,0,0,1.8-3.86c0,1.24,0,2-.05,2.07-.08.4.11.76.42.76s.36-1,.43-5c.85-2.45,1.48-4.62,1.48-4.62l-1.41-1.73c0-1.52,0-3.22,0-5.14l1.26,1c.06,3.2.15,4.84.27,4.84a22.17,22.17,0,0,0,.26-4.4L165.9,139a42.54,42.54,0,0,0,14.82-12.46,8.59,8.59,0,0,0,.21,2.44,11.92,11.92,0,0,0,.24-3c.44-.59.88-1.21,1.31-1.86.05,8.79.16,13.33.35,13.33s.31-4.93.36-14.43c.4-.64.8-1.31,1.18-2,0,8.7.18,10.22.55,10.22s.52-1.75.56-12.33c.4-.81.78-1.65,1.15-2.53,0,19.1.12,29.06.38,29.06s.38-10.12.38-29.51v-1.47c.41-1.12.8-2.28,1.15-3.49q0,4.23,0,9.17c0,22.2.11,33.74.38,33.74s.38-11.54.38-33.74q0-6.67,0-12.06c.09-.44.19-.89.28-1.34C189.56,106.71,189.46,106.09,189.27,105.07ZM176.6,87.33l-1.58.09c0-.13,0-.24,0-.34q.87-.12,1.65-.18C176.62,87,176.61,87.17,176.6,87.33ZM168.32,66.4c0,4.68.06,8.54.12,11.46l-1.62-1.51q0-4.11.05-10.28l1.44-.54C168.32,65.82,168.32,66.11,168.32,66.4Zm-7.45,4.38v-.16c0-.81,0-1.57,0-2.29l1.43-.54v4.35ZM160,70l-1-1,1-.39Zm6.12,5.73-1.23-1.15q0-3.33,0-7.79l1.15-.43C166.12,70,166.14,73.17,166.16,75.73ZM164.26,74l-1.19-1.11c0-1.11,0-2.29,0-3.55V67.51l1.14-.44Q164.24,70.94,164.26,74ZM73.05,55.72c-.52.25-1,.5-1.53.76v-2.3l1.53,1Zm-2.29,1.15-1.14.61c0-1.63,0-3.15,0-4.56l1.17.76C70.76,54.71,70.76,55.78,70.76,56.87Zm-1,66.31-.18.15c0-.16,0-.32,0-.48ZM148,127.05c0,.4,0,.78,0,1.15l-.66-.8Zm25-39.64,1.77-.3,0,.33-1.73.09A.49.49,0,0,1,173,87.41Zm-.61.16h-.24l.24,0Zm0-5.1-.23-.15.22-.11C172.3,82.3,172.31,82.39,172.31,82.47Zm-2-17.7q0,2.53,0,5.85c0,3.78,0,6.82.08,9l-1.3-1.22c.06-3,.09-7,.09-12,0-.4,0-.8,0-1.19ZM68.89,52.45c0,1.65,0,3.47,0,5.44l-1.13.62V51.7Zm-2-1.28c0,2.61,0,5.23,0,7.79l-.66.38L65.6,59l-.16.09c0-1.95,0-4,0-6.18,0-.91,0-1.79,0-2.66ZM64.69,49.7v9.78l-1.15.69c0-3,0-6.23,0-9.75V49Zm-1.9-1.25v2c0,3.7,0,7.09,0,10.19l-1.17.71q0-6,0-13.61Zm-3.47-2.27,1.49,1c0,5.45,0,10.34,0,14.63l-1.49.94V60.41C59.37,54.64,59.35,49.88,59.32,46.18Zm0,22.39,1,.22-1-.18Zm9.56,53c0,.8,0,1.55,0,2.24l-1.21,1c0-1.8,0-3.64,0-5.5ZM67.42,145c.07-.77.13-2.66.17-5.31.38,2.57.73,4.39.73,4.39l20-20.44h0Zm82.67-14.21-1.54-1.9q0-1,0-2.22l1.41-.79.12.1C150.1,127.71,150.1,129.32,150.09,130.82Z"/><path class="cls-1" d="M18.64,84.07c.34.13.46-7.5.46-37.15C19.1,14,19,9.58,18.53,9.58S18,13.89,18,46.74C18.11,76,18.26,83.89,18.64,84.07Z"/><path class="cls-1" d="M22.52,84.16c.26,0,.38-11.54.38-33.74s-.12-33.73-.38-33.73-.38,11.54-.38,33.73S22.25,84.16,22.52,84.16Z"/><path class="cls-1" d="M188.91,84.16c.27,0,.38-11.54.38-33.74s-.11-33.73-.38-33.73-.38,11.54-.38,33.73S188.64,84.16,188.91,84.16Z"/><ellipse class="cls-1" cx="20.62" cy="52.2" rx="0.38" ry="31.96"/><path class="cls-1" d="M187,84.16c.27,0,.38-10.12.38-29.48s-.11-29.6-.38-29.78-.38,9.76-.38,29.47S186.74,84.16,187,84.16Z"/><path class="cls-1" d="M24.61,83.94c.26,0,.42-9.81.49-28.32.08-25,0-28.28-.49-28.28s-.57,3.28-.5,28.28C24.19,74.13,24.34,83.94,24.61,83.94Z"/><path class="cls-1" d="M203.27,84.07c.34.13.46-5.73.46-28.28,0-25.08-.08-28.45-.57-28.45s-.57,3.33-.5,28.28C202.74,77.72,202.89,83.89,203.27,84.07Z"/><path class="cls-1" d="M26.7,84.16c.26,0,.38-9,.38-26s-.12-26-.38-26-.38,9-.38,26S26.43,84.16,26.7,84.16Z"/><path class="cls-1" d="M182.83,84.16c.27,0,.38-8.79.38-25.53s-.11-25.52-.38-25.52-.38,8.79-.38,25.52S182.57,84.16,182.83,84.16Z"/><path class="cls-1" d="M190.92,84c.34-.13.46-5.59.46-25.39s-.12-25.25-.46-25.43-.49,5.15-.49,25.43S190.54,84.2,190.92,84Z"/><ellipse class="cls-1" cx="201.07" cy="59.3" rx="0.38" ry="24.86"/><path class="cls-1" d="M205.24,84.16c.27,0,.38-8.21.38-23.75s-.11-23.75-.38-23.75-.38,8.21-.38,23.75S205,84.16,205.24,84.16Z"/><path class="cls-1" d="M199.17,84.16c.26,0,.38-8,.38-23.08S199.43,38,199.17,38s-.38,8-.38,23.09S198.9,84.16,199.17,84.16Z"/><path class="cls-1" d="M184.84,84.07c.35-.18.5-5.15.57-22.46.08-19.62,0-22.28-.49-22.28s-.57,2.7-.57,22.46C184.35,79.54,184.46,84.2,184.84,84.07Z"/><ellipse class="cls-1" cx="207.14" cy="61.74" rx="0.38" ry="22.42"/><path class="cls-1" d="M197,84c.34-.13.46-4.88.46-21.83s-.12-21.71-.46-21.89-.49,4.44-.49,21.89S196.62,84.2,197,84Z"/><path class="cls-1" d="M180.93,84.16c.27,0,.38-7.42.38-21.31s-.11-21.31-.38-21.31-.38,7.42-.38,21.31S180.67,84.16,180.93,84.16Z"/><path class="cls-1" d="M213.22,84.16c.27,0,.38-6.79.38-19.53s-.11-19.53-.38-19.53-.38,6.79-.38,19.53S213,84.16,213.22,84.16Z"/><ellipse class="cls-1" cx="28.6" cy="66.4" rx="0.38" ry="17.76"/><path class="cls-1" d="M211.32,84.16c.23,0,.38-6,.38-17.09S211.55,50,211.32,50s-.38,6-.38,17.09S211.09,84.16,211.32,84.16Z"/><path class="cls-1" d="M30.69,83.94c.22,0,.41-5.69.49-15.9.08-13.93,0-15.84-.49-15.84s-.57,1.91-.5,15.84C30.27,78.25,30.46,83.94,30.69,83.94Z"/><path class="cls-1" d="M195,84.16c.23,0,.38-5.42.38-15.32s-.15-15.31-.38-15.31-.38,5.41-.38,15.31S194.76,84.16,195,84.16Z"/><ellipse class="cls-1" cx="176.75" cy="69.29" rx="0.38" ry="14.87"/><path class="cls-1" d="M32.77,84.16c.23,0,.38-4.8.38-13.54S33,57.08,32.77,57.08s-.38,4.79-.38,13.54S32.55,84.16,32.77,84.16Z"/><ellipse class="cls-1" cx="34.67" cy="71.73" rx="0.38" ry="12.43"/><path class="cls-1" d="M16.44,84.16c.23,0,.38-4.22.38-11.77s-.15-11.76-.38-11.76-.38,4.22-.38,11.76S16.21,84.16,16.44,84.16Z"/><path class="cls-1" d="M36.76,83.85c.54-.18.73-22.33.19-22.33-.22,0-.49.27-.6.58C36,63.21,36.38,83.94,36.76,83.85Z"/><ellipse class="cls-1" cx="193.09" cy="74.17" rx="0.38" ry="9.99"/><path class="cls-1" d="M178.77,84.07c.34-.18.49-2.44.57-8.92.07-7.59,0-8.75-.5-8.75s-.57,1.25-.57,8.92C178.27,82.25,178.39,84.2,178.77,84.07Z"/><path class="cls-1" d="M209.35,84.07c.57.22.68-14.78.07-15.23-.22-.13-.45,0-.57.31s-.15,3.78-.11,7.68C208.82,82,209,83.89,209.35,84.07Z"/><path class="cls-1" d="M215.62,84.07c.34-.13.49-1.95.57-6.48.07-5.42,0-6.3-.5-6.3s-.57,1-.57,6.48C215.12,82.74,215.24,84.2,215.62,84.07Z"/><path class="cls-1" d="M8.46,84.16c.23,0,.38-2.09.38-5.33s-.15-5.33-.38-5.33-.38,2.09-.38,5.33S8.23,84.16,8.46,84.16Z"/><path class="cls-1" d="M217.78,84.16c.23,0,.38-2.09.38-5.33s-.15-5.33-.38-5.33-.38,2.09-.38,5.33S217.55,84.16,217.78,84.16Z"/><path class="cls-1" d="M14.54,84.16c.23,0,.38-1.87.38-4.66s-.15-4.66-.38-4.66-.38,1.86-.38,4.66S14.31,84.16,14.54,84.16Z"/><path class="cls-1" d="M10.36,84.16c.23,0,.38-1.69.38-4.22s-.15-4.22-.38-4.22S10,77.41,10,79.94,10.13,84.16,10.36,84.16Z"/><path class="cls-1" d="M6.3,84.07c.3-.13.49-1.38.57-3.6.07-2.84,0-3.41-.5-3.41s-.57.66-.57,3.59C5.8,83.31,5.92,84.2,6.3,84.07Z"/><path class="cls-1" d="M219.68,84.16c.23,0,.38-1.47.38-3.55s-.15-3.55-.38-3.55-.38,1.46-.38,3.55S219.45,84.16,219.68,84.16Z"/><ellipse class="cls-1" cx="4.28" cy="81.72" rx="0.38" ry="2.44"/><path class="cls-1" d="M12.45,83.94c.53,0,.72-3.78.23-4.35-.27-.31-.46-.23-.61.22C11.73,80.87,12,83.94,12.45,83.94Z"/><path class="cls-1" d="M221.77,83.94c.23,0,.42-.67.49-1.47.12-1.06,0-1.42-.49-1.42s-.61.36-.49,1.42C221.35,83.27,221.58,83.94,221.77,83.94Z"/><ellipse class="cls-1" cx="4.28" cy="89.26" rx="0.38" ry="2.89"/><path class="cls-1" d="M6,86.69a11.71,11.71,0,0,0-.23,2.88c0,2,.12,2.58.57,2.58s.57-.58.57-2.62C6.94,87,6.6,86,6,86.69Z"/><path class="cls-1" d="M8.46,86.38c-.23,0-.38,2.08-.38,5.32S8.23,97,8.46,97s.38-2.09.38-5.33S8.69,86.38,8.46,86.38Z"/><path class="cls-1" d="M10.36,86.38c-.23,0-.38,1.68-.38,4.21s.15,4.22.38,4.22.38-1.69.38-4.22S10.59,86.38,10.36,86.38Z"/><path class="cls-1" d="M12.07,86.91C11.73,88,12,91,12.45,91s.72-3.77.23-4.35C12.41,86.38,12.22,86.47,12.07,86.91Z"/><path class="cls-1" d="M14.54,86.38c-.23,0-.38,1.86-.38,4.66s.15,4.66.38,4.66.38-1.87.38-4.66S14.77,86.38,14.54,86.38Z"/><path class="cls-1" d="M16.44,86.38c-.23,0-.38,4.21-.38,11.76s.15,11.76.38,11.76.38-4.21.38-11.76S16.67,86.38,16.44,86.38Z"/><path class="cls-1" d="M18.19,86.69C18.07,86.82,18,103.6,18,124c0,32.59.08,37,.57,37s.57-4.39.57-37c0-20.37-.15-37.15-.34-37.29A.41.41,0,0,0,18.19,86.69Z"/><ellipse class="cls-1" cx="20.62" cy="118.34" rx="0.38" ry="31.96"/><path class="cls-1" d="M22.52,86.38c-.27,0-.38,11.54-.38,33.73s.11,33.74.38,33.74.38-11.54.38-33.74S22.78,86.38,22.52,86.38Z"/><path class="cls-1" d="M24.27,86.69c-.12.13-.23,12.92-.23,28.41,0,24.68.07,28.1.57,28.1s.57-3.42.57-28.15c0-15.49-.15-28.27-.34-28.41A.41.41,0,0,0,24.27,86.69Z"/><path class="cls-1" d="M26.7,86.38c-.27,0-.38,9-.38,26s.11,26,.38,26,.38-9,.38-26S27,86.38,26.7,86.38Z"/><ellipse class="cls-1" cx="28.6" cy="104.13" rx="0.38" ry="17.76"/><path class="cls-1" d="M30.34,86.69c-.11.13-.22,7.32-.22,16,0,13.63.07,15.67.57,15.67s.57-2,.57-15.72C31.26,88.33,31.1,85.8,30.34,86.69Z"/><path class="cls-1" d="M32.77,86.38c-.22,0-.38,4.79-.38,13.54s.16,13.53.38,13.53.38-4.79.38-13.53S33,86.38,32.77,86.38Z"/><path class="cls-1" d="M190.66,86.69c-.12.13-.23,11.63-.23,25.52,0,22.11.07,25.21.57,25.21s.57-3.1.57-25.25c0-13.94-.15-25.39-.34-25.53A.41.41,0,0,0,190.66,86.69Z"/><ellipse class="cls-1" cx="193.09" cy="96.36" rx="0.38" ry="9.99"/><path class="cls-1" d="M195,86.38c-.23,0-.38,5.41-.38,15.31S194.76,117,195,117s.38-5.42.38-15.32S195.22,86.38,195,86.38Z"/><path class="cls-1" d="M196.77,86.64c-.15.18-.26,10.08-.26,22,0,17.18.11,21.71.49,21.57s.49-5,.57-21.66c0-11.81-.08-21.66-.23-21.84A.39.39,0,0,0,196.77,86.64Z"/><path class="cls-1" d="M199.17,86.38c-.27,0-.38,8-.38,23.08s.11,23.08.38,23.08.38-8,.38-23.08S199.43,86.38,199.17,86.38Z"/><ellipse class="cls-1" cx="201.07" cy="113.01" rx="0.38" ry="26.63"/><path class="cls-1" d="M202.81,86.69c-.11.13-.22,13.71-.22,30.18,0,26.28.07,29.88.57,29.88s.57-3.64.57-29.92c0-16.47-.16-30-.35-30.19A.41.41,0,0,0,202.81,86.69Z"/><path class="cls-1" d="M205.24,86.38c-.26,0-.38,8.79-.38,25.52s.12,25.52.38,25.52.38-8.78.38-25.52S205.51,86.38,205.24,86.38Z"/><ellipse class="cls-1" cx="207.14" cy="108.79" rx="0.38" ry="22.42"/><path class="cls-1" d="M208.85,86.91c-.11.36-.15,3.77-.11,7.68.08,5.15.23,7.06.61,7.23.57.23.68-14.78.07-15.22C209.2,86.47,209,86.6,208.85,86.91Z"/><path class="cls-1" d="M211.32,86.38c-.23,0-.38,6-.38,17.09s.15,17.09.38,17.09.38-6,.38-17.09S211.55,86.38,211.32,86.38Z"/><path class="cls-1" d="M213.22,86.38c-.26,0-.38,6.79-.38,19.53s.12,19.53.38,19.53.38-6.79.38-19.53S213.49,86.38,213.22,86.38Z"/><path class="cls-1" d="M215.35,86.69a52.5,52.5,0,0,0-.23,6.43c0,5.15.08,6.13.57,6.13s.57-1,.57-6.17C216.26,87.44,216,85.89,215.35,86.69Z"/><path class="cls-1" d="M217.78,86.38c-.23,0-.38,2.08-.38,5.32s.15,5.33.38,5.33.38-2.09.38-5.33S218,86.38,217.78,86.38Z"/><path class="cls-1" d="M219.68,86.38c-.23,0-.38,1.46-.38,3.55s.15,3.55.38,3.55.38-1.47.38-3.55S219.91,86.38,219.68,86.38Z"/><path class="cls-1" d="M221.43,86.69c-.5.58-.23,2.79.34,2.79.38,0,.57-.44.57-1.28C222.34,86.87,221.88,86.16,221.43,86.69Z"/><path class="cls-2" d="M75.61,92.22s-6.1,6-7.51,8.7c0,0-3.85,7.85-.54,13.2l28.53-4.66a15.39,15.39,0,0,1-1.82-6.94A23.9,23.9,0,0,1,94,95.27Z"/><polygon class="cls-3" points="75.07 102.21 58.99 106.83 34.55 108.21 33.43 88.97 49.26 72.94 73.65 77.86 74.29 88.75 75.07 102.21"/><polygon class="cls-4" points="51.73 74.61 55.91 68 75.33 71.47 73.65 77.86 51.73 74.61"/><path class="cls-3" d="M141.34,159.29s-39.27,48.47-75.53-12.62l25.07-25.59S113.53,131,128.36,119Z"/><path class="cls-5" d="M68.32,144.11s-2.63-13.52-1.1-18.84l15-12.51s4.1,6.71,8.65,8.32Z"/><path class="cls-2" d="M131.35,120.3s1.51,2.09,13,8.77l13.1-7.3s-4.12.57-3.27-7C154.15,114.75,137.46,120.64,131.35,120.3Z"/><path class="cls-4" d="M75.24,105.11,65.85,115.7l3.88,7.48,11.42-9.52A12.31,12.31,0,0,1,75.24,105.11Z"/><path class="cls-3" d="M137.78,115.86,165.9,139s18.93-8.31,23.66-32.3c0,0-2.56-15.95-7.28-19.7l-29.73,1.68s-1.27,6.3-4.53,9.9C148,98.59,141.75,113.83,137.78,115.86Z"/><path class="cls-4" d="M152.3,133.54s-2.38,8.18-4.08,10.69c0,0-5.1,7.12-11.45,6.88L127,124.31a16,16,0,0,0,7-1.81,25.11,25.11,0,0,0,6.55-3.32Z"/><path class="cls-2" d="M161.24,41.54S149.57,34.16,144,33.07L131.4,51.88l8.91,5.73,6.87,3.83,17.62-15S163.35,42.83,161.24,41.54Z"/><path class="cls-4" d="M151.57,71.85l18.79-7.09,4.21-4.87s3.53-6-17-18.14L140.31,57.61s9.4,6.91,10.71,11.86Z"/><path class="cls-2" d="M63.78,60.85s11.79-7.41,17.38-8L98.52,62s-4.81,6.23-4.64,11Z"/><path class="cls-2" d="M136,69.34s16.18-2.25,22.46-.85L172.83,82s-8.13,3.62-10.18,7.67Z"/><path class="cls-5" d="M88.19,65.11,55.08,43.4S82.16-.27,145.71,25.65L134.46,52.86S98.26,43.36,88.19,65.11Z"/><path class="cls-5" d="M178.15,86.88s-1.51-2.1-13-8.78l-13.1,7.31s4.12-.57,3.27,7C155.35,92.43,172,86.54,178.15,86.88Z"/><path class="cls-5" d="M52.63,67.72s1.51-2.09,13-8.77l13.1,7.3s-4.12-.57-3.27,7C75.43,73.27,58.74,67.38,52.63,67.72Z"/><path class="cls-3" d="M101.56,51.75C98.23,33.24,85.39,5.81,85.39,5.81,111.46-2.7,131.5,8,131.5,8a156.55,156.55,0,0,0-13.77,40.8C114.21,48,101.56,51.75,101.56,51.75Z"/><ellipse cx="113.21" cy="88.69" rx="43.37" ry="42.68"/><path d="M18,46.74c.07,29.21.22,37.15.6,37.33s.46-7.5.46-37.15C19.1,14,19,9.58,18.53,9.58S18,13.89,18,46.74Z"/><path d="M60.81,46.87c0,24.19.23,37.29.46,37.29s.38-13,.38-37.29c0-29.52-.12-37.29-.46-37.29S60.73,17.26,60.81,46.87Z"/><path d="M22.14,50.42c0,22.2.11,33.74.38,33.74s.38-11.54.38-33.74-.12-33.73-.38-33.73S22.14,28.23,22.14,50.42Z"/><path d="M62.79,50.42c0,22.2.11,33.74.38,33.74s.38-11.54.38-33.74-.12-33.73-.38-33.73S62.79,28.23,62.79,50.42Z"/><path d="M188.53,50.42c0,22.2.11,33.74.38,33.74s.38-11.54.38-33.74-.11-33.73-.38-33.73S188.53,28.23,188.53,50.42Z"/><path d="M20.24,52.2c0,21,.11,32,.38,32s.38-11,.38-32-.12-32-.38-32S20.24,31.2,20.24,52.2Z"/><path d="M64.69,52.86c0,20.56.11,31.3.38,31.3s.38-10.74.38-31.3-.12-31.29-.38-31.29S64.69,32.31,64.69,52.86Z"/><path d="M146,52.86c0,20.56.12,31.3.38,31.3s.38-10.74.38-31.3-.11-31.29-.38-31.29S146,32.31,146,52.86Z"/><path d="M67,24.85c-.19,16.47.08,59.13.38,59.22.54.22.54-58.77,0-59.17C67.15,24.77,67,24.72,67,24.85Z"/><path d="M186.63,54.37c0,19.58.11,29.79.38,29.79s.38-10.12.38-29.48-.11-29.6-.38-29.78S186.63,34.66,186.63,54.37Z"/><path d="M40.37,54.64c0,19.4.12,29.52.38,29.52s.38-10.12.38-29.52S41,25.12,40.75,25.12,40.37,35.24,40.37,54.64Z"/><path d="M103.43,55.08c0,19.09.12,29.08.38,29.08s.38-10,.38-29.08S104.08,26,103.81,26,103.43,36,103.43,55.08Z"/><path d="M24.11,55.62c.08,18.51.23,28.32.5,28.32s.42-9.81.49-28.32c.08-25,0-28.28-.49-28.28S24,30.62,24.11,55.62Z"/><path d="M150.08,55.75c0,18.29.23,28.41.46,28.41s.38-10,.38-28.41c0-22.42-.11-28.41-.46-28.41S150,33.24,150.08,55.75Z"/><path d="M202.66,55.62c.08,22.1.23,28.27.61,28.45s.46-5.73.46-28.28c0-25.08-.08-28.45-.57-28.45S202.59,30.67,202.66,55.62Z"/><path d="M70.76,56.9c0,19.31.12,27.3.42,27.17a.58.58,0,0,0,.38-.49c0-.18,0-12.38,0-27.17,0-17.62-.11-26.85-.38-26.85S70.76,39,70.76,56.9Z"/><path d="M26.32,58.19c0,17,.11,26,.38,26s.38-9,.38-26-.12-26-.38-26S26.32,41.19,26.32,58.19Z"/><path d="M182.45,58.63c0,16.74.12,25.53.38,25.53s.38-8.79.38-25.53-.11-25.52-.38-25.52S182.45,41.9,182.45,58.63Z"/><path d="M190.43,58.63c0,20.29.11,25.57.49,25.39s.46-5.59.46-25.39-.12-25.25-.46-25.43S190.43,38.35,190.43,58.63Z"/><path d="M73,59.3c0,16.29.12,24.86.38,24.86s.38-8.57.38-24.86-.11-24.86-.38-24.86S73,43,73,59.3Z"/><path d="M200.69,59.3c0,16.29.11,24.86.38,24.86s.38-8.57.38-24.86-.12-24.86-.38-24.86S200.69,43,200.69,59.3Z"/><path d="M141.8,60c0,15.84.12,24.19.38,24.19s.38-8.35.38-24.19-.11-24.2-.38-24.2S141.8,44.12,141.8,60Z"/><path d="M147.88,60c0,15.53.15,24.19.38,24.19s.42-8.7.46-24.19c.07-19.14,0-24.2-.34-24.2S147.88,40.92,147.88,60Z"/><path d="M58.61,60.41c0,15.54.11,23.75.38,23.75s.38-8.21.38-23.75S59.25,36.66,59,36.66,58.61,44.87,58.61,60.41Z"/><path d="M204.86,60.41c0,15.54.12,23.75.38,23.75s.38-8.21.38-23.75-.11-23.75-.38-23.75S204.86,44.87,204.86,60.41Z"/><path d="M123.57,61.08c0,15.09.11,23.08.38,23.08s.38-8,.38-23.08S124.21,38,124,38,123.57,46,123.57,61.08Z"/><path d="M152.06,61.08c0,15.09.11,23.08.38,23.08s.38-8,.38-23.08S152.71,38,152.44,38,152.06,46,152.06,61.08Z"/><path d="M198.79,61.08c0,15.09.11,23.08.38,23.08s.38-8,.38-23.08S199.43,38,199.17,38,198.79,46,198.79,61.08Z"/><path d="M137.7,61.61c.08,17.31.23,22.28.61,22.46s.45-4.53.45-22.28c0-19.76-.07-22.46-.57-22.46S137.62,42,137.7,61.61Z"/><path d="M158.14,61.74c0,14.65.11,22.42.38,22.42s.38-7.77.38-22.42-.12-22.41-.38-22.41S158.14,47.09,158.14,61.74Z"/><path d="M164.22,61.74c0,14.65.11,22.42.38,22.42s.38-7.77.38-22.42-.12-22.41-.38-22.41S164.22,47.09,164.22,61.74Z"/><path d="M184.35,61.79c0,17.75.11,22.41.49,22.28s.5-5.15.57-22.46c.08-19.62,0-22.28-.49-22.28S184.35,42,184.35,61.79Z"/><path d="M206.76,61.74c0,14.65.12,22.42.38,22.42s.38-7.77.38-22.42-.11-22.41-.38-22.41S206.76,47.09,206.76,61.74Z"/><path d="M68.86,62.19c0,14.33.12,22,.38,22s.38-7.64.38-22-.11-22-.38-22S68.86,47.85,68.86,62.19Z"/><path d="M113.39,62.05c.07,14.21.26,21.89.49,21.89s.42-7.68.5-21.89c.07-19.26,0-21.84-.5-21.84S113.31,42.79,113.39,62.05Z"/><path d="M196.51,62.19c0,17.44.11,22,.49,21.83s.46-4.88.46-21.83-.12-21.71-.46-21.89S196.51,44.74,196.51,62.19Z"/><path d="M74.94,62.85c0,13.89.12,21.31.38,21.31s.38-7.42.38-21.31-.11-21.31-.38-21.31S74.94,49,74.94,62.85Z"/><path d="M131.62,62.72c.08,16.42.23,21.17.61,21.35s.46-4.31.46-21.17c0-18.74-.08-21.36-.57-21.36S131.55,44.07,131.62,62.72Z"/><path d="M180.55,62.85c0,13.89.12,21.31.38,21.31s.38-7.42.38-21.31-.11-21.31-.38-21.31S180.55,49,180.55,62.85Z"/><path d="M111.41,63.52c0,13.45.12,20.64.38,20.64s.38-7.19.38-20.64-.11-20.64-.38-20.64S111.41,50.07,111.41,63.52Z"/><path d="M166.12,63.52c0,13.45.11,20.64.38,20.64s.38-7.19.38-20.64-.12-20.64-.38-20.64S166.12,50.07,166.12,63.52Z"/><path d="M95.08,64c0,16,.11,20.24.49,20.06S96,79.5,96,64,95.91,44,95.57,43.85,95.08,47.94,95.08,64Z"/><path d="M121.67,64c0,13.18.11,20.2.38,20.2s.38-7,.38-20.2-.12-20.2-.38-20.2S121.67,50.78,121.67,64Z"/><path d="M139.9,64c0,13.18.12,20.2.38,20.2s.38-7,.38-20.2-.11-20.2-.38-20.2S139.9,50.78,139.9,64Z"/><path d="M105.33,64.63c0,12.74.12,19.53.38,19.53s.38-6.79.38-19.53S106,45.1,105.71,45.1,105.33,51.89,105.33,64.63Z"/><path d="M212.84,64.63c0,12.74.12,19.53.38,19.53s.38-6.79.38-19.53-.11-19.53-.38-19.53S212.84,51.89,212.84,64.63Z"/><path d="M76.84,65.34c0,14.91.12,18.86.5,18.73s.49-4.44.57-18.91c.07-16.47,0-18.73-.5-18.73S76.84,48.78,76.84,65.34Z"/><path d="M101.15,65.34c0,14.91.12,18.86.5,18.73s.49-4.44.57-18.91c.07-16.47,0-18.73-.5-18.73S101.15,48.78,101.15,65.34Z"/><path d="M115.59,65.29c0,12.3.11,18.87.38,18.87s.38-6.57.38-18.87-.11-18.86-.38-18.86S115.59,53,115.59,65.29Z"/><path d="M28.22,66.4c0,11.54.15,17.76.38,17.76S29,77.94,29,66.4s-.12-17.75-.38-17.75S28.22,54.86,28.22,66.4Z"/><path d="M42.35,66.27c.07,13.58.23,17.62.61,17.8s.45-3.6.45-17.62c0-15.58-.07-17.8-.57-17.8S42.27,50.78,42.35,66.27Z"/><path d="M125.54,66.27c.08,11.41.27,17.67.5,17.67s.42-6.26.49-17.67c.08-15.54,0-17.62-.49-17.62S125.47,50.73,125.54,66.27Z"/><path d="M154,66.4c0,11.54.15,17.76.38,17.76s.38-6.22.38-17.76-.11-17.75-.38-17.75S154,54.86,154,66.4Z"/><path d="M168.32,66.4c0,11.19.23,17.76.46,17.76s.38-6.48.38-17.76c0-13.89-.12-17.75-.46-17.75S168.24,52.42,168.32,66.4Z"/><path d="M174.47,66.4c0,11.54.16,17.76.38,17.76s.38-6.22.38-17.76-.11-17.75-.38-17.75S174.47,54.86,174.47,66.4Z"/><path d="M97.36,67.07c0,11.1.15,17.09.38,17.09s.38-6,.38-17.09S98,50,97.74,50,97.36,56,97.36,67.07Z"/><path d="M210.94,67.07c0,11.1.15,17.09.38,17.09s.38-6,.38-17.09S211.55,50,211.32,50,210.94,56,210.94,67.07Z"/><path d="M107.23,67.51c0,13.19.12,16.69.5,16.51s.45-3.81.45-16.51-.11-16.38-.45-16.56S107.23,54.33,107.23,67.51Z"/><path d="M30.19,68c.08,10.21.27,15.9.5,15.9s.41-5.69.49-15.9c.08-13.93,0-15.84-.49-15.84S30.12,54.11,30.19,68Z"/><path d="M38.47,68.84c0,9.9.16,15.32.38,15.32s.38-5.42.38-15.32-.15-15.31-.38-15.31S38.47,58.94,38.47,68.84Z"/><path d="M79.12,68.84c0,9.9.15,15.32.38,15.32s.38-5.42.38-15.32-.15-15.31-.38-15.31S79.12,58.94,79.12,68.84Z"/><path d="M87.1,68.84c0,9.9.15,15.32.38,15.32s.38-5.42.38-15.32-.15-15.31-.38-15.31S87.1,58.94,87.1,68.84Z"/><path d="M109.51,68.84c0,9.9.15,15.32.38,15.32s.38-5.42.38-15.32-.15-15.31-.38-15.31S109.51,58.94,109.51,68.84Z"/><path d="M194.61,68.84c0,9.9.15,15.32.38,15.32s.38-5.42.38-15.32-.15-15.31-.38-15.31S194.61,58.94,194.61,68.84Z"/><path d="M119.58,55c-.11.32-.15,6.93-.11,14.7.07,10.87.22,14.2.6,14.38s.46-3,.46-14.74c0-9.94-.11-14.91-.38-14.91S119.66,54.68,119.58,55Z"/><path d="M156.24,69.29c0,9.63.15,14.87.38,14.87s.38-5.24.38-14.87-.15-14.87-.38-14.87S156.24,59.66,156.24,69.29Z"/><path d="M162.32,69.29c0,9.63.15,14.87.38,14.87s.38-5.24.38-14.87-.16-14.87-.38-14.87S162.32,59.66,162.32,69.29Z"/><path d="M176.37,69.29c0,9.63.16,14.87.38,14.87s.38-5.24.38-14.87-.15-14.87-.38-14.87S176.37,59.66,176.37,69.29Z"/><path d="M32.39,70.62c0,8.74.16,13.54.38,13.54s.38-4.8.38-13.54S33,57.08,32.77,57.08,32.39,61.87,32.39,70.62Z"/><path d="M44.55,70.62c0,8.74.15,13.54.38,13.54s.38-4.8.38-13.54-.15-13.54-.38-13.54S44.55,61.87,44.55,70.62Z"/><path d="M117.49,70.62c0,8.74.15,13.54.38,13.54s.38-4.8.38-13.54-.15-13.54-.38-13.54S117.49,61.87,117.49,70.62Z"/><path d="M127.75,70.62c0,8.74.15,13.54.38,13.54s.38-4.8.38-13.54-.15-13.54-.38-13.54S127.75,61.87,127.75,70.62Z"/><path d="M143.82,70.49c.07,10.25.19,13.4.57,13.53s.45-2.7.45-13.36c0-11.63-.07-13.58-.57-13.58S143.74,59,143.82,70.49Z"/><path d="M160,70.62c0,8.48.15,13.54.38,13.54s.38-5.15.45-13.54c.08-10.61,0-13.54-.34-13.54S160,60.1,160,70.62Z"/><path d="M170.29,70.62c0,8.74.16,13.54.38,13.54s.38-4.8.38-13.54-.15-13.54-.38-13.54S170.29,61.87,170.29,70.62Z"/><path d="M89,71.06c0,10.35.11,13.14.49,13s.46-3.1.46-13-.12-12.83-.46-13S89,60.72,89,71.06Z"/><path d="M34.29,71.73c0,8,.16,12.43.38,12.43s.38-4.44.38-12.43S34.9,59.3,34.67,59.3,34.29,63.74,34.29,71.73Z"/><path d="M16.06,72.39c0,7.55.15,11.77.38,11.77s.38-4.22.38-11.77-.15-11.76-.38-11.76S16.06,64.85,16.06,72.39Z"/><path d="M36.35,62.1c-.35,1.11,0,21.84.41,21.75.54-.18.73-22.33.19-22.33C36.73,61.52,36.46,61.79,36.35,62.1Z"/><path d="M46.45,72.84c0,7.23.15,11.32.38,11.32s.38-4.09.38-11.32-.15-11.32-.38-11.32S46.45,65.6,46.45,72.84Z"/><path d="M133.83,72.84c0,7.23.15,11.32.38,11.32s.38-4.09.38-11.32-.16-11.32-.38-11.32S133.83,65.6,133.83,72.84Z"/><path d="M93.18,73.5c0,6.8.15,10.66.38,10.66s.38-3.86.38-10.66-.15-10.65-.38-10.65S93.18,66.71,93.18,73.5Z"/><path d="M192.71,74.17c0,6.35.15,10,.38,10s.38-3.64.38-10-.15-10-.38-10S192.71,67.82,192.71,74.17Z"/><path d="M50.63,74.61c0,6.09.15,9.55.38,9.55s.38-3.46.38-9.55-.15-9.54-.38-9.54S50.63,68.53,50.63,74.61Z"/><path d="M129.65,74.61c0,6.09.15,9.55.38,9.55s.38-3.46.38-9.55-.16-9.54-.38-9.54S129.65,68.53,129.65,74.61Z"/><path d="M172.19,74.61c0,7.51.12,9.59.5,9.41s.45-2.39.45-9.41-.11-9.27-.45-9.45S172.19,67.11,172.19,74.61Z"/><path d="M135.72,75.28c0,5.64.16,8.88.38,8.88s.38-3.24.38-8.88-.15-8.88-.38-8.88S135.72,69.64,135.72,75.28Z"/><path d="M178.27,75.32c0,6.93.12,8.88.5,8.75s.49-2.44.57-8.92c.07-7.59,0-8.75-.5-8.75S178.27,67.65,178.27,75.32Z"/><path d="M81,76c0,5.19.15,8.21.38,8.21s.38-3,.38-8.21-.15-8.22-.38-8.22S81,70.75,81,76Z"/><path d="M85.2,76c0,5.19.15,8.21.38,8.21S86,81.14,86,76s-.15-8.22-.38-8.22S85.2,70.75,85.2,76Z"/><path d="M208.85,69.15c-.11.36-.15,3.78-.11,7.68.08,5.15.23,7.06.61,7.24.57.22.68-14.78.07-15.23C209.2,68.71,209,68.84,208.85,69.15Z"/><path d="M48.65,77.72c.16,8.48.84,8.48.84,0,0-4.84-.11-6.43-.46-6.43S48.58,72.79,48.65,77.72Z"/><path d="M52.53,77.72c0,4,.15,6.44.38,6.44s.38-2.44.38-6.44-.15-6.43-.38-6.43S52.53,73.73,52.53,77.72Z"/><path d="M91.28,77.72c0,4,.15,6.44.38,6.44s.38-2.44.38-6.44-.15-6.43-.38-6.43S91.28,73.73,91.28,77.72Z"/><path d="M215.12,77.77c0,5,.12,6.43.5,6.3s.49-1.95.57-6.48c.07-5.42,0-6.3-.5-6.3S215.12,72.26,215.12,77.77Z"/><path d="M56.71,78.17c0,3.68.15,6,.38,6s.38-2.31.38-6-.15-6-.38-6S56.71,74.48,56.71,78.17Z"/><path d="M82.92,78.17c0,4.66.11,6,.49,5.85s.46-1.68.46-5.85-.11-5.73-.46-5.91S82.92,73.5,82.92,78.17Z"/><path d="M8.08,78.83c0,3.24.15,5.33.38,5.33s.38-2.09.38-5.33-.15-5.33-.38-5.33S8.08,75.59,8.08,78.83Z"/><path d="M99.26,78.83c0,3.24.15,5.33.38,5.33s.38-2.09.38-5.33-.16-5.33-.38-5.33S99.26,75.59,99.26,78.83Z"/><path d="M217.4,78.83c0,3.24.15,5.33.38,5.33s.38-2.09.38-5.33-.15-5.33-.38-5.33S217.4,75.59,217.4,78.83Z"/><path d="M14.16,79.5c0,2.79.15,4.66.38,4.66s.38-1.87.38-4.66-.15-4.66-.38-4.66S14.16,76.7,14.16,79.5Z"/><path d="M54.73,79.5c.08,2.57.27,4.66.5,4.66s.34-2,.34-4.66c0-3.42-.12-4.66-.46-4.66S54.66,76,54.73,79.5Z"/><path d="M10,79.94c0,2.53.15,4.22.38,4.22s.38-1.69.38-4.22-.15-4.22-.38-4.22S10,77.41,10,79.94Z"/><path d="M5.8,80.65c0,2.66.12,3.55.5,3.42s.49-1.38.57-3.6c.07-2.84,0-3.41-.5-3.41S5.8,77.72,5.8,80.65Z"/><path d="M219.3,80.61c0,2.08.15,3.55.38,3.55s.38-1.47.38-3.55-.15-3.55-.38-3.55S219.3,78.52,219.3,80.61Z"/><path d="M3.9,81.72c0,1.33.19,2.44.38,2.44s.38-1.11.38-2.44-.15-2.44-.38-2.44S3.9,80.38,3.9,81.72Z"/><path d="M12.07,79.81c-.34,1.06-.08,4.13.38,4.13s.72-3.78.23-4.35C12.41,79.28,12.22,79.36,12.07,79.81Z"/><path d="M221.28,82.47c.07.8.3,1.47.49,1.47s.42-.67.49-1.47c.12-1.06,0-1.42-.49-1.42S221.16,81.41,221.28,82.47Z"/><path d="M2.57,85.05a.5.5,0,0,0,.27.66c1,.45,219.69,0,219.69-.44C222.53,84.65,2.92,84.42,2.57,85.05Z"/><path d="M3.9,89.26c0,1.64.16,2.89.38,2.89s.38-1.25.38-2.89-.15-2.88-.38-2.88S3.9,87.62,3.9,89.26Z"/><path d="M6,86.69a11.71,11.71,0,0,0-.23,2.88c0,2,.12,2.58.57,2.58s.57-.58.57-2.62C6.94,87,6.6,86,6,86.69Z"/><path d="M8.08,91.7c0,3.24.15,5.33.38,5.33s.38-2.09.38-5.33-.15-5.32-.38-5.32S8.08,88.46,8.08,91.7Z"/><path d="M10,90.59c0,2.53.15,4.22.38,4.22s.38-1.69.38-4.22-.15-4.21-.38-4.21S10,88.06,10,90.59Z"/><path d="M12.07,86.91C11.73,88,12,91,12.45,91s.72-3.77.23-4.35C12.41,86.38,12.22,86.47,12.07,86.91Z"/><path d="M14.16,91c0,2.79.15,4.66.38,4.66s.38-1.87.38-4.66-.15-4.66-.38-4.66S14.16,88.24,14.16,91Z"/><path d="M16.06,98.14c0,7.55.15,11.76.38,11.76s.38-4.21.38-11.76-.15-11.76-.38-11.76S16.06,90.59,16.06,98.14Z"/><path d="M18.19,86.69C18.07,86.82,18,103.6,18,124c0,32.59.08,37,.57,37s.57-4.39.57-37c0-20.37-.15-37.15-.34-37.29A.41.41,0,0,0,18.19,86.69Z"/><path d="M20.24,118.34c0,21,.11,32,.38,32s.38-11,.38-32-.12-32-.38-32S20.24,97.34,20.24,118.34Z"/><path d="M22.14,120.11c0,22.2.11,33.74.38,33.74s.38-11.54.38-33.74-.12-33.73-.38-33.73S22.14,97.92,22.14,120.11Z"/><path d="M24.27,86.69c-.12.13-.23,12.92-.23,28.41,0,24.68.07,28.1.57,28.1s.57-3.42.57-28.15c0-15.49-.15-28.27-.34-28.41A.41.41,0,0,0,24.27,86.69Z"/><path d="M26.32,112.34c0,17,.11,26,.38,26s.38-9,.38-26-.12-26-.38-26S26.32,95.34,26.32,112.34Z"/><path d="M28.22,104.13c0,11.54.15,17.76.38,17.76s.38-6.22.38-17.76-.12-17.75-.38-17.75S28.22,92.59,28.22,104.13Z"/><path d="M30.34,86.69c-.11.13-.22,7.32-.22,16,0,13.63.07,15.67.57,15.67s.57-2,.57-15.72C31.26,88.33,31.1,85.8,30.34,86.69Z"/><path d="M32.39,99.92c0,8.74.16,13.53.38,13.53s.38-4.79.38-13.53S33,86.38,32.77,86.38,32.39,91.17,32.39,99.92Z"/><path d="M34.29,98.81c0,8,.16,12.43.38,12.43s.38-4.44.38-12.43-.15-12.43-.38-12.43S34.29,90.82,34.29,98.81Z"/><path d="M36.38,86.91c-.11.31-.15,5.37-.11,11.19.08,8,.23,10.65.61,10.83.61.22.68-21.89.07-22.33C36.73,86.47,36.5,86.6,36.38,86.91Z"/><path d="M38.47,101.69c0,9.9.16,15.32.38,15.32s.38-5.42.38-15.32-.15-15.31-.38-15.31S38.47,91.79,38.47,101.69Z"/><path d="M40.37,115.9c0,19.39.12,29.51.38,29.51s.38-10.12.38-29.51S41,86.38,40.75,86.38,40.37,96.5,40.37,115.9Z"/><path d="M42.5,86.69c-.11.13-.23,8.12-.23,17.75,0,15.23.08,17.45.57,17.45s.57-2.22.57-17.49c0-9.63-.15-17.62-.34-17.76A.41.41,0,0,0,42.5,86.69Z"/><path d="M44.55,99.92c0,8.74.15,13.53.38,13.53s.38-4.79.38-13.53-.15-13.54-.38-13.54S44.55,91.17,44.55,99.92Z"/><path d="M46.45,97.7c0,7.23.15,11.32.38,11.32s.38-4.09.38-11.32-.15-11.32-.38-11.32S46.45,90.46,46.45,97.7Z"/><path d="M48.73,92.81c0,4,.15,6.44.38,6.44s.38-2.44.38-6.44-.15-6.43-.38-6.43S48.73,88.82,48.73,92.81Z"/><path d="M50.63,95.92c0,6.08.15,9.54.38,9.54s.38-3.46.38-9.54-.15-9.54-.38-9.54S50.63,89.84,50.63,95.92Z"/><path d="M52.53,92.81c0,4,.15,6.44.38,6.44s.38-2.44.38-6.44-.15-6.43-.38-6.43S52.53,88.82,52.53,92.81Z"/><path d="M54.73,91c-.07,3.5,0,4.66.38,4.66s.46-1.2.46-4.4C55.57,85.31,54.88,85.09,54.73,91Z"/><path d="M56.71,92.37c0,3.68.15,6,.38,6s.38-2.31.38-6-.15-6-.38-6S56.71,88.69,56.71,92.37Z"/><path d="M58.61,110.13c0,15.53.11,23.74.38,23.74s.38-8.21.38-23.74S59.25,86.38,59,86.38,58.61,94.59,58.61,110.13Z"/><path d="M60.81,123.62c-.08,29.65,0,37.33.38,37.33.57,0,.68-73.91.08-74.35C61,86.42,60.85,99.21,60.81,123.62Z"/><path d="M62.79,120.11c0,22.2.11,33.74.38,33.74s.38-11.54.38-33.74-.12-33.73-.38-33.73S62.79,97.92,62.79,120.11Z"/><path d="M64.69,117.67c0,20.55.11,31.3.38,31.3s.38-10.75.38-31.3-.12-31.29-.38-31.29S64.69,97.12,64.69,117.67Z"/><path d="M67,115.85c0,19.4.12,29.56.38,29.56.54,0,.54-58.41,0-58.81C67.08,86.42,67,96.28,67,115.85Z"/><path d="M68.86,108.35c0,14.34.12,22,.38,22s.38-7.63.38-22-.11-22-.38-22S68.86,94,68.86,108.35Z"/><path d="M71,86.69c-.46.49-.3,54.29.11,54.29s.38-9.41.38-27.3c0-15,0-27.3-.11-27.3A.66.66,0,0,0,71,86.69Z"/><path d="M73,111.24c0,16.29.12,24.85.38,24.85s.38-8.56.38-24.85-.11-24.86-.38-24.86S73,94.94,73,111.24Z"/><path d="M74.94,107.68c0,13.9.12,21.31.38,21.31s.38-7.41.38-21.31-.11-21.3-.38-21.3S74.94,93.79,74.94,107.68Z"/><path d="M77.07,86.69c-.11.13-.23,8.65-.23,18.86,0,16.21.08,18.56.57,18.56s.57-2.35.57-18.6c0-10.25-.15-18.73-.34-18.87A.41.41,0,0,0,77.07,86.69Z"/><path d="M79.12,101.69c0,9.9.15,15.32.38,15.32s.38-5.42.38-15.32-.15-15.31-.38-15.31S79.12,91.79,79.12,101.69Z"/><path d="M81,94.59c0,5.19.15,8.21.38,8.21s.38-3,.38-8.21-.15-8.21-.38-8.21S81,89.4,81,94.59Z"/><path d="M83.19,86.64a36.12,36.12,0,0,0-.27,6c0,4.4.11,5.73.49,5.59s.5-1.77.57-5.68C84.06,87.58,83.83,85.89,83.19,86.64Z"/><path d="M85.2,94.59c0,5.19.15,8.21.38,8.21s.38-3,.38-8.21-.15-8.21-.38-8.21S85.2,89.4,85.2,94.59Z"/><path d="M87.1,104.8c0,12,.11,18.42.38,18.42s.38-6.44.38-18.42-.12-18.42-.38-18.42S87.1,92.81,87.1,104.8Z"/><path d="M89.23,86.69c-.12.13-.23,6.52-.23,14.2,0,12.08.07,13.9.57,13.9s.57-1.87.57-13.94C90.14,88.15,90,85.8,89.23,86.69Z"/><path d="M91.28,92.81c0,4,.15,6.44.38,6.44s.38-2.44.38-6.44-.15-6.43-.38-6.43S91.28,88.82,91.28,92.81Z"/><path d="M93.18,97c0,6.79.15,10.65.38,10.65s.38-3.86.38-10.65-.15-10.65-.38-10.65S93.18,90.24,93.18,97Z"/><path d="M95.3,86.69c-.11.13-.22,9.72-.22,21.3,0,18.38.07,21,.57,21s.57-2.62.57-21c0-11.59-.16-21.17-.35-21.31A.41.41,0,0,0,95.3,86.69Z"/><path d="M97.36,103.47c0,11.09.15,17.09.38,17.09s.38-6,.38-17.09S98,86.38,97.74,86.38,97.36,92.37,97.36,103.47Z"/><path d="M99.26,94.15c0,4.88.15,7.76.38,7.76S100,99,100,94.15s-.16-7.77-.38-7.77S99.26,89.26,99.26,94.15Z"/><path d="M101.38,86.69c-.11.13-.23,6-.23,13.09,0,11.06.08,12.79.57,12.79s.57-1.73.57-12.83C102.29,88.06,102.14,85.8,101.38,86.69Z"/><path d="M103.43,118.34c0,21,.12,32,.38,32s.38-11,.38-32-.11-32-.38-32S103.43,97.34,103.43,118.34Z"/><path d="M105.33,105.91c0,12.74.12,19.53.38,19.53s.38-6.79.38-19.53-.11-19.53-.38-19.53S105.33,93.17,105.33,105.91Z"/><path d="M107.46,86.69c-.11.13-.23,7.32-.23,16,0,13.63.08,15.67.57,15.67s.57-2,.57-15.72C108.37,88.33,108.22,85.8,107.46,86.69Z"/><path d="M109.51,99.92c0,8.74.15,13.53.38,13.53s.38-4.79.38-13.53-.15-13.54-.38-13.54S109.51,91.17,109.51,99.92Z"/><path d="M111.41,105.91c0,12.74.12,19.53.38,19.53s.38-6.79.38-19.53-.11-19.53-.38-19.53S111.41,93.17,111.41,105.91Z"/><path d="M113.54,86.69c-.11.13-.23,10-.23,22,0,19,.08,21.66.57,21.66s.57-2.71.57-21.7c0-12-.15-21.84-.34-22A.41.41,0,0,0,113.54,86.69Z"/><path d="M115.59,105.24c0,12.3.11,18.87.38,18.87s.38-6.57.38-18.87-.11-18.86-.38-18.86S115.59,93,115.59,105.24Z"/><path d="M117.49,99.92c0,8.74.15,13.53.38,13.53s.38-4.79.38-13.53-.15-13.54-.38-13.54S117.49,91.17,117.49,99.92Z"/><path d="M119.62,86.69c-.12.13-.23,6.83-.23,14.87,0,12.65.08,14.56.57,14.56s.57-1.91.57-14.61C120.53,88.24,120.38,85.8,119.62,86.69Z"/><path d="M121.67,106.57c0,13.19.11,20.2.38,20.2s.38-7,.38-20.2-.12-20.19-.38-20.19S121.67,93.39,121.67,106.57Z"/><path d="M123.57,109.46c0,15.09.11,23.08.38,23.08s.38-8,.38-23.08-.12-23.08-.38-23.08S123.57,94.37,123.57,109.46Z"/><path d="M125.7,86.69c-.12.13-.23,8.12-.23,17.75,0,15.23.07,17.45.57,17.45s.57-2.22.57-17.49c0-9.63-.15-17.62-.34-17.76A.41.41,0,0,0,125.7,86.69Z"/><path d="M127.75,99.92c0,8.74.15,13.53.38,13.53s.38-4.79.38-13.53-.15-13.54-.38-13.54S127.75,91.17,127.75,99.92Z"/><path d="M129.65,95.92c0,6.08.15,9.54.38,9.54s.38-3.46.38-9.54-.16-9.54-.38-9.54S129.65,89.84,129.65,95.92Z"/><path d="M131.77,86.69c-.11.13-.22,9.72-.22,21.3,0,18.38.07,21,.57,21s.57-2.62.57-21c0-11.59-.16-21.17-.35-21.31A.41.41,0,0,0,131.77,86.69Z"/><path d="M133.83,91.7c0,3.24.15,5.33.38,5.33s.38-2.09.38-5.33-.16-5.32-.38-5.32S133.83,88.46,133.83,91.7Z"/><path d="M135.72,95.26c0,5.63.16,8.87.38,8.87s.38-3.24.38-8.87-.15-8.88-.38-8.88S135.72,89.62,135.72,95.26Z"/><path d="M137.85,86.69c-.11.13-.23,10.25-.23,22.41,0,19.36.08,22.11.57,22.11s.57-2.75.57-22.15c0-12.21-.15-22.28-.34-22.42A.41.41,0,0,0,137.85,86.69Z"/><path d="M139.9,106.57c0,13.19.12,20.2.38,20.2s.38-7,.38-20.2-.11-20.19-.38-20.19S139.9,93.39,139.9,106.57Z"/><path d="M141.8,110.57c0,15.85.12,24.19.38,24.19s.38-8.34.38-24.19-.11-24.19-.38-24.19S141.8,94.72,141.8,110.57Z"/><path d="M144,86.69c0,.22,0,6.3-.07,13.54-.08,10.34,0,13.22.42,13.22s.45-3,.45-13.53c0-8.75-.15-13.54-.38-13.54A.43.43,0,0,0,144,86.69Z"/><path d="M146,119.45c0,21.75.12,33.07.38,33.07s.38-11.32.38-33.07-.11-33.07-.38-33.07S146,97.7,146,119.45Z"/><path d="M147.88,110.57c0,15.85.12,24.19.38,24.19s.38-8.34.38-24.19-.11-24.19-.38-24.19S147.88,94.72,147.88,110.57Z"/><path d="M150.12,114c0,15.22-.07,28-.15,28.45s.11.76.42.76.53-4.27.53-28.41c0-18.65-.11-28.41-.38-28.41S150.16,95.92,150.12,114Z"/><path d="M152.06,109.46c0,15.09.11,23.08.38,23.08s.38-8,.38-23.08-.11-23.08-.38-23.08S152.06,94.37,152.06,109.46Z"/><path d="M154,104.13c0,11.54.15,17.76.38,17.76s.38-6.22.38-17.76-.11-17.75-.38-17.75S154,92.59,154,104.13Z"/><path d="M156.24,101.25c0,9.63.15,14.87.38,14.87s.38-5.24.38-14.87-.15-14.87-.38-14.87S156.24,91.62,156.24,101.25Z"/><path d="M158.14,108.79c0,14.65.11,22.42.38,22.42s.38-7.77.38-22.42-.12-22.41-.38-22.41S158.14,94.15,158.14,108.79Z"/><path d="M160,99.92c0,10.52.11,13.53.49,13.53s.42-2.93.34-13.53c-.07-8.39-.22-13.54-.45-13.54S160,91.44,160,99.92Z"/><path d="M162.32,101.25c0,9.63.15,14.87.38,14.87s.38-5.24.38-14.87-.16-14.87-.38-14.87S162.32,91.62,162.32,101.25Z"/><path d="M164.22,110.57c0,15.85.11,24.19.38,24.19s.38-8.34.38-24.19-.12-24.19-.38-24.19S164.22,94.72,164.22,110.57Z"/><path d="M166.12,108.79c0,14.65.11,22.42.38,22.42s.38-7.77.38-22.42-.12-22.41-.38-22.41S166.12,94.15,166.12,108.79Z"/><path d="M168.32,104.13c-.08,14,0,17.76.38,17.76s.46-3.86.46-17.76c0-11.27-.16-17.75-.38-17.75S168.36,93,168.32,104.13Z"/><path d="M170.29,99.92c0,8.74.16,13.53.38,13.53s.38-4.79.38-13.53-.15-13.54-.38-13.54S170.29,91.17,170.29,99.92Z"/><path d="M172.19,95.92c0,7.5.12,9.59.5,9.41s.45-2.4.45-9.41-.11-9.28-.45-9.45S172.19,88.42,172.19,95.92Z"/><path d="M174.47,104.13c0,11.54.16,17.76.38,17.76s.38-6.22.38-17.76-.11-17.75-.38-17.75S174.47,92.59,174.47,104.13Z"/><path d="M176.37,101.25c0,9.63.16,14.87.38,14.87s.38-5.24.38-14.87-.15-14.87-.38-14.87S176.37,91.62,176.37,101.25Z"/><path d="M178.5,86.69c-.11.13-.23,4.13-.23,8.88,0,7.32.08,8.56.57,8.56s.57-1.24.57-8.61C179.41,87.66,179.22,85.84,178.5,86.69Z"/><path d="M180.55,107.68c0,13.9.12,21.31.38,21.31s.38-7.41.38-21.31-.11-21.3-.38-21.3S180.55,93.79,180.55,107.68Z"/><path d="M182.45,111.9c0,16.74.12,25.52.38,25.52s.38-8.78.38-25.52-.11-25.52-.38-25.52S182.45,95.17,182.45,111.9Z"/><path d="M184.58,86.69c-.12.13-.23,10.25-.23,22.41,0,19.36.08,22.11.57,22.11s.57-2.75.57-22.15c0-12.21-.15-22.28-.34-22.42A.41.41,0,0,0,184.58,86.69Z"/><path d="M186.63,115.9c0,19.39.11,29.51.38,29.51s.38-10.12.38-29.51-.11-29.52-.38-29.52S186.63,96.5,186.63,115.9Z"/><path d="M188.53,120.11c0,22.2.11,33.74.38,33.74s.38-11.54.38-33.74-.11-33.73-.38-33.73S188.53,97.92,188.53,120.11Z"/><path d="M190.66,86.69c-.12.13-.23,11.63-.23,25.52,0,22.11.07,25.21.57,25.21s.57-3.1.57-25.25c0-13.94-.15-25.39-.34-25.53A.41.41,0,0,0,190.66,86.69Z"/><path d="M192.71,96.36c0,6.35.15,10,.38,10s.38-3.64.38-10-.15-10-.38-10S192.71,90,192.71,96.36Z"/><path d="M194.61,101.69c0,9.9.15,15.32.38,15.32s.38-5.42.38-15.32-.15-15.31-.38-15.31S194.61,91.79,194.61,101.69Z"/><path d="M196.77,86.64c-.15.18-.26,10.08-.26,22,0,17.18.11,21.71.49,21.57s.49-5,.57-21.66c0-11.81-.08-21.66-.23-21.84A.39.39,0,0,0,196.77,86.64Z"/><path d="M198.79,109.46c0,15.09.11,23.08.38,23.08s.38-8,.38-23.08-.12-23.08-.38-23.08S198.79,94.37,198.79,109.46Z"/><path d="M200.69,113c0,17.45.11,26.63.38,26.63s.38-9.18.38-26.63-.12-26.63-.38-26.63S200.69,95.57,200.69,113Z"/><path d="M202.81,86.69c-.11.13-.22,13.71-.22,30.18,0,26.28.07,29.88.57,29.88s.57-3.64.57-29.92c0-16.47-.16-30-.35-30.19A.41.41,0,0,0,202.81,86.69Z"/><path d="M204.86,111.9c0,16.74.12,25.52.38,25.52s.38-8.78.38-25.52-.11-25.52-.38-25.52S204.86,95.17,204.86,111.9Z"/><path d="M206.76,108.79c0,14.65.12,22.42.38,22.42s.38-7.77.38-22.42-.11-22.41-.38-22.41S206.76,94.15,206.76,108.79Z"/><path d="M208.85,86.91c-.11.36-.15,3.77-.11,7.68.08,5.15.23,7.06.61,7.23.57.23.68-14.78.07-15.22C209.2,86.47,209,86.6,208.85,86.91Z"/><path d="M210.94,103.47c0,11.09.15,17.09.38,17.09s.38-6,.38-17.09-.15-17.09-.38-17.09S210.94,92.37,210.94,103.47Z"/><path d="M212.84,105.91c0,12.74.12,19.53.38,19.53s.38-6.79.38-19.53-.11-19.53-.38-19.53S212.84,93.17,212.84,105.91Z"/><path d="M215.35,86.69a52.5,52.5,0,0,0-.23,6.43c0,5.15.08,6.13.57,6.13s.57-1,.57-6.17C216.26,87.44,216,85.89,215.35,86.69Z"/><path d="M217.4,91.7c0,3.24.15,5.33.38,5.33s.38-2.09.38-5.33-.15-5.32-.38-5.32S217.4,88.46,217.4,91.7Z"/><path d="M219.3,89.93c0,2.08.15,3.55.38,3.55s.38-1.47.38-3.55-.15-3.55-.38-3.55S219.3,87.84,219.3,89.93Z"/><path d="M221.43,86.69c-.5.58-.23,2.79.34,2.79.38,0,.57-.44.57-1.28C222.34,86.87,221.88,86.16,221.43,86.69Z"/><path class="cls-6" d="M108.33,85.58a7,7,0,0,0,0,4.23,2.48,2.48,0,0,1-.71,2.41c-.93.86-1.39.71-2.15-.55-.16,1.36-.31,2.67-.46,4-1.08.41-1.13-.5-1.38-1.15-1.54.3-1.33.95-1.44,3a5.24,5.24,0,0,1,0,1.3c0,.31-.46.56-.66.81-.31-.3-.77-.55-.82-.86a15.2,15.2,0,0,1-.1-2.61c-.61-.51-1.18-1.06-1.79-1.56a3.19,3.19,0,0,0-1.08-.56c-1.38-.35-1.68-.75-1.53-2.26a4.66,4.66,0,0,0-.92-3.68A2.66,2.66,0,0,1,95,86.53c0-1.1.21-2.21-.66-3.07-.21-.2-.16-.7-.16-1a34.88,34.88,0,0,0,.11-5.19,5.37,5.37,0,0,1,.3-3.57c.16-.3-.1-.76-.1-1.16.31-4.83,1.28-9.46,4-13.54,1.13-1.66,4.55-2.51,6.34-1.81,1.54.61,2.15,1.91,2.87,3.27a13,13,0,0,1,1.53,7c-1.58.55-1.89,1.21-1.89,3a5.28,5.28,0,0,1-.82,2.21c-.05.15-.87,0-.87,0a14.86,14.86,0,0,1,0-2.11c0-.25.15-.5.26-.86-1.18-.2-1.18-1.1-1-2.06a6.92,6.92,0,0,0-1.17-4.48,1,1,0,0,0-.62-.4c-1.12-.2-2.66,1.26-2.81,2.46,0,.66-.31,1.31-.36,2-.15,1.36-.2,2.76-.3,4.12a.6.6,0,0,0,0,.46c1,1.31.56,2.71.3,4.12a5.4,5.4,0,0,0,.11,1.82c.15,1.71.4,3.42.51,5.18s0,3.37,0,5A8,8,0,0,0,101,89.2a14.91,14.91,0,0,0,3.63-11.07,3.6,3.6,0,0,1,.56-2.27c.82-.85,3.12-.85,3.63-.1a7.32,7.32,0,0,1,.92,2.57c.16,1.36.11,2.77.16,4.18,0,.7-.21,1-.87.55A22.19,22.19,0,0,1,108.33,85.58Z"/><path class="cls-6" d="M107.29,110.34c0,1,.77,1.91,1.13,2.92a2.41,2.41,0,0,1-1.33,3,2,2,0,0,0-.77,1.36c-.1.75.1,1.56,0,2.31,0,.46-.56,1.16-.92,1.16-.92,0-1-.81-.77-1.41a2.16,2.16,0,0,0-.51-2.37,4.89,4.89,0,0,1-1.43-4.42,9.62,9.62,0,0,0-.41-5.74,5,5,0,0,1-.15-2.17c.15-1.91.35-3.87.46-5.83.1-3.68.15-7.35.2-11A2.45,2.45,0,0,1,106.27,86c1.13.45,1.38,1.41,1.89,2.31.21.41.67.71.87,1.16a10.48,10.48,0,0,1,.67,1.86c.61,2.77,1.17,5.54,2,8.31a51.53,51.53,0,0,1,4.09-10.27c.51-1,1.08-1.91,1.54-2.87a26.69,26.69,0,0,0,1.12-2.82,4.13,4.13,0,0,1,.41-.75c.56-.6,2.61-.71,3.38-.4s.92.95.82,1.66c-.26,2-.57,3.87-.77,5.84-.36,2.71-.72,5.48.46,8.1a3.46,3.46,0,0,1-.51,3.27,2.31,2.31,0,0,0-.41,1.31c0,2.67-.1,5.33.05,8a22.33,22.33,0,0,0,.87,3.12,7,7,0,0,1-.21,2.07c0,.45-.25.85-.25,1.25,0,2.12,0,4.18-1.18,6.09-.25.41.16,1.21.21,1.87a4,4,0,0,1-.26,1.3c0,.11-.71.11-.87,0a4.1,4.1,0,0,1-.56-1.15c-.1-.1-.05-.31,0-.46a1.65,1.65,0,0,0-.61-2.26c-.16-.1-.26-.4-.31-.5-.46.2-.87.35-1.28.55-.15-.45-.51-.91-.51-1.31,0-2.31.15-4.63.2-6.95a12.4,12.4,0,0,0-.35-1.86c-.06-.25-.16-.6-.06-.75.92-1.51.31-3.17.41-4.78,0-2.32,0-4.68,0-7.05,0-.7.16-1.46.11-2.26-.57,2.26-1.64,4.32-1.28,6.79a7,7,0,0,1-.72,3.32,8.09,8.09,0,0,0-1.12,3.93,3.24,3.24,0,0,1-.47,1.66,1,1,0,0,1-.76.4c-.26-.1-.67-.5-.67-.7.11-1.87-1.17-3.07-1.94-4.53a21.16,21.16,0,0,1-2.56-6.14,3.73,3.73,0,0,0-.46-1.21C107.24,104.1,107.19,107.22,107.29,110.34Z"/><path class="cls-6" d="M125.41,86.09c.1.1-.25.45-.41.65a3.88,3.88,0,0,1-.56-.4,12.26,12.26,0,0,1-.46-1.21c-.31.86-.46,1.41-.67,2s-.35,1.21-.61,1.21c-.41,0-.92-.36-1.38-.56,0,1.91,0,4.08,0,6.19a4,4,0,0,1-.72,2.87,2.21,2.21,0,0,0-.46,2.17,6.11,6.11,0,0,1,0,2.41.94.94,0,0,1-.81.55c-.26,0-.62-.5-.67-.8,0-1.16,0-2.32,0-3.52l-.31.15c-.35-.46-.66-1-1-1.46-.1-.1-.1-.35-.15-.35-1.59-.51-.92-1.67-.82-2.62a15.64,15.64,0,0,1,.31-1.66,3,3,0,0,0-1.28-3c-.72-.51-1-1.76-1.38-2.72a1,1,0,0,1,.71-1.41c.16,0,.31-.2.51-.25a2.52,2.52,0,0,0,1.69-2.87c-.15-1.66,0-3.37,0-5.08a1,1,0,0,0-.41-.76A1,1,0,0,1,116,74c1-1.66.26-3.57.66-5.33a14.4,14.4,0,0,0-.15-3,1.78,1.78,0,0,1,.26-.91c.81-.91,3.93-.8,4.34.3a9.57,9.57,0,0,1,.21,3.22c0,2.52,0,5,.1,7.55,0,1.41.15,2.82.26,4.53,1.74-1.25,3.37-2.41,4.8-3.47a6.77,6.77,0,0,1-.1-2.42c.92-2.56.46-5.23.56-7.85.06-1.15.06-2.31.21-3.47a1.23,1.23,0,0,1,1.28-1.26c.82,0,1.43-.6,2.4-.1a1.32,1.32,0,0,1,.82,1.46c-.1,3.17-.2,6.34-.26,9.51,0,.46.41,1,.52,1.41.15,1.11.3,2.27.41,3.37a1.35,1.35,0,0,1-.26.71c-1.28,1.86-.87,4-.87,6,0,1.81.26,3.62.41,5.38,0,.66-.1,1.31-.1,1.92,0,.9.05,1.76,0,2.66a6.75,6.75,0,0,1-.31,2.52,6.89,6.89,0,0,0-.51,3.93,3.8,3.8,0,0,1-.26,1.86,1.16,1.16,0,0,1-.92.45c-.2,0-.56-.5-.51-.75a8.3,8.3,0,0,0-1.28-5.39,11.77,11.77,0,0,1-1-3.52,8.26,8.26,0,0,0-.41-1.76,4.11,4.11,0,0,1-.1-3.12,41.31,41.31,0,0,0,.66-4.48c-.15,0-.25,0-.41,0C125.92,84.58,125,84.93,125.41,86.09Z"/></g></g></svg>