<svg xmlns="http://www.w3.org/2000/svg" viewBox="0 0 769.41 80"><defs><style>.cls-1{fill:gold;}</style></defs><title>Recurso 12</title><g id="Capa_2" data-name="Capa 2"><g id="Capa_1-2" data-name="Capa 1"><path class="cls-1" d="M298.94.37c-10.81,0-12.17,0-16.41.23a29.17,29.17,0,0,0-9.67,1.86,19.47,19.47,0,0,0-7.06,4.59,19.65,19.65,0,0,0-4.59,7.05,29,29,0,0,0-1.85,9.66c-.19,4.25-.24,5.61-.24,16.43s.05,12.16.24,16.41a29.19,29.19,0,0,0,1.85,9.66,20.32,20.32,0,0,0,11.64,11.65,29.06,29.06,0,0,0,9.67,1.85c4.25.19,5.6.24,16.42.24s12.16,0,16.41-.24A29.26,29.26,0,0,0,325,77.91a20.32,20.32,0,0,0,11.64-11.65,29.19,29.19,0,0,0,1.85-9.66c.19-4.25.24-5.6.24-16.42s-.05-12.17-.24-16.42a29.25,29.25,0,0,0-1.85-9.66,19.65,19.65,0,0,0-4.59-7A19.38,19.38,0,0,0,325,2.46,29.34,29.34,0,0,0,315.35.6c-4.25-.18-5.6-.23-16.42-.23Zm-3.57,7.17h3.57c10.63,0,11.89,0,16.09.23a22.22,22.22,0,0,1,7.39,1.37,12.32,12.32,0,0,1,4.58,3,12.28,12.28,0,0,1,3,4.58,22,22,0,0,1,1.37,7.39c.19,4.2.23,5.46.23,16.08s0,11.89-.23,16.09A22.22,22.22,0,0,1,330,63.65a13.22,13.22,0,0,1-7.56,7.55A21.9,21.9,0,0,1,315,72.57c-4.2.19-5.46.24-16.09.24s-11.89,0-16.09-.24a22,22,0,0,1-7.39-1.37,13.27,13.27,0,0,1-7.57-7.55,22,22,0,0,1-1.36-7.4c-.19-4.19-.23-5.45-.23-16.09s0-11.88.23-16.08a21.7,21.7,0,0,1,1.37-7.39,12.32,12.32,0,0,1,3-4.58,12.2,12.2,0,0,1,4.58-3,22,22,0,0,1,7.39-1.37c3.67-.17,5.1-.22,12.52-.23Zm24.82,6.61a4.78,4.78,0,0,0,0,9.56h0a4.78,4.78,0,1,0,0-9.56Zm-21.25,5.59a20.45,20.45,0,1,0-.64,40.89h.64a20.45,20.45,0,0,0,0-40.89Zm0,7.17a13.28,13.28,0,0,1,0,26.55h0a13.28,13.28,0,0,1,0-26.55Z"/><path class="cls-1" d="M209.19,40.06a39.82,39.82,0,1,0-46,39.57v-28h-10.1V40.07h10.11V31.23c0-10,6-15.58,15-15.58a60.92,60.92,0,0,1,8.91.78v9.86h-5c-4.94,0-6.48,3.09-6.48,6.26v7.51h11l-1.77,11.58H175.6v28A40,40,0,0,0,209.19,40.06Z"/><path class="cls-1" d="M457.88,0h13.48L441.92,33.73l34.63,45.9H449.44L428.2,51.79,403.9,79.63H390.41L421.9,43.55,388.68,0h27.81l19.19,25.44L457.88,0Zm-4.72,71.55h7.46L412.42,7.66h-8Z"/><path class="cls-1" d="M564.7.3a39.65,39.65,0,0,0-22.79,8.33,40.31,40.31,0,0,0-7.51,7.65A39.71,39.71,0,0,0,536.06,66c.71.84,1.14,1.29,2.11,2.26s1.42,1.39,2.25,2.1a39.65,39.65,0,0,0,23,9.49,44,44,0,0,0,6.5-.06A39.78,39.78,0,0,0,593,69.58c.57-.51,1.88-1.81,2.44-2.41A40.23,40.23,0,0,0,603,55.65a39.71,39.71,0,0,0-6.42-41.44c-.71-.84-1.14-1.29-2.1-2.26a35.82,35.82,0,0,0-3.2-2.88A39.6,39.6,0,0,0,566.17.27C565.65.27,565,.28,564.7.3ZM552.11,39.08V62H543.7V16.12h8.41Zm23.68-22.82a17.21,17.21,0,0,1-.13,34.3,23.88,23.88,0,0,1-3.06,0,17,17,0,0,1-6.16-1.84,17.23,17.23,0,0,1-9.12-12.82,14.09,14.09,0,0,1-.16-2.47,14.48,14.48,0,0,1,.16-2.48A17.21,17.21,0,0,1,572.7,16.27,16.77,16.77,0,0,1,575.79,16.26Z"/><path class="cls-1" d="M713.09.37h.63c5.83,0,35.34.23,43.29,2.37A14.24,14.24,0,0,1,767,12.8a64.86,64.86,0,0,1,1.56,9.93l.07.74.15,1.84.06.74c.46,6.48.52,12.54.53,13.87v.53c0,1.37-.07,7.85-.59,14.59l-.05.75-.07.74a69.22,69.22,0,0,1-1.66,11,14.23,14.23,0,0,1-10,10.07C748.79,79.84,717.55,80,713.22,80h-1c-2.19,0-11.25,0-20.74-.37l-1.21,0-.61,0-1.21,0-1.21-.05c-7.87-.35-15.36-.91-18.81-1.84a14.22,14.22,0,0,1-10-10.06,70.2,70.2,0,0,1-1.66-11l-.06-.75,0-.74q-.52-7.2-.59-14.42v-.87c0-1.53.08-6.79.46-12.6l0-.73,0-.37.06-.74.15-1.84.07-.74a64.86,64.86,0,0,1,1.56-9.93,14.22,14.22,0,0,1,10-10.06c3.45-.92,10.94-1.49,18.8-1.84l1.21-.05,1.22,0,.6,0,1.22-.05Q701.6.42,711.72.37Zm-11.7,22.74V57.25l29.46-17.06Z"/><path class="cls-1" d="M39.82.37A39.82,39.82,0,1,0,79.63,40.18,39.81,39.81,0,0,0,39.82.37ZM58.08,57.79a2.48,2.48,0,0,1-3.41.83h0c-9.35-5.71-21.11-7-35-3.83a2.48,2.48,0,0,1-1.1-4.84c15.17-3.47,28.18-2,38.67,4.44A2.48,2.48,0,0,1,58.08,57.79ZM63,47a3.1,3.1,0,0,1-4.27,1C48,41.4,31.66,39.49,19,43.33a3.11,3.11,0,0,1-1.8-5.94C31.66,33,49.64,35.13,61.93,42.68A3.1,3.1,0,0,1,63,47Zm.42-11.29c-12.83-7.62-34-8.32-46.26-4.61A3.72,3.72,0,0,1,15,23.93C29,19.66,52.39,20.48,67.17,29.25a3.73,3.73,0,1,1-3.8,6.41Z"/></g></g></svg>