<svg xmlns="http://www.w3.org/2000/svg" viewBox="0 0 441.88 161.57"><defs><style>.cls-1{fill:none;stroke-width:12.48px;}.cls-1,.cls-2{stroke:gold;stroke-miterlimit:10;}.cls-2,.cls-3{fill:gold;}.cls-2{stroke-width:10.33px;}</style></defs><title>Recurso 14</title><g id="Capa_2" data-name="Capa 2"><g id="Capa_1-2" data-name="Capa 1"><circle class="cls-1" cx="80.79" cy="80.79" r="74.55"/><path class="cls-2" d="M122.34,88.43l-63,36.4a8.82,8.82,0,0,1-13.23-7.64V44.39a8.82,8.82,0,0,1,13.23-7.64l63.05,36.4A8.82,8.82,0,0,1,122.34,88.43Z"/><path class="cls-3" d="M205.63,66.31a4.47,4.47,0,0,1-1.27,3.23,4.19,4.19,0,0,1-3.12,1.29H183.58a4.26,4.26,0,0,1-3.13-1.26,4.32,4.32,0,0,1-1.26-3.19V13.51a4.21,4.21,0,0,1,4.39-4.38h17.66a4.21,4.21,0,0,1,4.39,4.38,4.29,4.29,0,0,1-1.23,3.12,4.15,4.15,0,0,1-3.09,1.27H188V35.5h13.35a4.14,4.14,0,0,1,3.09,1.26,4.29,4.29,0,0,1,1.23,3.12A4.39,4.39,0,0,1,204.4,43a4.06,4.06,0,0,1-3.09,1.3H188V62.06h13.28a4.33,4.33,0,0,1,3.16,1.2A4.08,4.08,0,0,1,205.63,66.31Z"/><path class="cls-3" d="M239.37,18.89v3.46a4.29,4.29,0,0,1-1.23,3.12,4.14,4.14,0,0,1-3.09,1.26,4.32,4.32,0,0,1-3.19-1.26,4.24,4.24,0,0,1-1.26-3.12,4.33,4.33,0,0,0-1.23-3.13A4.21,4.21,0,0,0,226.22,18,4.46,4.46,0,0,0,223,19.22a4.22,4.22,0,0,0-1.29,3.13v7.9A4.11,4.11,0,0,0,223,33.37a4.54,4.54,0,0,0,3.25,1.26h3.32a9.34,9.34,0,0,1,6.65,3.16,9.44,9.44,0,0,1,3.12,6.67V60.74a9.83,9.83,0,0,1-3.12,6.84c-2.09,2.17-4.3,3.25-6.65,3.25h-6.84a9.4,9.4,0,0,1-6.71-3.12A9.4,9.4,0,0,1,212.93,61V57.55a4.19,4.19,0,0,1,1.23-3.09,4.66,4.66,0,0,1,6.31,0,4.19,4.19,0,0,1,1.23,3.09,4.36,4.36,0,0,0,1.36,3.12,4.28,4.28,0,0,0,3.16,1.39,4.19,4.19,0,0,0,3.12-1.29,4.36,4.36,0,0,0,1.26-3.16V47.85a4.39,4.39,0,0,0-1.23-3.19,4.21,4.21,0,0,0-3.15-1.26h-3.46A10.08,10.08,0,0,1,216,40.71a7.93,7.93,0,0,1-3.09-6.08V19.22a9.87,9.87,0,0,1,2.89-7.14,9.36,9.36,0,0,1,6.94-2.95h6.84A9.42,9.42,0,0,1,236.51,12,9.45,9.45,0,0,1,239.37,18.89Z"/><path class="cls-3" d="M263.08,60.74a4.48,4.48,0,0,0,1.26-3.19,4.16,4.16,0,0,1,1.3-3.12,4.31,4.31,0,0,1,3.15-1.27,4.24,4.24,0,0,1,3,1.23,3.92,3.92,0,0,1,1.3,3V61a9.54,9.54,0,0,1-2.83,7,9.3,9.3,0,0,1-6.87,2.85h-7a9.32,9.32,0,0,1-6.65-3.15A9.46,9.46,0,0,1,246.67,61V18.89a9.28,9.28,0,0,1,3.16-6.64,9.44,9.44,0,0,1,6.67-3.12h6.84A9.42,9.42,0,0,1,270.25,12a9.45,9.45,0,0,1,2.86,6.91v3.52a4.16,4.16,0,0,1-1.3,3.12,4.31,4.31,0,0,1-3.15,1.27,4.13,4.13,0,0,1-3.06-1.3,4.27,4.27,0,0,1-1.26-3.09,4.48,4.48,0,0,0-1.26-3.19A4.07,4.07,0,0,0,260,17.9a4.48,4.48,0,0,0-3.25,1.29,4.3,4.3,0,0,0-1.33,3.22V57.55a4.39,4.39,0,0,0,1.3,3.19A4.31,4.31,0,0,0,260,62.06,4.14,4.14,0,0,0,263.08,60.74Z"/><path class="cls-3" d="M302.53,9.13a4.14,4.14,0,0,1,3.09,1.26,4.37,4.37,0,0,1,1.23,3.19V61a9.54,9.54,0,0,1-3.06,6.68,9.07,9.07,0,0,1-6.57,3.15h-7a9.28,9.28,0,0,1-6.64-3.15A9.43,9.43,0,0,1,280.41,61V13.58a4.33,4.33,0,0,1,1.3-3.16,4.29,4.29,0,0,1,3.15-1.29,4.21,4.21,0,0,1,4.32,4.32v44.1a4.52,4.52,0,0,0,4.52,4.51,4.19,4.19,0,0,0,3.12-1.29,4.44,4.44,0,0,0,1.26-3.22V13.45a4.14,4.14,0,0,1,1.26-3.09A4.39,4.39,0,0,1,302.53,9.13Z"/><path class="cls-3" d="M330.56,60.74a4.48,4.48,0,0,0,1.26-3.19,4.16,4.16,0,0,1,1.3-3.12,4.31,4.31,0,0,1,3.15-1.27,4.24,4.24,0,0,1,3,1.23,3.92,3.92,0,0,1,1.3,3V61a9.57,9.57,0,0,1-2.82,7,9.34,9.34,0,0,1-6.88,2.85h-7a9.28,9.28,0,0,1-6.64-3.15A9.43,9.43,0,0,1,314.15,61V18.89a9.32,9.32,0,0,1,3.16-6.64A9.44,9.44,0,0,1,324,9.13h6.85a9.4,9.4,0,0,1,6.9,2.85,9.41,9.41,0,0,1,2.86,6.91v3.52a4.16,4.16,0,0,1-1.3,3.12,4.31,4.31,0,0,1-3.15,1.27,4.13,4.13,0,0,1-3.06-1.3,4.27,4.27,0,0,1-1.26-3.09,4.48,4.48,0,0,0-1.26-3.19,4.07,4.07,0,0,0-3.06-1.32,4.5,4.5,0,0,0-3.25,1.29,4.3,4.3,0,0,0-1.33,3.22V57.55a4.39,4.39,0,0,0,1.3,3.19,4.31,4.31,0,0,0,3.22,1.32A4.14,4.14,0,0,0,330.56,60.74Z"/><path class="cls-3" d="M356.73,66.45a4.22,4.22,0,0,1-1.3,3.09,4.29,4.29,0,0,1-3.15,1.29,4.4,4.4,0,0,1-4.38-4.38V13.58a4.32,4.32,0,0,1,1.29-3.16,4.22,4.22,0,0,1,3.09-1.29,4.27,4.27,0,0,1,3.12,1.33,4.32,4.32,0,0,1,1.33,3.18V35.5h8.83V13.58a4.29,4.29,0,0,1,1.3-3.16A4.22,4.22,0,0,1,370,9.13a4.27,4.27,0,0,1,3.12,1.33,4.36,4.36,0,0,1,1.33,3.18V66.45a4.42,4.42,0,0,1-8.84,0V44.33h-8.83Z"/><path class="cls-3" d="M381.7,66.51V18.89a9.28,9.28,0,0,1,3.16-6.64,9.42,9.42,0,0,1,6.67-3.12h6.84A9.42,9.42,0,0,1,405.28,12a9.45,9.45,0,0,1,2.86,6.91V66.51a4.09,4.09,0,0,1-1.3,3.06,4.42,4.42,0,0,1-6.18,0,4.12,4.12,0,0,1-1.29-3.06V44.33h-8.9V66.51a4,4,0,0,1-1.33,3.06A4.4,4.4,0,0,1,386,70.83a4.3,4.3,0,0,1-4.32-4.32Zm17.67-31V22.41a4.49,4.49,0,0,0-1.23-3.22,4.09,4.09,0,0,0-3.09-1.29,4.48,4.48,0,0,0-3.25,1.29,4.3,4.3,0,0,0-1.33,3.22V35.5Z"/><path class="cls-3" d="M419.83,70.83a4.41,4.41,0,0,1-3.09-1.19,3.9,3.9,0,0,1-1.3-3V13.45a4.19,4.19,0,0,1,1.23-3.09,4.27,4.27,0,0,1,3.16-1.23h9.23q5.18,0,8.87,5.18a20.89,20.89,0,0,1,3.68,12.42q0,7.83-3.72,12.29a18.12,18.12,0,0,1,2.89,6.24,29.48,29.48,0,0,1,1.1,8V66.91a3.54,3.54,0,0,1-1.3,2.83,4.91,4.91,0,0,1-6.17,0,3.54,3.54,0,0,1-1.3-2.83V52.83A18.42,18.42,0,0,0,432,46q-1.12-2.82-2.79-2.82h-5V66.65a3.91,3.91,0,0,1-1.33,2.92A4.29,4.29,0,0,1,419.83,70.83Zm9.36-36.6a2.93,2.93,0,0,0,2.56-1.29,5.91,5.91,0,0,0,1.06-2.76,33.24,33.24,0,0,0,.17-3.65q0-8.64-4.32-8.63h-4.45V34.23Z"/><path class="cls-3" d="M179.19,148.13V100.51a9.26,9.26,0,0,1,3.16-6.64A9.39,9.39,0,0,1,189,90.74h6.84a9.76,9.76,0,0,1,9.77,9.77v47.62a4.12,4.12,0,0,1-1.3,3.05,4.39,4.39,0,0,1-6.18,0,4.11,4.11,0,0,1-1.29-3.05V126H188v22.18a4,4,0,0,1-1.33,3.05,4.37,4.37,0,0,1-3.12,1.27,4.32,4.32,0,0,1-4.32-4.32Zm17.67-31V104a4.48,4.48,0,0,0-1.23-3.22,4.06,4.06,0,0,0-3.09-1.3,4.45,4.45,0,0,0-3.25,1.3A4.28,4.28,0,0,0,188,104v13.08Z"/><path class="cls-3" d="M221.77,148.06a4.23,4.23,0,0,1-1.3,3.09,4.29,4.29,0,0,1-3.15,1.3,4.44,4.44,0,0,1-4.39-4.39V95.19a4.44,4.44,0,0,1,4.39-4.45,4.31,4.31,0,0,1,3.12,1.33,4.38,4.38,0,0,1,1.33,3.19v21.85h8.83V95.19a4.36,4.36,0,0,1,7.5-3.12,4.34,4.34,0,0,1,1.33,3.19v52.8a4.22,4.22,0,0,1-1.29,3.09,4.33,4.33,0,0,1-3.16,1.3,4.42,4.42,0,0,1-4.38-4.39V126h-8.83Z"/><path class="cls-3" d="M263.48,152.45h-7a9.32,9.32,0,0,1-6.64-3.16,9.44,9.44,0,0,1-3.12-6.67V100.51a9.28,9.28,0,0,1,3.15-6.64,9.43,9.43,0,0,1,6.68-3.13h6.84a9.75,9.75,0,0,1,9.76,9.77v42.11a9.54,9.54,0,0,1-2.82,7A9.31,9.31,0,0,1,263.48,152.45Zm-8-13.29a4.41,4.41,0,0,0,1.29,3.19,4.32,4.32,0,0,0,3.22,1.33,4.16,4.16,0,0,0,3.12-1.3,4.39,4.39,0,0,0,1.27-3.22V104a4.48,4.48,0,0,0-1.23-3.22,4.06,4.06,0,0,0-3.09-1.3,4.47,4.47,0,0,0-3.26,1.3,4.31,4.31,0,0,0-1.32,3.22Z"/><path class="cls-3" d="M284.86,152.45a4.37,4.37,0,0,1-3.08-1.2,3.88,3.88,0,0,1-1.3-3V95.06A4.19,4.19,0,0,1,281.71,92a4.27,4.27,0,0,1,3.15-1.23h9.24q5.17,0,8.86,5.18a20.87,20.87,0,0,1,3.69,12.42q0,7.84-3.72,12.29a18.09,18.09,0,0,1,2.89,6.25,29.41,29.41,0,0,1,1.09,8v13.68a3.53,3.53,0,0,1-1.29,2.82,4.89,4.89,0,0,1-6.18,0,3.53,3.53,0,0,1-1.29-2.82V134.45a18.38,18.38,0,0,0-1.13-6.81c-.76-1.88-1.68-2.82-2.79-2.82h-5v23.44a3.93,3.93,0,0,1-1.33,2.92A4.3,4.3,0,0,1,284.86,152.45Zm9.37-36.6a2.92,2.92,0,0,0,2.56-1.3,6,6,0,0,0,1.06-2.75,33.69,33.69,0,0,0,.16-3.65q0-8.64-4.31-8.64h-4.45v16.34Z"/><path class="cls-3" d="M314.22,148.13V100.51a9.26,9.26,0,0,1,3.16-6.64,9.39,9.39,0,0,1,6.67-3.13h6.84a9.76,9.76,0,0,1,9.77,9.77v47.62a4.12,4.12,0,0,1-1.3,3.05,4.39,4.39,0,0,1-6.18,0,4.11,4.11,0,0,1-1.29-3.05V126H323v22.18a4.08,4.08,0,0,1-1.33,3.05,4.37,4.37,0,0,1-3.12,1.27,4.32,4.32,0,0,1-4.32-4.32Zm17.67-31V104a4.48,4.48,0,0,0-1.23-3.22,4.06,4.06,0,0,0-3.09-1.3,4.45,4.45,0,0,0-3.25,1.3A4.28,4.28,0,0,0,323,104v13.08Z"/></g></g></svg>