<svg xmlns="http://www.w3.org/2000/svg" viewBox="0 0 452.94 187.03"><defs><style>.cls-1{fill:#001329;stroke:gold;stroke-miterlimit:10;stroke-width:14.94px;}.cls-2{fill:gold;}</style></defs><title>Recurso 32</title><g id="Capa_2" data-name="Capa 2"><g id="Capa_1-2" data-name="Capa 1"><rect class="cls-1" x="7.47" y="7.47" width="438" height="172.09" rx="86.05"/><path class="cls-2" d="M80.8,139.06,58.64,55.23h4l20.17,76.35,20.3-76.35h4L84.75,139.06Z"/><path class="cls-2" d="M157.44,122.24a36.88,36.88,0,0,1-2.73,7.42,24.29,24.29,0,0,1-4,5.9,17.41,17.41,0,0,1-5.33,3.89,15.37,15.37,0,0,1-6.64,1.41,15.54,15.54,0,0,1-6.17-1.2,17.23,17.23,0,0,1-5.09-3.35,22.53,22.53,0,0,1-4-5.12,33.62,33.62,0,0,1-2.85-6.5,45.4,45.4,0,0,1-1.7-7.48,57.62,57.62,0,0,1,0-16.17,45.4,45.4,0,0,1,1.7-7.48,33.62,33.62,0,0,1,2.85-6.5,22.31,22.31,0,0,1,4-5.12,17,17,0,0,1,5.09-3.35,16.44,16.44,0,0,1,12.33,0A16.91,16.91,0,0,1,150,81.94a22,22,0,0,1,4,5.12,33.62,33.62,0,0,1,2.85,6.5,45.41,45.41,0,0,1,1.71,7.48,58,58,0,0,1,.56,8.08q0,.48,0,1t0,1H122.23a56.64,56.64,0,0,0,.6,6.29,38,38,0,0,0,1.41,6,30.39,30.39,0,0,0,2.27,5.36,20,20,0,0,0,3.12,4.34,13,13,0,0,0,4,2.91,11.82,11.82,0,0,0,5,1,11.55,11.55,0,0,0,5.18-1.13,14.35,14.35,0,0,0,4.16-3.15,19.46,19.46,0,0,0,3.17-4.7,35.61,35.61,0,0,0,2.22-5.8Zm-35.21-15h32.93a51.63,51.63,0,0,0-.63-6.32,44.84,44.84,0,0,0-1.4-6,30.23,30.23,0,0,0-2.25-5.36,20.2,20.2,0,0,0-3.14-4.34,13.86,13.86,0,0,0-4-2.9,11.69,11.69,0,0,0-5-1,11.83,11.83,0,0,0-5,1,13.11,13.11,0,0,0-4,2.9,20.48,20.48,0,0,0-3.12,4.34,31,31,0,0,0-2.27,5.36,38.16,38.16,0,0,0-1.41,6A56.64,56.64,0,0,0,122.23,107.21Z"/><path class="cls-2" d="M178.33,90.44a32.81,32.81,0,0,1,2.79-5.3A18.23,18.23,0,0,1,184.77,81a16.15,16.15,0,0,1,4.58-2.66,15.33,15.33,0,0,1,5.51-1v3.83a11.65,11.65,0,0,0-5.24,1.17,14.15,14.15,0,0,0-4.19,3.17,20.84,20.84,0,0,0-3.18,4.7A33.15,33.15,0,0,0,180,96.07a44.76,44.76,0,0,0-1.29,6.44,52.62,52.62,0,0,0-.42,6.61v29.94H174.5V79.19h3.83Z"/><path class="cls-2" d="M300.36,139.06h-3.84V107.63A74.58,74.58,0,0,0,295.9,98a33.5,33.5,0,0,0-2.19-8.48,15.9,15.9,0,0,0-4.16-6,10.74,10.74,0,0,0-13.23,0,15.64,15.64,0,0,0-4.14,6A34,34,0,0,0,270.06,98a76.42,76.42,0,0,0-.6,9.64v31.43h-3.83V107.63A72.83,72.83,0,0,0,265,98a33.5,33.5,0,0,0-2.19-8.48,15.79,15.79,0,0,0-4.16-6,10.74,10.74,0,0,0-13.23,0,15.62,15.62,0,0,0-4.13,6A33.52,33.52,0,0,0,239.16,98a76.42,76.42,0,0,0-.6,9.64v31.43h-3.83V79.19h3.83v8.14a18.1,18.1,0,0,1,5.21-7.28,13,13,0,0,1,8.39-2.66,14.06,14.06,0,0,1,5.74,1.11,14.3,14.3,0,0,1,4.47,3.08,17.88,17.88,0,0,1,3.29,4.76,31.68,31.68,0,0,1,2.18,6.14,31.61,31.61,0,0,1,2.07-6.14A18.41,18.41,0,0,1,273,81.58a13.09,13.09,0,0,1,4.31-3.08,13.93,13.93,0,0,1,5.72-1.11,13.57,13.57,0,0,1,8.12,2.39,17.29,17.29,0,0,1,5.35,6.53A34.12,34.12,0,0,1,299.46,96a72.45,72.45,0,0,1,.9,11.68Z"/><path class="cls-2" d="M352.15,79.19H356v59.87h-3.83V127.8a28,28,0,0,1-2.76,5.3,18.64,18.64,0,0,1-3.68,4.13,16.18,16.18,0,0,1-4.58,2.67,15.33,15.33,0,0,1-5.51,1,15.61,15.61,0,0,1-6.17-1.2,17.36,17.36,0,0,1-5.09-3.35,22.81,22.81,0,0,1-4-5.12,34.22,34.22,0,0,1-2.84-6.5,45.41,45.41,0,0,1-1.71-7.48,57.62,57.62,0,0,1,0-16.17,45.41,45.41,0,0,1,1.71-7.48,34.22,34.22,0,0,1,2.84-6.5,22.59,22.59,0,0,1,4-5.12,17.16,17.16,0,0,1,5.09-3.35,15.61,15.61,0,0,1,6.17-1.2,15.33,15.33,0,0,1,5.51,1A16.15,16.15,0,0,1,345.71,81a19.1,19.1,0,0,1,3.68,4.13,28.56,28.56,0,0,1,2.76,5.3Zm-16.53,2a11.68,11.68,0,0,0-5.24,1.17,14.28,14.28,0,0,0-4.19,3.17,20.81,20.81,0,0,0-3.17,4.7,32.39,32.39,0,0,0-2.22,5.81,44.76,44.76,0,0,0-1.29,6.44,53.57,53.57,0,0,0,0,13.23,45,45,0,0,0,1.29,6.44A32.29,32.29,0,0,0,323,128a20.37,20.37,0,0,0,3.17,4.7,14.15,14.15,0,0,0,4.19,3.18,12.42,12.42,0,0,0,10.48,0,14,14,0,0,0,4.19-3.18,20.06,20.06,0,0,0,3.17-4.7,32.29,32.29,0,0,0,2.22-5.8,45,45,0,0,0,1.29-6.44,52.3,52.3,0,0,0,0-13.23,44.76,44.76,0,0,0-1.29-6.44,32.39,32.39,0,0,0-2.22-5.81,20.48,20.48,0,0,0-3.17-4.7,14.15,14.15,0,0,0-4.19-3.17A11.65,11.65,0,0,0,335.62,81.22Zm-2-11,7.12-24h4.07l-7.12,24Z"/><path class="cls-2" d="M375,124a15.56,15.56,0,0,0,1,5.69,10.73,10.73,0,0,0,6.67,6.53,15.23,15.23,0,0,0,5.12.83,14.18,14.18,0,0,0,5.06-.86,11.7,11.7,0,0,0,4-2.49,11.16,11.16,0,0,0,2.67-4,14.15,14.15,0,0,0,1-5.36,11.57,11.57,0,0,0-1-5,11.81,11.81,0,0,0-2.73-3.68,19.17,19.17,0,0,0-4.1-2.84q-2.35-1.26-5.12-2.46-2.45-1.08-5.15-2.48a23.1,23.1,0,0,1-4.91-3.45,16.66,16.66,0,0,1-3.65-4.94,15.38,15.38,0,0,1-1.44-6.91,16.12,16.12,0,0,1,1.14-6.11,14.17,14.17,0,0,1,3.21-4.85,14.47,14.47,0,0,1,4.94-3.17,17.2,17.2,0,0,1,6.4-1.14,16.74,16.74,0,0,1,6.14,1.11,14.77,14.77,0,0,1,5,3.17,14.56,14.56,0,0,1,3.32,5,17,17,0,0,1,1.2,6.56h-3.83a13.08,13.08,0,0,0-.93-5.06,11.11,11.11,0,0,0-2.51-3.78A10.94,10.94,0,0,0,392.62,82a13,13,0,0,0-4.61-.81,14.16,14.16,0,0,0-4.67.75,10.71,10.71,0,0,0-3.77,2.24,10.27,10.27,0,0,0-2.52,3.69,13.2,13.2,0,0,0-.89,5,11.68,11.68,0,0,0,.93,4.82,12.19,12.19,0,0,0,2.54,3.68,16.73,16.73,0,0,0,3.83,2.84c1.48.82,3.09,1.61,4.85,2.37s3.51,1.54,5.39,2.45a23,23,0,0,1,5.15,3.45,17.15,17.15,0,0,1,3.86,5,15,15,0,0,1,1.53,7.09,17.39,17.39,0,0,1-1.17,6.44,15.7,15.7,0,0,1-3.32,5.18,15.5,15.5,0,0,1-5.21,3.47,17.76,17.76,0,0,1-6.83,1.26,18.74,18.74,0,0,1-6.76-1.17,14.77,14.77,0,0,1-5.24-3.35,15,15,0,0,1-3.39-5.33,19.84,19.84,0,0,1-1.19-7Z"/></g></g></svg>