<svg xmlns="http://www.w3.org/2000/svg" viewBox="0 0 612.77 612.76"><defs><style>.cls-1{fill:gold;}.cls-2{font-size:52.82px;fill:none;stroke:gold;stroke-miterlimit:10;stroke-width:2.23px;font-family:Glimp-CondensedThin, Glimp;font-weight:200;}</style></defs><title>youtube</title><g id="Capa_2" data-name="Capa 2"><g id="Capa_1-2" data-name="Capa 1"><path class="cls-1" d="M499.67,384.24c-7.21,18.1-20.65,40.69-33.15,55.53a220.43,220.43,0,0,1-22.43,23,176.63,176.63,0,0,1-24.79,18.68,207.24,207.24,0,0,1-119.08,33.2A211.63,211.63,0,0,1,179,471.4,224.68,224.68,0,0,1,155.41,450a184.48,184.48,0,0,1-19.7-24.07,222.54,222.54,0,0,1-16.12-27.28A175.79,175.79,0,0,1,108,370.05a223.45,223.45,0,0,1-7.46-30.84c-.88-5.28-1.13-7.07-1.71-13.59Q98.12,317,98,308.27q-.08-8.08.45-16.14c.17-2.71.39-5.4.67-8.1.14-1.35.3-2.7.45-4,.21-1.63.22-1.8,0-.49q.18-1.35.39-2.7a221,221,0,0,1,7.43-32.3,207.2,207.2,0,0,1,29.28-59.18A135,135,0,0,1,145.39,174q5.58-6.72,11.7-13,5.59-5.73,11.6-11c2-1.77,4-3.5,6.07-5.19,1-.85,2.07-1.67,3.1-2.51,1.25-1,1.39-1.09.43-.35l2.12-1.6a221,221,0,0,1,26.72-17.1q6.94-3.78,14.17-7.07c4.88-2.22,7.66-3.35,13.91-5.6A221.59,221.59,0,0,1,265.74,102c2.6-.54,5.2-1,7.82-1.46,1.31-.22,2.62-.41,3.93-.62,4.3-.69-2.62.28,1.71-.24,5.74-.69,11.49-1.2,17.27-1.47a195.83,195.83,0,0,1,63.76,6.9,202,202,0,0,1,60.43,27,175.08,175.08,0,0,1,25.2,19.41A221.22,221.22,0,0,1,468,174.75c.84,1,1.67,2.07,2.5,3.1,2.73,3.37-1.43-2,1.16,1.49,1.59,2.13,3.16,4.26,4.68,6.43q4.94,7,9.31,14.45,4,6.83,7.57,13.92c1.18,2.36,2.31,4.75,3.4,7.15.55,1.2,1.08,2.41,1.61,3.62.63,1.46.7,1.61.2.44l1,2.45A222.48,222.48,0,0,1,509,258q1.88,7.72,3.18,15.57A144.88,144.88,0,0,1,514,288.46a220,220,0,0,1,.28,32.17q-.27,4-.67,8.09c-.14,1.36-.31,2.7-.45,4.06-.49,4.42.42-2.57-.25,1.84-.89,5.88-1.95,11.73-3.28,17.53a227.84,227.84,0,0,1-10,32.09c-2.63,6.74,2.9,14.7,9.36,16.47,7.58,2.09,13.82-2.59,16.47-9.35a234.91,234.91,0,0,0-62.71-260.53A238.64,238.64,0,0,0,328.73,72.37c-47.1-4.8-95.53,5.74-136.86,28.7A234.36,234.36,0,0,0,95.13,203.32,238.34,238.34,0,0,0,74.87,347c7.87,46.19,30.4,89.78,63,123.37A235.24,235.24,0,0,0,265,537.77a238.43,238.43,0,0,0,140.64-18.33A234.39,234.39,0,0,0,509.5,424.8a250.74,250.74,0,0,0,16-33.44c2.68-6.72-2.93-14.71-9.35-16.47C508.52,372.79,502.36,377.49,499.67,384.24Z"/><path class="cls-1" d="M484.43,296l-32.55,11.41L373.19,335l-94.8,33.23L196,397.14l-27.07,9.48c-4.26,1.5-8.8,2.71-12.93,4.54-.19.08-.4.14-.6.21L168,427.78,242.14,326.3l10.35-14.16c2.12-2.91,2.12-8.37,0-11.28l-74-101.69L168.16,185l-12.62,16.41,32.53,11.49,78.65,27.78,94.76,33.47,82.38,29.1c13.24,4.68,26.47,10.23,40,14.12l.6.21c5.69,2,12.22-2.28,13.74-7.8,1.7-6.17-2.09-11.73-7.8-13.74l-32.54-11.5-78.64-27.77-94.76-33.48-82.38-29.1c-13.2-4.66-26.46-10.39-40-14.11-.21-.06-.4-.15-.6-.22-8.79-3.1-18.31,8.6-12.62,16.42l74,101.68,10.32,14.2V300.86L159.05,402.34,148.7,416.5c-5.69,7.79,3.78,19.51,12.62,16.41l32.55-11.41,78.68-27.58,94.8-33.23,82.43-28.9c13.32-4.67,26.75-9.11,40-14l.6-.21c5.69-2,9.48-7.64,7.8-13.74C496.65,298.3,490.15,294,484.43,296Z"/><path class="cls-1" d="M244.43,229.84l73.45,118.27,10.24,16.48c7.58,12.19,26.92,1,19.3-11.27L274,235.05l-10.24-16.49c-7.57-12.19-26.91-1-19.29,11.28Z"/><path class="cls-1" d="M191.65,255.25l83,108.66,11.88,15.55c3.65,4.79,9.62,7.32,15.28,4,4.72-2.76,7.7-10.46,4-15.29l-83-108.65L210.94,244c-3.65-4.79-9.62-7.33-15.28-4-4.72,2.75-7.7,10.46-4,15.28Z"/><path class="cls-1" d="M343.71,265.29,386,332.54l6.12,9.75c7.63,12.15,27,.95,19.3-11.27l-42.24-67.25L363,254c-7.63-12.14-27-.94-19.3,11.28Z"/><path class="cls-1" d="M251.81,396.8l73.62-118.16,10.27-16.47c7.63-12.24-11.7-23.47-19.3-11.28L242.78,369.05l-10.27,16.47c-7.62,12.24,11.7,23.47,19.3,11.28Z"/><path class="cls-1" d="M194.09,391.8l34.45-49.72,54.89-79.2L296,244.76c3.43-5,.91-12.4-4-15.28-5.56-3.25-11.84-1-15.29,4L242.24,283.2l-54.89,79.2-12.56,18.12c-3.44,5-.91,12.4,4,15.28,5.55,3.25,11.84,1,15.29-4Z"/><path class="cls-1" d="M351.15,361.49l42.33-67.19,6.13-9.74c7.69-12.2-11.63-23.43-19.29-11.28L338,340.47l-6.14,9.74c-7.69,12.21,11.64,23.43,19.3,11.28Z"/><text class="cls-2" transform="translate(332.95 47.13) rotate(8.23)">Y</text><text class="cls-2" transform="translate(352.96 49.92) rotate(12.87)">o</text><text class="cls-2" transform="translate(375.25 54.93) rotate(18.14)">u</text><text class="cls-2" transform="translate(399.09 62.97) rotate(22.22)">t</text><text class="cls-2" transform="translate(409.97 67.13) rotate(26.29)">u</text><text class="cls-2" transform="matrix(0.85, 0.53, -0.53, 0.85, 432.35, 78.16)">b</text><text class="cls-2" transform="translate(452.95 90.9) rotate(36.89)">e</text><text class="cls-2" transform="translate(472.76 107.32) rotate(32.79)"> </text><text class="cls-2" transform="matrix(0.78, 0.62, -0.62, 0.78, 481.49, 115.11)">Y</text><text class="cls-2" transform="translate(496.05 127.71) rotate(49.2)">o</text><text class="cls-2" transform="matrix(0.58, 0.81, -0.81, 0.58, 511.06, 144.95)">u</text><text class="cls-2" transform="matrix(0.52, 0.85, -0.85, 0.52, 525.47, 165.51)">t</text><text class="cls-2" transform="matrix(0.46, 0.89, -0.89, 0.46, 531.78, 175.32)">u</text><text class="cls-2" transform="matrix(0.37, 0.93, -0.93, 0.37, 543.27, 197.46)">b</text><text class="cls-2" transform="translate(552.32 219.95) rotate(73.25)">e</text><text class="cls-2" transform="translate(558.74 241.83) rotate(77.09)"> </text><text class="cls-2" transform="translate(561.6 253.61) rotate(80.75)">Y</text><text class="cls-2" transform="translate(564.95 273.54) rotate(85.37)">o</text><text class="cls-2" transform="translate(566.88 296.3) rotate(90.59)">u</text><text class="cls-2" transform="translate(566.41 321.45) rotate(94.62)">t</text><text class="cls-2" transform="translate(565.73 333.08) rotate(98.64)">u</text><text class="cls-2" transform="matrix(-0.24, 0.97, -0.97, -0.24, 562, 357.76)">b</text><text class="cls-2" transform="translate(556.12 381.27) rotate(109.21)">e</text><text class="cls-2" transform="translate(548.47 402.75) rotate(113.07)"> </text><text class="cls-2" transform="translate(543.88 413.95) rotate(116.77)">Y</text><text class="cls-2" transform="translate(534.88 432.03) rotate(121.46)">o</text><text class="cls-2" transform="translate(523.03 451.55) rotate(126.74)">u</text><text class="cls-2" transform="matrix(-0.65, 0.76, -0.76, -0.65, 507.81, 471.59)">t</text><text class="cls-2" transform="matrix(-0.7, 0.71, -0.71, -0.7, 500.34, 480.57)">u</text><text class="cls-2" transform="translate(482.82 498.31) rotate(140.1)">b</text><text class="cls-2" transform="matrix(-0.82, 0.57, -0.57, -0.82, 464.22, 513.87)">e</text><text class="cls-2" transform="translate(445.39 526.74) rotate(149.1)"> </text><text class="cls-2" transform="translate(435.09 533.09) rotate(152.8)">Y</text><text class="cls-2" transform="translate(417.16 542.42) rotate(157.49)">o</text><text class="cls-2" transform="translate(396.11 551.24) rotate(162.77)">u</text><text class="cls-2" transform="translate(372.03 558.48) rotate(166.82)">t</text><text class="cls-2" transform="matrix(-0.99, 0.16, -0.16, -0.99, 360.73, 561.4)">u</text><text class="cls-2" transform="matrix(-1, 0.07, -0.07, -1, 336.12, 565.37)">b</text><text class="cls-2" transform="translate(311.89 566.96) rotate(-178.62)">e</text><text class="cls-2" transform="matrix(-1, -0.09, 0.09, -1, 289.13, 566.25)"> </text><text class="cls-2" transform="translate(277.03 565.32) rotate(-171.15)">Y</text><text class="cls-2" transform="translate(257.06 562.31) rotate(-166.52)">o</text><text class="cls-2" transform="translate(234.81 557.07) rotate(-161.26)">u</text><text class="cls-2" transform="translate(211.08 548.79) rotate(-157.19)">t</text><text class="cls-2" transform="translate(200.23 544.51) rotate(-153.11)">u</text><text class="cls-2" transform="translate(177.98 533.25) rotate(-147.67)">b</text><text class="cls-2" transform="matrix(-0.79, -0.61, 0.61, -0.79, 157.49, 520.28)">e</text><text class="cls-2" transform="matrix(-0.75, -0.66, 0.66, -0.75, 139.53, 506.29)"> </text><text class="cls-2" transform="matrix(-0.71, -0.71, 0.71, -0.71, 130.31, 498.37)">Y</text><text class="cls-2" transform="translate(115.92 484.17) rotate(-130.48)">o</text><text class="cls-2" transform="matrix(-0.58, -0.82, 0.82, -0.58, 101.01, 466.85)">u</text><text class="cls-2" transform="translate(86.68 446.21) rotate(-121.2)">t</text><text class="cls-2" transform="translate(80.42 436.37) rotate(-117.13)">u</text><text class="cls-2" transform="matrix(-0.37, -0.93, 0.93, -0.37, 69.03, 414.2)">b</text><text class="cls-2" transform="matrix(-0.28, -0.96, 0.96, -0.28, 60.07, 391.66)">e</text><text class="cls-2" transform="matrix(-0.22, -0.98, 0.98, -0.22, 53.75, 369.74)"> </text><text class="cls-2" transform="translate(50.93 357.96) rotate(-99)">Y</text><text class="cls-2" transform="translate(47.67 338.02) rotate(-94.37)">o</text><text class="cls-2" transform="translate(45.85 315.25) rotate(-89.14)">u</text><text class="cls-2" transform="translate(46.44 290.1) rotate(-85.11)">t</text><text class="cls-2" transform="translate(47.18 278.46) rotate(-81.08)">u</text><text class="cls-2" transform="translate(51.02 253.83) rotate(-75.69)">b</text><text class="cls-2" transform="translate(57.02 230.33) rotate(-70.52)">e</text><text class="cls-2" transform="translate(64.76 208.91) rotate(-66.67)"> </text><text class="cls-2" transform="translate(69.41 197.71) rotate(-62.97)">Y</text><text class="cls-2" transform="translate(78.5 179.67) rotate(-58.29)">o</text><text class="cls-2" transform="matrix(0.6, -0.8, 0.8, 0.6, 90.45, 160.17)">u</text><text class="cls-2" transform="translate(105.73 140.25) rotate(-48.97)">t</text><text class="cls-2" transform="matrix(0.71, -0.71, 0.71, 0.71, 113.2, 131.27)">u</text><text class="cls-2" transform="matrix(0.77, -0.64, 0.64, 0.77, 130.85, 113.6)">b</text><text class="cls-2" transform="matrix(0.82, -0.57, 0.57, 0.82, 149.52, 98.15)">e</text><text class="cls-2" transform="matrix(0.86, -0.51, 0.51, 0.86, 168.4, 85.38)"> </text><text class="cls-2" transform="translate(178.74 79.07) rotate(-26.91)">Y</text><text class="cls-2" transform="matrix(0.93, -0.38, 0.38, 0.93, 196.68, 69.84)">o</text><text class="cls-2" transform="translate(217.83 61.1) rotate(-16.96)">u</text><text class="cls-2" transform="translate(241.95 53.98) rotate(-12.91)">t</text><text class="cls-2" transform="translate(253.25 51.12) rotate(-8.87)">u</text><text class="cls-2" transform="translate(277.89 47.25) rotate(-3.49)">b</text><text class="cls-2" transform="translate(302.09 45.78) rotate(1.63)">e</text></g></g></svg>