<?xml version="1.0" standalone="no"?>
<!DOCTYPE svg PUBLIC "-//W3C//DTD SVG 20010904//EN"
 "http://www.w3.org/TR/2001/REC-SVG-20010904/DTD/svg10.dtd">
<svg version="1.0" xmlns="http://www.w3.org/2000/svg"
 width="4000.000000pt" height="4000.000000pt" viewBox="0 0 4000.000000 4000.000000"
 preserveAspectRatio="xMidYMid meet">

<g transform="translate(0.000000,4000.000000) scale(0.100000,-0.100000)"
fill="#000000" stroke="none">
<path d="M19450 33699 c-2867 -118 -5582 -1112 -7845 -2870 -972 -755 -1849
-1648 -2587 -2634 -2061 -2755 -3003 -6150 -2657 -9585 278 -2766 1406 -5393
3229 -7520 246 -286 392 -443 725 -775 332 -333 489 -479 775 -725 1045 -895
2232 -1638 3490 -2182 1402 -607 2895 -972 4426 -1083 710 -51 1543 -44 2239
20 2966 273 5725 1486 7955 3499 198 178 648 624 840 831 1089 1174 1954 2506
2578 3965 1231 2882 1429 6130 557 9155 -537 1867 -1488 3625 -2765 5115 -246
286 -392 443 -725 775 -418 419 -688 663 -1100 994 -2459 1979 -5492 3044
-8630 3029 -176 0 -403 -5 -505 -9z m-4335 -13354 l0 -7900 -1447 -3 -1448 -2
0 7905 0 7905 1448 -2 1447 -3 0 -7900z m8155 7859 c2242 -190 4182 -1647
5007 -3759 423 -1081 513 -2297 257 -3445 -388 -1735 -1553 -3218 -3149 -4010
-678 -336 -1395 -534 -2160 -596 -253 -20 -831 -15 -1055 10 -787 89 -1454
287 -2119 632 -1696 879 -2865 2522 -3140 4414 -45 305 -55 470 -55 850 0 380
10 543 55 855 147 1029 582 2031 1235 2847 1006 1254 2463 2043 4059 2198 321
32 727 33 1065 4z"/>
</g>
</svg>
